{
.formatVersion = 3;
classes = (
{
code = "one two three B D F I J P S T V W X Y Igrave Iacute Icircumflex Idieresis Eth Yacute Thorn eth Dcaron dcaron Dcroat Itilde Imacron Ibreve Iogonek Idotaccent IJ Jcircumflex lcaron Sacute Scircumflex Scaron Tcaron Tbar Wcircumflex Ycircumflex Ydieresis uni0218 uni021A uni0402 uni0405 uni0406 uni0407 uni0408 uni0409 uni040A uni040E uni0411 uni0412 uni0414 uni0417 uni0420 uni0422 uni0423 uni0424 uni0425 uni042A uni042B uni042C uni042D uni042E Wgrave Wacute Wdieresis Ygrave G_r G_s f_f f_j g_j j_j l_l q_j r.alt r.fina r.init racute.alt racute.fina racute.init rcaron.alt rcaron.fina rcaron.init s.alt s.fina s.init s_s sacute.alt sacute.fina sacute.init scaron.alt scaron.fina scaron.init scedilla.alt scedilla.fina scedilla.init scircumflex.alt scircumflex.fina scircumflex.init t_h t_t uni0157.alt uni0157.fina uni0157.init uni0219.alt uni0219.fina uni0219.init uni0412044F uni0422044F uni0433.alt uni0433.fina uni0433.init uni0436.alt uni0436.fina uni0436.init uni0436.ss02.alt uni0436.ss02.fina uni0436.ss02.init uni0437.alt uni0437.fina uni0437.init uni043B.alt uni043B.init uni043C.alt uni043C.init uni0445.alt uni0445.fina uni0445.init uni0447.alt uni0447.fina uni0447.init uni044A.alt uni044A.fina uni044A.init uni044D.alt uni044D.fina uni044D.init uni044F.alt uni044F.init uni0453.alt uni0453.fina uni0453.init uni0455.alt uni0455.fina uni0455.init uni0459.alt uni0459.init uni0491.alt uni0491.fina uni0491.init x.alt x.fina x.init y_j z.alt z.fina z.init zacute.alt zacute.fina zacute.init zcaron.alt zcaron.fina zcaron.init zdotaccent.alt zdotaccent.fina zdotaccent.init";
name = aalt;
},
{

glyphs = (
{
glyphname = .notdef;
layers = (
{
hints = (
{
horizontal = 1;
place = (-18,65);
type = Stem;
},
{
horizontal = 1;
place = (641,67);
type = Stem;
},
{
place = (99,76);
type = Stem;
},
{
place = (459,67);
type = Stem;
}
);
layerId = "5D537C8E-A691-4577-99BE-0854CC36C2B0";
shapes = (
{
closed = 1;
nodes = (
(524,677,o),
(508,708,o),
(476,708,c),
(147,709,l),
(114,709,o),
(98,678,o),
(98,647,cs),
(98,632,o),
(98.87,593.22,o),
(98.87,539.26,cs),
(98.87,463.71,o),
(97.17,358.42,o),
(89,247,cs),
(83.94,177.14,o),
(77.98,108.3,o),
(77.98,47.11,cs),
(77.98,4.37,o),
(111.49,-17,o),
(145.,-17,c),
(440.,-18,l),
(474.,-18,o),
(508.,4,o),
(508.,48,cs),
(508.,78,o),
(513.,154,o),
(519.,238,cs),
(524.83,317.79,o),
(526.44,400.6,o),
(526.44,470.93,cs),
(526.44,557.49,o),
(524.,625.14,o),
(524,645,c)
);
},
{
closed = 1;
nodes = (
(447.,247.,l),
(442.,178.,o),
(437.,109.,o),
(436.,48.,c),
(436.,47.01,l),
(155.77,47.95,l),
(155.94,48.99,l),
(155.94,78.99,o),
(156.94,153.99,o),
(162.94,237.99,cs),
(169.82,332.67,o),
(174.74,438.54,o),
(174.74,527.34,cs),
(174.74,570.71,o),
(173.57,610.,o),
(170.88,641.93,c),
(450.48,641.08,l),
(456.59,611.87,o),
(459.07,567.4,o),
(459.07,514.15,cs),
(459.07,436.99,o),
(453.86,341.38,o),
(446.94,247.,c)
);
},
{
closed = 1;
nodes = (
(373.94,467.,l),
(366.94,467.,o),
(360.94,464.,o),
(353.94,460.,cs),
(338.47,451.49,o),
(319.42,422.05,o),
(301.4,385.56,c),
(296.22,406.86,o),
(293.14,427.73,o),
(291.94,446.,cs),
(291.,460.16,o),
(282.93,468.08,o),
(272.77,468.08,c),
(272.17,468.08,o),
(271.56,468.05,o),
(270.95,467.99,c),
(255.95,466.99,o),
(247.95,459.99,o),
(247.95,447.99,cs),
(247.95,445.99,o),
(247.95,438.99,o),
(248.95,429.99,cs),
(252.,400.5,o),
(260.48,364.8,o),
(275.84,329.08,c),
(251.96,276.26,o),
(244.5,269.99,o),
(240.96,269.99,cs),
(236.96,269.99,o),
(232.96,273.99,o),
(229.96,276.99,cs),
(224.96,281.99,o),
(220.96,281.99,o),
(214.96,281.99,cs),
(204.61,281.99,o),
(197.97,273.09,o),
(197.97,262.74,cs),
(197.97,256.1,o),
(200.71,248.86,o),
(206.97,242.99,c),
(215.97,234.99,o),
(226.97,230.99,o),
(240.97,230.99,cs),
(267.32,230.99,o),
(285.01,251.66,o),
(300.72,281.67,c),
(312.04,263.75,o),
(325.39,246.57,o),
(340.97,230.99,cs),
(347.97,223.99,o),
(353.97,217.99,o),
(361.97,217.99,cs),
(376.97,217.99,o),
(383.97,229.99,o),
(383.97,239.99,cs),
(383.97,246.99,o),
(381.97,251.99,o),
(374.97,256.99,cs),
(352.12,273.07,o),
(334.46,298.46,o),
(321.39,327.02,c),
(341.26,374.52,o),
(362.12,411.13,o),
(383.96,429.99,cs),
(390.96,435.99,o),
(394.96,440.99,o),
(394.96,446.99,cs),
(394.96,459.99,o),
(384.96,466.99,o),
(373.96,466.99,c)
);
}
);
width = 600;
}
);
},
{
glyphname = exclam;
layers = (
{
hints = (
{
horizontal = 1;
place = (-10,87);
type = Stem;
},
{
place = (73,86);
type = Stem;
},
{
place = (101,58);
type = Stem;
}
);
layerId = "5D537C8E-A691-4577-99BE-0854CC36C2B0";
shapes = (
{
closed = 1;
nodes = (
(135.02,146.94,o),
(148.05,159.32,o),
(149.49,180.5,cs),
(155.49,257.5,o),
(158.99,367.5,o),
(158.99,470,cs),
(158.99,549,o),
(156.49,624.5,o),
(151.99,680,cs),
(150.55,698.68,o),
(137.64,709.56,o),
(122.93,709.56,cs),
(106.53,709.56,o),
(93.4,695.43,o),
(95.48,672.5,cs),
(99.48,615,o),
(101.48,538,o),
(101.48,458.5,cs),
(101.48,291,o),
(92.48,205,o),
(92.48,181,cs),
(92.48,160.25,o),
(104.86,146.94,o),
(120.22,146.94,cs)
);
},
{
closed = 1;
nodes = (
(139.99,-9.5,o),
(158.99,9.5,o),
(158.99,34,cs),
(158.99,57.5,o),
(139.99,76.5,o),
(116.49,76.5,cs),
(92.49,76.5,o),
(73.49,57.5,o),
(73.49,34,cs),
(73.49,9.5,o),
(92.49,-9.5,o),
(116.49,-9.5,cs)
);
}
);
width = 221;
}
);
unicode = 33;
},
{
glyphname = quotedbl;
layers = (
{
hints = (
{
horizontal = 1;
place = (541,207);
type = Stem;
},
{
place = (26,193);
type = Stem;
},
{
place = (31,61);
type = Stem;
}
);
layerId = "5D537C8E-A691-4577-99BE-0854CC36C2B0";
shapes = (
{
closed = 1;
nodes = (
(64.5,540.5,o),
(77,550.5,o),
(79,570.5,cs),
(94,712,ls),
(96.5,736,o),
(82.5,748,o),
(68.5,748,cs),
(55.5,748,o),
(42,738,o),
(40,717,cs),
(25.5,576.5,ls),
(23.5,554,o),
(38,540.5,o),
(52.5,540.5,cs)
);
},
{
closed = 1;
nodes = (
(189,540.5,o),
(201.5,550.5,o),
(203.5,570.5,cs),
(218.5,712,ls),
(221,736,o),
(207,748,o),
(193,748,cs),
(180,748,o),
(166.5,738,o),
(164.5,717,cs),
(150,576.5,ls),
(148,554,o),
(162.5,540.5,o),
(177,540.5,cs)
);
}
);
width = 248;
}
);
leftKerningGroup = quotedbl2;
rightKerningGroup = quotedbl;
unicode = 34;
},
{
glyphname = numbersign;
layers = (
{
hints = (
{
horizontal = 1;
place = (230,45);
type = Stem;
},
{
horizontal = 1;
place = (375,47);
type = Stem;
},
{
place = (53,402);
type = Stem;
}
);
layerId = "5D537C8E-A691-4577-99BE-0854CC36C2B0";
shapes = (
{
closed = 1;
nodes = (
(425,374.5,l),
(445.19,374.5,o),
(455.44,386.47,o),
(455.44,398.33,cs),
(455.44,409.97,o),
(445.56,421.5,o),
(425.5,421.5,cs),
(412.12,421.5,o),
(397.6,421.51,o),
(382.33,421.53,c),
(394.8,460.34,o),
(407.6,497.34,o),
(420.49,530,cs),
(422.67,535.59,o),
(423.63,540.73,o),
(423.63,545.35,cs),
(423.63,561.32,o),
(412.1,570.98,o),
(399.52,570.98,cs),
(389.06,570.98,o),
(377.87,564.3,o),
(371.99,549.01,cs),
(357.22,510.87,o),
(342.66,467.19,o),
(328.52,421.62,c),
(299.,421.67,o),
(268.46,421.74,o),
(239.11,421.8,c),
(251.53,460.51,o),
(264.24,497.42,o),
(276.98,530.01,cs),
(279.16,535.6,o),
(280.12,540.74,o),
(280.12,545.36,cs),
(280.12,561.33,o),
(268.59,570.99,o),
(256.01,570.99,cs),
(245.55,570.99,o),
(234.36,564.31,o),
(228.48,549.02,cs),
(213.75,510.97,o),
(199.26,467.39,o),
(185.19,421.93,c),
(156.66,421.98,o),
(131.05,422.02,o),
(110.99,422.02,cs),
(90.61,422.02,o),
(80.35,410.21,o),
(80.35,398.62,cs),
(80.35,387.46,o),
(89.86,376.51,o),
(108.99,376.51,c),
(127.24,376.4,o),
(148.44,376.24,o),
(171.32,376.06,c),
(161.32,342.41,o),
(151.57,308.41,o),
(142.14,275.45,c),
(121.81,275.48,o),
(101.86,275.5,o),
(82.51,275.5,cs),
(63.14,275.5,o),
(53.01,263.98,o),
(53.01,252.53,cs),
(53.01,241.23,o),
(62.89,230.,o),
(83.51,230.,cs),
(98.41,230.,o),
(113.64,229.99,o),
(129.11,229.97,c),
(115.36,182.19,o),
(102.41,138.27,o),
(90.5,103.,cs),
(89.03,98.63,o),
(88.37,94.54,o),
(88.37,90.78,cs),
(88.37,74.53,o),
(100.75,64.38,o),
(113.7,64.38,cs),
(124.19,64.38,o),
(135.05,71.04,o),
(140.01,86.51,cs),
(151.98,124.21,o),
(166.25,174.61,o),
(182.02,229.89,c),
(211.84,229.83,o),
(242.14,229.75,o),
(272.32,229.68,c),
(258.61,182.02,o),
(245.75,138.21,o),
(234.02,103.01,cs),
(232.55,98.64,o),
(231.89,94.55,o),
(231.89,90.79,cs),
(231.89,74.54,o),
(244.27,64.39,o),
(257.22,64.39,cs),
(267.71,64.39,o),
(278.57,71.05,o),
(283.53,86.52,cs),
(295.48,124.15,o),
(309.65,174.43,o),
(325.32,229.59,c),
(349.3,229.55,o),
(372.97,229.52,o),
(396.02,229.52,cs),
(416.44,229.52,o),
(427.35,241.38,o),
(427.35,252.99,cs),
(427.35,264.12,o),
(417.32,275.02,o),
(396.03,275.02,cs),
(377.18,275.02,o),
(357.88,275.04,o),
(338.31,275.07,c),
(347.72,307.85,o),
(357.56,341.54,o),
(367.69,374.68,c),
(388.57,374.58,o),
(408.01,374.52,o),
(425.03,374.52,c)
);
},
{
closed = 1;
nodes = (
(255.28,275.22,o),
(224.96,275.3,o),
(195.05,275.37,c),
(204.56,308.37,o),
(214.49,342.3,o),
(224.7,375.65,c),
(254.26,375.42,o),
(284.88,375.18,o),
(314.39,374.98,c),
(304.44,341.58,o),
(294.74,307.85,o),
(285.36,275.16,c)
);
}
);
width = 483;
}
);
unicode = 35;
},
{
glyphname = dollar;
layers = (
{
hints = (
{
horizontal = 1;
place = (-3,53);
type = Stem;
},
{
horizontal = 1;
place = (-2,21);
target = up;
type = BottomGhost;
},
{
horizontal = 1;
place = (698,-20);
target = down;
type = TopGhost;
},
{
place = (23,53);
type = Stem;
},
{
place = (75,54);
type = Stem;
},
{
place = (175,54);
type = Stem;
},
{
place = (180,53);
type = Stem;
},
{
place = (187,52);
type = Stem;
},
{
place = (326,55);
type = Stem;
}
);
layerId = "5D537C8E-A691-4577-99BE-0854CC36C2B0";
shapes = (
{
closed = 1;
nodes = (
(380.5,176.5,l),
(380.5,284.62,o),
(307.37,337.93,o),
(239.98,385.35,c),
(240,390.74,o),
(240,396.13,o),
(240,401.51,cs),
(240,466.52,o),
(239.16,531.11,o),
(237.1,588.76,c),
(263.03,582.17,o),
(283.63,566.43,o),
(304.49,538.01,cs),
(311.99,528.01,o),
(320.99,523.51,o),
(329.49,523.51,cs),
(341.99,523.51,o),
(353.49,534.01,o),
(353.49,548.51,cs),
(353.49,555.51,o),
(350.49,562.51,o),
(344.99,570.01,cs),
(314.93,611.85,o),
(276.95,636.2,o),
(234.27,643.86,c),
(233.81,651.44,o),
(233.3,658.82,o),
(232.99,666.01,cs),
(231.49,688.01,o),
(219.49,698.01,o),
(206.49,698.01,cs),
(193.72,698.01,o),
(180.47,686.92,o),
(180.47,667.11,cs),
(180.47,660.61,o),
(180.84,653.31,o),
(181.27,644.88,c),
(117.27,635.49,o),
(74.97,586.49,o),
(74.97,525,cs),
(74.97,444,o),
(129.27,398.54,o),
(187.31,356.54,c),
(186.41,232.91,o),
(182.04,126.53,o),
(178.91,49.65,c),
(110.39,58.05,o),
(75.65,112.4,o),
(75.65,185.47,cs),
(75.65,193.28,o),
(75.98,199.81,o),
(75.98,205.52,cs),
(75.98,225.02,o),
(64.48,234.52,o),
(51.98,234.52,cs),
(39.48,234.52,o),
(26.48,225.02,o),
(24.48,205.52,cs),
(23.75,197.83,o),
(23.29,189.34,o),
(23.29,181.42,cs),
(23.29,178.52,o),
(23.35,175.7,o),
(23.48,173.02,cs),
(29.02,70.11,o),
(87.37,6.39,o),
(176.52,-2.82,c),
(176.07,-12.57,o),
(175.47,-21.,o),
(175.47,-27.71,cs),
(175.47,-48.93,o),
(188.24,-60.49,o),
(201.49,-60.49,cs),
(213.99,-60.49,o),
(226.99,-49.99,o),
(227.99,-29.49,cs),
(228.64,-20.76,o),
(228.87,-11.41,o),
(229.22,-1.56,c),
(315.07,12.61,o),
(380.5,87.09,o),
(380.5,176.52,c)
);
},
{
closed = 1;
nodes = (
(129.,524.52,l),
(129.,559.28,o),
(148.41,583.98,o),
(183.58,590.69,c),
(185.27,545.38,o),
(187.1,489.29,o),
(187.45,424.06,c),
(153.62,451.83,o),
(129.01,482.13,o),
(129.01,524.52,c)
);
},
{
closed = 1;
nodes = (
(234.9,128.28,o),
(238.16,222.28,o),
(239.44,318.65,c),
(286.6,282.39,o),
(325.52,241.67,o),
(325.52,177.03,cs),
(325.52,115.44,o),
(286.54,66.84,o),
(231.54,52.7,c)
);
}
);
width = 406;
}
);
unicode = 36;
},
{
glyphname = percent;
layers = (
{
hints = (
{
horizontal = 1;
place = (9,46);
type = Stem;
},
{
horizontal = 1;
place = (-8,21);
target = up;
type = BottomGhost;
},
{
horizontal = 1;
place = (149,46);
type = Stem;
},
{
horizontal = 1;
place = (451,46);
type = Stem;
},
{
horizontal = 1;
place = (591,46);
type = Stem;
},
{
place = (49,48);
type = Stem;
},
{
place = (193,47);
type = Stem;
},
{
place = (259,48);
type = Stem;
},
{
place = (403,47);
type = Stem;
}
);
layerId = "5D537C8E-A691-4577-99BE-0854CC36C2B0";
shapes = (
{
closed = 1;
nodes = (
(81.5,-7.5,o),
(91.5,-2.5,o),
(100,8.5,cs),
(194.5,131,o),
(334.5,470.5,o),
(445.5,611,cs),
(453,620.5,o),
(456.5,629.5,o),
(456.5,637,cs),
(456.5,651,o),
(447,660.5,o),
(434.5,660.5,cs),
(426,660.5,o),
(416.5,656.5,o),
(407.5,645.5,cs),
(293.5,506,o),
(154,171,o),
(63,44.5,cs),
(52.5,30,o),
(50,23.5,o),
(50,16.5,cs),
(50,3,o),
(60,-7.5,o),
(73.5,-7.5,cs)
);
},
{
closed = 1;
nodes = (
(198.5,450.5,o),
(240,501,o),
(240,555,cs),
(240,600,o),
(210,636.5,o),
(156.5,636.5,cs),
(92,636.5,o),
(49,586.5,o),
(49,533,cs),
(49,487,o),
(80.5,450.5,o),
(135.5,450.5,cs)
);
},
{
closed = 1;
nodes = (
(111.5,496.5,o),
(97,513,o),
(97,535,cs),
(97,563.5,o),
(119.5,590.5,o),
(153.5,590.5,cs),
(179.5,590.5,o),
(193,574.5,o),
(193,554,cs),
(193,525.5,o),
(170.5,496.5,o),
(138.5,496.5,cs)
);
},
{
closed = 1;
nodes = (
(408,9,o),
(449.5,59.5,o),
(449.5,113.5,cs),
(449.5,158.5,o),
(419.5,195,o),
(366,195,cs),
(301.5,195,o),
(258.5,145,o),
(258.5,91.5,cs),
(258.5,45.5,o),
(290,9,o),
(345,9,cs)
);
},
{
closed = 1;
nodes = (
(321,55,o),
(306.5,71.5,o),
(306.5,93.5,cs),
(306.5,122,o),
(329,149,o),
(363,149,cs),
(389,149,o),
(402.5,133,o),
(402.5,112.5,cs),
(402.5,84,o),
(380,55,o),
(348,55,cs)
);
}
);
width = 491;
}
);
unicode = 37;
},
{
glyphname = ampersand;
layers = (
{
hints = (
{
horizontal = 1;
place = (-9,52);
type = Stem;
},
{
horizontal = 1;
place = (601,51);
type = Stem;
},
{
place = (36,58);
type = Stem;
},
{
place = (146,54);
type = Stem;
},
{
place = (278,53);
type = Stem;
},
{
place = (426,51);
type = Stem;
}
);
layerId = "5D537C8E-A691-4577-99BE-0854CC36C2B0";
shapes = (
{
closed = 1;
nodes = (
(467.98,51.17,o),
(434.82,74.06,o),
(403.92,100.08,c),
(442.71,150.86,o),
(469.37,217.4,o),
(475.51,295.5,cs),
(477.01,312.5,o),
(477.01,330.5,o),
(476.51,345,c),
(476.51,363.5,o),
(464.51,372.5,o),
(452.51,372.5,cs),
(439.51,372.5,o),
(425.51,361,o),
(425.51,339.5,cs),
(425.51,326,o),
(425.01,310,o),
(424.01,293,cs),
(419.11,230.75,o),
(397.85,176.14,o),
(366.78,133.97,c),
(302.2,197.76,o),
(250.84,276.04,o),
(222.84,362.28,c),
(278.24,424.32,o),
(330.52,489.21,o),
(330.52,563.5,cs),
(330.52,620.5,o),
(307.52,652.5,o),
(261.02,652.5,cs),
(188.52,652.5,o),
(145.52,593.,o),
(145.52,505.5,cs),
(145.52,459.74,o),
(152.1,415.2,o),
(163.85,372.51,c),
(101.01,303.46,o),
(35.52,230.17,o),
(35.52,148.49,cs),
(35.52,51.99,o),
(98.02,-9.01,o),
(199.02,-9.01,cs),
(259.15,-9.01,o),
(318.46,15.52,o),
(366.74,59.45,c),
(392.07,37.33,o),
(418.11,17.88,o),
(444.01,1.49,c),
(474.51,-19.01,o),
(487.51,-20.51,o),
(495.51,-20.51,cs),
(511.01,-20.51,o),
(522.01,-9.01,o),
(522.51,3.99,c),
(523.51,13.49,o),
(518.01,24.49,o),
(502.5,32,c)
);
},
{
closed = 1;
nodes = (
(199.51,558.49,o),
(218.01,600.99,o),
(253.51,600.99,cs),
(269.51,600.99,o),
(277.51,587.99,o),
(277.51,555.99,cs),
(277.51,511.78,o),
(246.99,467.38,o),
(207.63,421.47,c),
(202.32,449.41,o),
(199.51,477.99,o),
(199.51,506.99,cs)
);
},
{
closed = 1;
nodes = (
(94.01,210.41,o),
(134.69,263.29,o),
(182.31,317.14,c),
(215.94,231.36,o),
(269.55,154.97,o),
(330.12,93.85,c),
(293.29,61.5,o),
(249.14,43.,o),
(204.01,43.,cs),
(133.01,43.,o),
(94.01,84.5,o),
(94.01,154,cs)
);
}
);
width = 517;
}
);
unicode = 38;
},
{
glyphname = quotesingle;
layers = (
{
hints = (
{
horizontal = 1;
place = (541,207);
type = Stem;
},
{
place = (26,68);
type = Stem;
},
{
place = (31,61);
type = Stem;
}
);
layerId = "5D537C8E-A691-4577-99BE-0854CC36C2B0";
shapes = (
{
closed = 1;
nodes = (
(94,712,ls),
(96.5,736,o),
(82.5,748,o),
(68.5,748,cs),
(55.5,748,o),
(42,738,o),
(40,717,cs),
(25.5,576.5,ls),
(23.5,554,o),
(38,540.5,o),
(52.5,540.5,cs),
(64.5,540.5,o),
(77,550.5,o),
(79,570.5,cs)
);
}
);
width = 123;
}
);
leftKerningGroup = quotedbl2;
rightKerningGroup = quotedbl;
unicode = 39;
},
{
glyphname = parenleft;
layers = (
{
hints = (
{
horizontal = 1;
place = (-8,21);
target = up;
type = BottomGhost;
},
{
place = (70,56);
type = Stem;
}
);
layerId = "5D537C8E-A691-4577-99BE-0854CC36C2B0";
shapes = (
{
closed = 1;
nodes = (
(184.98,-3.33,o),
(195.62,-7.61,o),
(204.62,-7.61,cs),
(218.2,-7.61,o),
(228.07,2.13,o),
(228.07,15.54,cs),
(228.07,24.64,o),
(223.52,35.43,o),
(212.51,46.01,cs),
(153.51,105.01,o),
(126.01,204.51,o),
(126.01,309.01,cs),
(126.01,416.01,o),
(154.01,530.01,o),
(205.51,612.51,cs),
(211.81,622.83,o),
(214.45,632.18,o),
(214.45,640.04,cs),
(214.45,655.46,o),
(204.28,665.15,o),
(191.6,665.15,cs),
(180.99,665.15,o),
(168.63,658.37,o),
(159,642.5,cs),
(102,551.,o),
(70,427.,o),
(70,308.5,cs),
(70,190.,o),
(102.5,76.5,o),
(174.5,7,cs)
);
}
);
width = 278;
}
);
unicode = 40;
},
{
glyphname = parenright;
layers = (
{
hints = (
{
horizontal = 1;
place = (-8,21);
target = up;
type = BottomGhost;
},
{
place = (152,56);
type = Stem;
}
);
layerId = "5D537C8E-A691-4577-99BE-0854CC36C2B0";
shapes = (
{
closed = 1;
nodes = (
(175,106.5,o),
(208,230,o),
(208,348.5,cs),
(208,467,o),
(174.5,579,o),
(103.5,650,cs),
(93.17,660.33,o),
(82.6,664.61,o),
(73.61,664.61,cs),
(60.01,664.61,o),
(50.04,654.8,o),
(50.04,641.32,cs),
(50.04,632.25,o),
(54.55,621.52,o),
(65.51,611,cs),
(124.51,552,o),
(152.01,452.5,o),
(152.01,348,cs),
(152.01,241,o),
(124.01,126.5,o),
(72.51,44.5,cs),
(66.21,34.18,o),
(63.57,24.8,o),
(63.57,16.91,cs),
(63.57,1.42,o),
(73.75,-8.36,o),
(86.44,-8.36,cs),
(97.04,-8.36,o),
(109.39,-1.53,o),
(119,14.5,cs)
);
}
);
width = 278;
}
);
unicode = 41;
},
{
glyphname = asterisk;
layers = (
{
hints = (
{
horizontal = 1;
place = (699,-20);
target = down;
type = TopGhost;
},
{
place = (102,38);
type = Stem;
},
{
place = (110,35);
type = Stem;
}
);
layerId = "5D537C8E-A691-4577-99BE-0854CC36C2B0";
shapes = (
{
closed = 1;
nodes = (
(209,604.5,l),
(196.45,612.07,o),
(176.12,624.48,o),
(153.86,638.07,c),
(169.49,652.04,o),
(185.13,666.06,o),
(200,679.5,cs),
(206.49,685.54,o),
(209.19,691.93,o),
(209.19,697.41,cs),
(209.19,705.57,o),
(203.2,711.72,o),
(194.77,711.72,cs),
(189.65,711.72,o),
(183.63,709.45,o),
(177.5,703.99,cs),
(165.22,693.02,o),
(152.47,681.67,o),
(139.67,670.29,c),
(138.67,688.13,o),
(137.61,705.05,o),
(136.5,719.99,cs),
(135.55,733.23,o),
(127.45,739.87,o),
(119.39,739.87,cs),
(110.88,739.87,o),
(102.41,732.47,o),
(102.41,717.61,cs),
(102.41,701.97,o),
(104.75,684.94,o),
(105.86,667.32,c),
(88.14,678.09,o),
(71.84,687.95,o),
(60,694.99,cs),
(54.78,697.99,o),
(49.95,699.27,o),
(45.75,699.27,cs),
(35.88,699.27,o),
(29.45,692.22,o),
(29.45,683.82,cs),
(29.45,677.3,o),
(33.33,669.97,o),
(42.5,664.5,cs),
(57.44,655.57,o),
(76.56,643.99,o),
(96.5,631.88,c),
(80.64,617.74,o),
(65.5,604.2,o),
(51.99,592,cs),
(45.63,586.2,o),
(43.03,580.12,o),
(43.03,574.83,cs),
(43.03,566.29,o),
(49.82,559.78,o),
(58.54,559.78,cs),
(63.53,559.78,o),
(69.15,561.91,o),
(74.5,567.,cs),
(85.44,576.89,o),
(97.37,587.59,o),
(109.83,598.73,c),
(110.74,582.32,o),
(111.62,566.35,o),
(112.5,551.5,cs),
(113.,538.06,o),
(121.3,531.06,o),
(129.39,531.06,cs),
(137.31,531.06,o),
(145.02,537.76,o),
(145.02,551.68,cs),
(145.02,568.07,o),
(143.73,585.71,o),
(142.94,603.66,c),
(161.48,592.41,o),
(178.34,582.21,o),
(190.49,574.99,cs),
(195.64,571.92,o),
(200.45,570.61,o),
(204.67,570.61,cs),
(214.5,570.61,o),
(221.09,577.71,o),
(221.09,586.11,cs),
(221.09,592.3,o),
(217.5,599.2,o),
(208.99,604.48,c)
);
}
);
width = 248;
}
);
unicode = 42;
},
{
glyphname = plus;
layers = (
{
hints = (
{
horizontal = 1;
place = (311,50);
type = Stem;
},
{
place = (152,52);
type = Stem;
}
);
layerId = "5D537C8E-A691-4577-99BE-0854CC36C2B0";
shapes = (
{
closed = 1;
nodes = (
(204.31,361.21,l),
(204.5,450.5,l),
(204.5,469.5,o),
(192.5,481,o),
(178.5,481,cs),
(165,481,o),
(152.5,470,o),
(152.5,451,c),
(152.31,361.32,l),
(69,361.5,l),
(50.5,361.5,o),
(39,350,o),
(39,336.5,cs),
(39,323.5,o),
(50,311.5,o),
(68.5,311.5,c),
(152.2,311.32,l),
(152,220.5,l),
(152,202,o),
(164.5,191,o),
(178,191,cs),
(192,191,o),
(204,201.5,o),
(204,220,c),
(204.2,311.2,l),
(298,311,l),
(316.5,311,o),
(328.5,323,o),
(328.5,336,cs),
(328.5,349.5,o),
(317,361,o),
(298.5,361,c)
);
}
);
width = 358;
}
);
unicode = 43;
},
{
glyphname = comma;
layers = (
{
hints = (
{
horizontal = 1;
place = (-138,212);
type = Stem;
},
{
place = (59,56);
type = Stem;
}
);
layerId = "5D537C8E-A691-4577-99BE-0854CC36C2B0";
shapes = (
{
closed = 1;
nodes = (
(32,-138,o),
(40,-135.5,o),
(48.5,-129.5,c),
(91.5,-101,o),
(115,-43,o),
(115,11.5,cs),
(115,58.5,o),
(96.5,74,o),
(72,74,cs),
(48,74,o),
(29.5,55,o),
(29.5,31,cs),
(29.5,4.5,o),
(58.5,-9,o),
(58.5,-31.5,cs),
(58.5,-54.5,o),
(38.5,-79,o),
(21,-95,cs),
(11,-104.5,o),
(5,-113,o),
(5,-121,cs),
(5,-130,o),
(12,-138,o),
(25,-138,cs)
);
}
);
width = 145;
}
);
leftKerningGroup = comma;
unicode = 44;
},
{
glyphname = hyphen;
layers = (
{
hints = (
{
horizontal = 1;
place = (217,45);
type = Stem;
},
{
place = (100,227);
type = Stem;
}
);
layerId = "5D537C8E-A691-4577-99BE-0854CC36C2B0";
shapes = (
{
closed = 1;
nodes = (
(316,215.5,o),
(326.5,227,o),
(326.5,238,cs),
(326.5,250,o),
(316,261.5,o),
(295,261.5,c),
(237,262,o),
(177.5,263.5,o),
(131.5,263.5,cs),
(110.5,263.5,o),
(100,251.5,o),
(100,240,cs),
(100,228.5,o),
(110.5,217,o),
(131.5,217,cs),
(183.5,217,o),
(240,216.5,o),
(295,215.5,c)
);
}
);
width = 397;
}
);
unicode = 45;
},
{
glyphname = period;
layers = (
{
hints = (
{
horizontal = 1;
place = (-11,89);
type = Stem;
},
{
place = (30,88);
type = Stem;
}
);
layerId = "5D537C8E-A691-4577-99BE-0854CC36C2B0";
shapes = (
{
closed = 1;
nodes = (
(98,-10.5,o),
(117.5,9,o),
(117.5,34,cs),
(117.5,58,o),
(98,77.5,o),
(74,77.5,cs),
(49.5,77.5,o),
(30,58,o),
(30,34,cs),
(30,9,o),
(49.5,-10.5,o),
(74,-10.5,cs)
);
}
);
width = 148;
}
);
unicode = 46;
},
{
glyphname = slash;
layers = (
{
hints = (
{
horizontal = 1;
place = (-1,21);
target = up;
type = BottomGhost;
},
{
place = (40,311);
type = Stem;
}
);
layerId = "5D537C8E-A691-4577-99BE-0854CC36C2B0";
shapes = (
{
closed = 1;
nodes = (
(63,-0.5,l),
(71,-0.5,o),
(80,4.5,o),
(87.5,16,cs),
(173.5,150,o),
(253,472.5,o),
(343.5,612.5,cs),
(348.96,620.9,o),
(351.25,628.94,o),
(351.25,635.74,cs),
(351.25,637.04,o),
(351.17,638.29,o),
(351.01,639.49,cs),
(349.51,651.49,o),
(340.01,659.99,o),
(329.01,659.99,cs),
(321.51,659.99,o),
(312.01,655.49,o),
(304.01,644.49,cs),
(215.51,521.49,o),
(123.01,166.99,o),
(46.01,45.49,cs),
(41.83,39.03,o),
(39.96,32.57,o),
(39.96,26.55,cs),
(39.96,24.65,o),
(40.15,22.79,o),
(40.51,20.99,cs),
(43.01,8.49,o),
(51.51,-0.51,o),
(63.01,-0.51,c)
);
}
);
width = 384;
}
);
leftKerningGroup = slash;
unicode = 47;
},
{
glyphname = zero;
layers = (
{
hints = (
{
horizontal = 1;
place = (-3,53);
type = Stem;
},
{
horizontal = 1;
place = (614,53);
type = Stem;
},
{
place = (30,57);
type = Stem;
},
{
place = (346,57);
type = Stem;
}
);
layerId = "5D537C8E-A691-4577-99BE-0854CC36C2B0";
shapes = (
{
closed = 1;
nodes = (
(321,-2.5,o),
(403,108.5,o),
(403,346.5,cs),
(403,568.5,o),
(331,666.5,o),
(225.5,666.5,cs),
(116,666.5,o),
(30,551.5,o),
(30,319.5,cs),
(30,92.5,o),
(100.5,-2.5,o),
(210.5,-2.5,cs)
);
},
{
closed = 1;
nodes = (
(139.5,50,o),
(87,126,o),
(87,318.5,cs),
(87,520.5,o),
(151.5,614,o),
(225.5,614,cs),
(295.5,614,o),
(346,540.5,o),
(346,350.5,cs),
(346,139.5,o),
(285,50,o),
(210,50,cs)
);
}
);
width = 433;
}
);
unicode = 48;
},
{
glyphname = one;
layers = (
{
hints = (
{
horizontal = 1;
place = (-1,21);
target = up;
type = BottomGhost;
},
{
place = (150,56);
type = Stem;
}
);
layerId = "5D537C8E-A691-4577-99BE-0854CC36C2B0";
shapes = (
{
closed = 1;
nodes = (
(197.5,653.5,o),
(186,662.5,o),
(174,662.5,cs),
(162,662.5,o),
(149.5,654,o),
(145,636,cs),
(127,563,o),
(86.5,513,o),
(29.5,464.5,cs),
(19.5,456,o),
(15,446.5,o),
(15,438,cs),
(15,425,o),
(25.5,414,o),
(39.5,414,cs),
(46,414,o),
(53,416.5,o),
(60,421.5,cs),
(87.8,441.13,o),
(124.63,482.82,o),
(148.62,517.87,c),
(149.32,499.21,o),
(149.67,476.79,o),
(149.67,451.61,cs),
(149.67,338.65,o),
(142.63,170.1,o),
(128.99,36,cs),
(126.49,12,o),
(141.99,-1,o),
(156.99,-1,cs),
(169.99,-1,o),
(182.99,8.5,o),
(184.99,29,cs),
(196.,142.59,o),
(205.83,301.19,o),
(205.83,448.54,cs),
(205.83,515.24,o),
(203.82,579.63,o),
(199,636.5,cs)
);
}
);
width = 275;
}
);
unicode = 49;
},
{
glyphname = two;
layers = (
{
hints = (
{
horizontal = 1;
place = (-5,52);
type = Stem;
},
{
horizontal = 1;
place = (613,52);
type = Stem;
},
{
place = (63,54);
type = Stem;
},
{
place = (301,57);
type = Stem;
}
);
layerId = "5D537C8E-A691-4577-99BE-0854CC36C2B0";
shapes = (
{
closed = 1;
nodes = (
(89,79,o),
(40,71.5,o),
(40,39,cs),
(40,22.5,o),
(53,8,o),
(71.5,8,cs),
(95.5,8,o),
(118.5,34.5,o),
(140.5,34.5,cs),
(173.5,34.5,o),
(239,-5,o),
(318.5,-5,cs),
(396,-5,o),
(445,77.5,o),
(445,137.5,cs),
(445,157,o),
(433,167.5,o),
(419.5,167.5,cs),
(408,167.5,o),
(395,159.5,o),
(392.5,139.5,cs),
(386,85,o),
(355,47,o),
(312,47,cs),
(261,47,o),
(218.5,65.5,o),
(177.5,81.5,c),
(293.5,211,o),
(358,401,o),
(358,501,cs),
(358,608.5,o),
(292.5,665,o),
(213,665,cs),
(130.5,665,o),
(63,608,o),
(63,510.5,cs),
(63,482,o),
(67.5,449,o),
(94,449,cs),
(108,449,o),
(120,459,o),
(120,476,cs),
(120,485.5,o),
(117,496.5,o),
(117,511.5,cs),
(117,576.5,o),
(158,612.5,o),
(211.5,612.5,cs),
(260,612.5,o),
(301,576,o),
(301,504,cs),
(301,371.5,o),
(199,162.5,o),
(118.5,101.5,cs)
);
}
);
width = 486;
}
);
unicode = 50;
},
{
glyphname = three;
layers = (
{
hints = (
{
horizontal = 1;
place = (-2,52);
type = Stem;
},
{
horizontal = 1;
place = (614,53);
type = Stem;
},
{
place = (74,54);
type = Stem;
},
{
place = (307,56);
type = Stem;
},
{
place = (350,56);
type = Stem;
}
);
layerId = "5D537C8E-A691-4577-99BE-0854CC36C2B0";
shapes = (
{
closed = 1;
nodes = (
(281.76,377.48,l),
(328.3,413,o),
(363.5,464.7,o),
(363.5,528.5,cs),
(363.5,609.5,o),
(306.,667,o),
(225.5,667,cs),
(137.5,667,o),
(74.5,606,o),
(74.5,515,cs),
(74.5,480.5,o),
(81.,451,o),
(107.,451,cs),
(120.,451,o),
(132.,461.5,o),
(132.,476.5,cs),
(132.,487.5,o),
(128.,496,o),
(128.,514.5,cs),
(128.,577.5,o),
(168.,614,o),
(225.,614,cs),
(274.,614,o),
(307.,581,o),
(307.,530,cs),
(307.,470,o),
(273.,409.5,o),
(205.5,390.5,cs),
(189.,386,o),
(181.5,374.5,o),
(181.5,363,cs),
(181.5,349.38,o),
(194.12,338.03,o),
(217.71,338.03,cs),
(300.77,338.03,o),
(350.,280.45,o),
(350.,198.01,cs),
(350.,105.51,o),
(294.5,50.01,o),
(216.5,50.01,cs),
(161.,50.01,o),
(115.5,78.01,o),
(94.,129.01,cs),
(87.,145.51,o),
(75.5,152.51,o),
(64.5,152.51,cs),
(51.5,152.51,o),
(40.,142.01,o),
(40.,125.51,cs),
(40.,102.51,o),
(61.5,69.01,o),
(83.,48.01,cs),
(114.5,16.51,o),
(161.5,-2.49,o),
(215.5,-2.49,cs),
(326.,-2.49,o),
(406.5,78.01,o),
(406.5,194.01,cs),
(406.5,287.92,o),
(354.41,350.34,o),
(281.76,377.5,c)
);
}
);
width = 457;
}
);
unicode = 51;
},
{
glyphname = four;
layers = (
{
hints = (
{
horizontal = 1;
place = (1,21);
target = up;
type = BottomGhost;
},
{
horizontal = 1;
place = (257,53);
type = Stem;
},
{
place = (119,56);
type = Stem;
},
{
place = (273,56);
type = Stem;
},
{
place = (287,54);
type = Stem;
}
);
layerId = "5D537C8E-A691-4577-99BE-0854CC36C2B0";
shapes = (
{
closed = 1;
nodes = (
(403,236.5,l),
(382.98,249.71,o),
(362.46,261.21,o),
(341.5,270.94,c),
(346.16,319.93,o),
(351.46,363.53,o),
(355.99,400.,cs),
(362.49,452.5,o),
(372.99,498.,o),
(372.99,509.,cs),
(372.99,529.,o),
(359.49,539.5,o),
(345.99,539.5,cs),
(333.49,539.5,o),
(319.99,531.,o),
(316.49,512.,cs),
(303.67,441.58,o),
(293.87,365.68,o),
(286.89,291.94,c),
(249.14,303.52,o),
(210.23,309.51,o),
(170.5,309.51,cs),
(153.5,309.51,o),
(139.5,308.51,o),
(122.,306.01,c),
(163.,397.51,o),
(175.5,519.51,o),
(175.5,586.51,cs),
(175.5,599.01,o),
(175.,618.01,o),
(173.,637.51,cs),
(171.,658.01,o),
(158.,667.51,o),
(145.,667.51,cs),
(130.5,667.51,o),
(116.5,656.01,o),
(116.5,636.01,cs),
(116.5,622.01,o),
(119.,596.01,o),
(119.,579.01,cs),
(119.,468.01,o),
(84.,325.51,o),
(57.,303.01,cs),
(36.5,286.51,o),
(20.,282.51,o),
(20.,263.01,cs),
(20.,247.51,o),
(32.,232.51,o),
(50.5,232.51,cs),
(73.,232.51,o),
(95.,257.01,o),
(170.,257.01,cs),
(207.52,257.01,o),
(245.6,250.31,o),
(282.24,237.94,c),
(276.33,161.83,o),
(273.5,90.21,o),
(273.5,32.02,cs),
(273.5,11.52,o),
(287.,1.02,o),
(301.,1.02,cs),
(315.,1.02,o),
(329.5,12.02,o),
(329.5,33.52,cs),
(329.5,97.89,o),
(332.45,159.03,o),
(336.69,214.85,c),
(350.02,207.98,o),
(362.99,200.35,o),
(375.49,192.02,cs),
(382.99,187.02,o),
(389.99,184.52,o),
(396.49,184.52,cs),
(409.99,184.52,o),
(419.99,196.02,o),
(419.99,209.02,cs),
(419.99,218.52,o),
(414.99,228.52,o),
(402.99,236.52,c)
);
}
);
width = 460;
}
);
unicode = 52;
},
{
glyphname = five;
layers = (
{
hints = (
{
horizontal = 1;
place = (-5,53);
type = Stem;
},
{
horizontal = 1;
place = (402,53);
type = Stem;
},
{
horizontal = 1;
place = (582,52);
type = Stem;
},
{
place = (349,57);
type = Stem;
}
);
layerId = "5D537C8E-A691-4577-99BE-0854CC36C2B0";
shapes = (
{
closed = 1;
nodes = (
(317,-4.5,o),
(406,92.5,o),
(406,248,cs),
(406,383.5,o),
(339.5,454.5,o),
(235.5,454.5,cs),
(205.5,454.5,o),
(172,448,o),
(141.5,438,c),
(156,486.5,o),
(160.5,533,o),
(163.5,566.5,cs),
(164.5,576.5,o),
(170,581.5,o),
(179,581.5,cs),
(236,581.5,o),
(313.5,585,o),
(365.5,621,cs),
(379,630.5,o),
(384.5,641.5,o),
(384.5,651.5,cs),
(384.5,664.5,o),
(375,674.5,o),
(362,674.5,cs),
(356,674.5,o),
(349.5,673,o),
(342.5,668.5,cs),
(290,635,o),
(237.5,634,o),
(151.5,634,cs),
(124,634,o),
(111.5,622.5,o),
(109,596.5,cs),
(106.5,568.5,o),
(105,481,o),
(78.5,422,cs),
(75,414,o),
(73.5,407,o),
(73.5,401,cs),
(73.5,383.5,o),
(85,373,o),
(101,373,cs),
(128,373,o),
(149,402,o),
(231.5,402,cs),
(307.5,402,o),
(349,354.5,o),
(349,248,cs),
(349,120.5,o),
(285,48,o),
(199.5,48,cs),
(143.5,48,o),
(105,83.5,o),
(94,158.5,cs),
(91,178.5,o),
(79,187.5,o),
(67,187.5,cs),
(53,187.5,o),
(40,175,o),
(40,154.5,cs),
(40,82,o),
(95,-4.5,o),
(198.5,-4.5,cs)
);
}
);
width = 456;
}
);
unicode = 53;
},
{
glyphname = six;
layers = (
{
hints = (
{
horizontal = 1;
place = (-3,52);
type = Stem;
},
{
horizontal = 1;
place = (360,53);
type = Stem;
},
{
horizontal = 1;
place = (614,52);
type = Stem;
},
{
place = (81,55);
type = Stem;
},
{
place = (391,57);
type = Stem;
}
);
layerId = "5D537C8E-A691-4577-99BE-0854CC36C2B0";
shapes = (
{
closed = 1;
nodes = (
(279.5,413,l),
(230.68,413,o),
(184.6,396.45,o),
(140.55,365.28,c),
(158.77,529.71,o),
(229.25,613.99,o),
(307.5,613.99,cs),
(345.5,613.99,o),
(372.5,596.49,o),
(399.5,550.99,cs),
(406.,539.99,o),
(415.,534.99,o),
(423.5,534.99,cs),
(436.5,534.99,o),
(448.,545.49,o),
(448.,561.49,cs),
(448.,567.49,o),
(446.,574.99,o),
(442.,582.49,cs),
(411.5,638.99,o),
(363.,666.49,o),
(306.5,666.49,cs),
(177.04,666.49,o),
(89.41,520.33,o),
(80.71,312.88,c),
(63.71,295.09,o),
(46.99,275.09,o),
(30.5,253,cs),
(23.,243,o),
(20.,233.5,o),
(20.,225,cs),
(20.,210.5,o),
(30.5,200,o),
(43.,200,cs),
(52.5,200,o),
(63.,206,o),
(72.5,219.5,cs),
(75.5,223.74,o),
(78.5,227.88,o),
(81.5,231.92,c),
(92.77,64.56,o),
(166.09,-3.01,o),
(257.99,-3.01,cs),
(361.49,-3.01,o),
(448.49,106.49,o),
(448.49,228.49,cs),
(448.49,333.99,o),
(384.49,412.99,o),
(279.49,412.99,c)
);
},
{
closed = 1;
nodes = (
(194.49,49.49,o),
(135.99,106.49,o),
(135.99,278.49,cs),
(135.99,284.05,o),
(136.04,289.54,o),
(136.14,294.96,c),
(182.49,339.29,o),
(229.08,360.49,o),
(278.49,360.49,cs),
(347.49,360.49,o),
(391.49,310.99,o),
(391.49,230.99,cs),
(391.49,128.99,o),
(329.49,49.49,o),
(258.99,49.49,cs)
);
}
);
width = 509;
}
);
unicode = 54;
},
{
glyphname = seven;
layers = (
{
hints = (
{
horizontal = 1;
place = (-2,21);
target = up;
type = BottomGhost;
},
{
horizontal = 1;
place = (244,51);
type = Stem;
},
{
horizontal = 1;
place = (255,51);
type = Stem;
},
{
horizontal = 1;
place = (609,52);
type = Stem;
},
{
place = (153,56);
type = Stem;
}
);
layerId = "5D537C8E-A691-4577-99BE-0854CC36C2B0";
shapes = (
{
closed = 1;
nodes = (
(357.5,647.5,o),
(337,627.5,o),
(305,627.5,cs),
(236,627.5,o),
(176,661,o),
(116.5,661,cs),
(66,661,o),
(30,607.5,o),
(30,576,cs),
(30,560.5,o),
(41,550.5,o),
(54.5,550.5,cs),
(64,550.5,o),
(74,556.5,o),
(80.5,570,cs),
(95,599.5,o),
(105,608.5,o),
(125,608.5,cs),
(160,608.5,o),
(223,578.5,o),
(290.5,576,c),
(244.46,492.86,o),
(212.11,394.53,o),
(190.41,302.72,c),
(168.94,304.56,o),
(147,306,o),
(120,306,cs),
(97,306,o),
(86,292.5,o),
(86,280,cs),
(86,267,o),
(96.5,254.5,o),
(118.5,254.5,cs),
(140.23,254.5,o),
(160.28,253.57,o),
(179.36,252.25,c),
(160.61,159.11,o),
(153,77.63,o),
(153,33,cs),
(153,9,o),
(166.5,-2,o),
(181,-2,cs),
(194,-2,o),
(208,8.5,o),
(209,32.5,cs),
(212.33,106.57,o),
(221.83,179.28,o),
(235.76,247.59,c),
(264.93,245.1,o),
(293.47,243.1,o),
(324.5,243.99,cs),
(343.,244.49,o),
(352.,256.99,o),
(352.,269.99,cs),
(352.,281.99,o),
(342.5,294.99,o),
(324.5,294.99,cs),
(293.5,294.99,o),
(268.81,296.19,o),
(246.97,297.79,c),
(272.61,403.23,o),
(308.48,495.46,o),
(347.5,561.99,cs),
(353.5,571.99,o),
(361.5,573.49,o),
(383.,578.99,cs),
(404.5,584.49,o),
(413.,598.49,o),
(413.,613.49,cs),
(413.,630.99,o),
(400.5,647.49,o),
(379.5,647.5,c)
);
}
);
width = 433;
}
);
unicode = 55;
},
{
glyphname = eight;
layers = (
{
hints = (
{
horizontal = 1;
place = (-7,52);
type = Stem;
},
{
horizontal = 1;
place = (615,53);
type = Stem;
},
{
place = (30,57);
type = Stem;
},
{
place = (79,57);
type = Stem;
},
{
place = (296,57);
type = Stem;
},
{
place = (331,57);
type = Stem;
}
);
layerId = "5D537C8E-A691-4577-99BE-0854CC36C2B0";
shapes = (
{
closed = 1;
nodes = (
(255.36,374.96,l),
(307.96,419.65,o),
(352.51,468.35,o),
(352.51,534.5,cs),
(352.51,623.5,o),
(284.01,668,o),
(215.51,668,cs),
(147.01,668,o),
(78.51,623.5,o),
(78.51,534.5,cs),
(78.51,469.37,o),
(120.88,420.85,o),
(170.91,376.02,c),
(101.93,321.5,o),
(30.01,261.76,o),
(30.01,165.99,cs),
(30.01,51.49,o),
(119.51,-7.01,o),
(209.01,-7.01,cs),
(298.51,-7.01,o),
(388.01,52.49,o),
(388.01,165.99,cs),
(388.01,259.8,o),
(320.55,320.08,o),
(255.37,374.94,c)
);
},
{
closed = 1;
nodes = (
(135.51,589.98,o),
(175.51,615.48,o),
(215.51,615.48,cs),
(255.51,615.48,o),
(295.51,589.98,o),
(295.51,537.48,cs),
(295.51,487.12,o),
(259.38,448.4,o),
(213.77,410.35,c),
(170.15,448.92,o),
(135.51,487.85,o),
(135.51,537.48,cs)
);
},
{
closed = 1;
nodes = (
(208.51,45.48,l),
(147.51,45.48,o),
(87.01,86.98,o),
(87.01,166.48,cs),
(87.01,238.31,o),
(148.71,288.87,o),
(212.62,340.07,c),
(273.02,288.85,o),
(331.02,237.88,o),
(331.02,166.47,cs),
(331.02,87.47,o),
(269.52,45.47,o),
(208.52,45.47,c)
);
}
);
width = 428;
}
);
unicode = 56;
},
{
glyphname = nine;
layers = (
{
hints = (
{
horizontal = 1;
place = (-2,21);
target = up;
type = BottomGhost;
},
{
horizontal = 1;
place = (266,51);
type = Stem;
},
{
horizontal = 1;
place = (610,52);
type = Stem;
},
{
place = (30,57);
type = Stem;
},
{
place = (332,56);
type = Stem;
}
);
layerId = "5D537C8E-A691-4577-99BE-0854CC36C2B0";
shapes = (
{
closed = 1;
nodes = (
(104,662.5,o),
(30,576.5,o),
(30,454,cs),
(30,340.5,o),
(95,265.5,o),
(192.5,265.5,cs),
(243.99,265.5,o),
(291.02,289.07,o),
(325.04,327.37,c),
(305.14,164.79,o),
(239.31,76.17,o),
(129.5,51.49,cs),
(110.,46.99,o),
(101.5,34.49,o),
(101.5,22.49,cs),
(101.5,9.49,o),
(111.5,-2.01,o),
(128.,-2.01,cs),
(141.5,-2.01,o),
(170.,7.49,o),
(187.,13.99,cs),
(321.5,67.49,o),
(387.5,212.99,o),
(387.5,432.99,cs),
(387.5,585.99,o),
(316.,662.49,o),
(207.5,662.5,c)
);
},
{
closed = 1;
nodes = (
(192.5,317.49,l),
(126.5,317.49,o),
(87.,369.99,o),
(87.,453.99,cs),
(87.,547.49,o),
(136.,609.99,o),
(207.5,609.99,cs),
(280.5,609.99,o),
(331.5,552.99,o),
(331.5,442.99,c),
(331.5,442.73,l),
(320.59,366.86,o),
(262.35,317.5,o),
(192.5,317.5,c)
);
}
);
width = 438;
}
);
unicode = 57;
},
{
glyphname = colon;
layers = (
{
hints = (
{
horizontal = 1;
place = (-10,89);
type = Stem;
},
{
horizontal = 1;
place = (263,88);
type = Stem;
},
{
place = (30,88);
type = Stem;
}
);
layerId = "5D537C8E-A691-4577-99BE-0854CC36C2B0";
shapes = (
{
closed = 1;
nodes = (
(100,262.5,o),
(119.5,282,o),
(119.5,307,cs),
(119.5,331,o),
(100,350.5,o),
(76,350.5,cs),
(51.5,350.5,o),
(32,331,o),
(32,307,cs),
(32,282,o),
(51.5,262.5,o),
(76,262.5,cs)
);
},
{
closed = 1;
nodes = (
(98,-9.5,o),
(117.5,10,o),
(117.5,35,cs),
(117.5,59,o),
(98,78.5,o),
(74,78.5,cs),
(49.5,78.5,o),
(30,59,o),
(30,35,cs),
(30,10,o),
(49.5,-9.5,o),
(74,-9.5,cs)
);
}
);
width = 150;
}
);
leftKerningGroup = colon;
unicode = 58;
},
{
glyphname = semicolon;
layers = (
{
hints = (
{
horizontal = 1;
place = (263,88);
type = Stem;
},
{
place = (32,87);
type = Stem;
},
{
place = (61,57);
type = Stem;
}
);
layerId = "5D537C8E-A691-4577-99BE-0854CC36C2B0";
shapes = (
{
closed = 1;
nodes = (
(99.5,262.5,o),
(119,282,o),
(119,307,cs),
(119,331,o),
(99.5,350.5,o),
(75.5,350.5,cs),
(51,350.5,o),
(31.5,331,o),
(31.5,307,cs),
(31.5,282,o),
(51,262.5,o),
(75.5,262.5,cs)
);
},
{
closed = 1;
nodes = (
(34.5,-138,o),
(42.5,-135.5,o),
(51,-129.5,c),
(94,-101,o),
(117.5,-43,o),
(117.5,11.5,cs),
(117.5,58.5,o),
(99,74,o),
(74.5,74,cs),
(50.5,74,o),
(32,55,o),
(32,31,cs),
(32,4.5,o),
(61,-9,o),
(61,-31.5,cs),
(61,-54.5,o),
(41,-79,o),
(23.5,-95,cs),
(13.5,-104.5,o),
(7.5,-113,o),
(7.5,-121,cs),
(7.5,-130,o),
(14.5,-138,o),
(27.5,-138,cs)
);
}
);
width = 149;
}
);
leftKerningGroup = colon;
unicode = 59;
},
{
glyphname = less;
layers = (
{
hints = (
{
horizontal = 1;
place = (187,299);
type = Stem;
},
{
place = (55,193);
type = Stem;
}
);
layerId = "5D537C8E-A691-4577-99BE-0854CC36C2B0";
shapes = (
{
closed = 1;
nodes = (
(201.5,196,ls),
(208.5,189.5,o),
(216,187,o),
(222,187,cs),
(236,187,o),
(247.5,199,o),
(247.5,213,cs),
(247.5,220,o),
(244.5,227.5,o),
(237,234,c),
(135,327.5,l),
(132.19,330.31,o),
(130.69,333.38,o),
(130.69,336.45,cs),
(130.69,339.38,o),
(132.07,342.31,o),
(135,345,cs),
(234.5,439,ls),
(242,446,o),
(245,454,o),
(245,461,cs),
(245,474.5,o),
(234,486,o),
(220.5,486,cs),
(214,486,o),
(206.5,483,o),
(199.5,476.5,cs),
(59,345,l),
(56.07,342.07,o),
(54.69,339.14,o),
(54.69,336.26,cs),
(54.69,333.26,o),
(56.19,330.32,o),
(59,327.51,c)
);
}
);
width = 297;
}
);
unicode = 60;
},
{
glyphname = equal;
layers = (
{
hints = (
{
horizontal = 1;
place = (251,50);
type = Stem;
},
{
horizontal = 1;
place = (364,49);
type = Stem;
},
{
place = (65,292);
type = Stem;
}
);
layerId = "5D537C8E-A691-4577-99BE-0854CC36C2B0";
shapes = (
{
closed = 1;
nodes = (
(324.5,363.5,ls),
(343.5,363.5,o),
(356,375,o),
(356,388.5,cs),
(356,401.5,o),
(343.5,413,o),
(324.5,413,cs),
(96,413,ls),
(77,413,o),
(65,401.5,o),
(65,388.5,cs),
(65,375,o),
(77,363.5,o),
(96,363.5,cs)
);
},
{
closed = 1;
nodes = (
(325,251,ls),
(344,251,o),
(356.5,262.5,o),
(356.5,276,cs),
(356.5,289,o),
(344,300.5,o),
(325,300.5,cs),
(96.5,300.5,ls),
(77.5,300.5,o),
(65.5,289,o),
(65.5,276,cs),
(65.5,262.5,o),
(77.5,251,o),
(96.5,251,cs)
);
}
);
width = 412;
}
);
unicode = 61;
},
{
glyphname = greater;
layers = (
{
hints = (
{
horizontal = 1;
place = (187,299);
type = Stem;
},
{
place = (59,192);
type = Stem;
}
);
layerId = "5D537C8E-A691-4577-99BE-0854CC36C2B0";
shapes = (
{
closed = 1;
nodes = (
(104,196,l),
(246.5,327.5,l),
(249.31,330.31,o),
(250.81,333.25,o),
(250.81,336.25,cs),
(250.81,339.13,o),
(249.43,342.06,o),
(246.5,344.99,c),
(106,476.49,ls),
(98.5,483.49,o),
(91,486.49,o),
(84.5,486.49,cs),
(71.5,486.49,o),
(60.5,474.99,o),
(60.5,461.49,cs),
(60.5,454.49,o),
(63.5,445.99,o),
(71,438.99,cs),
(170.5,344.99,ls),
(173.43,342.3,o),
(174.81,339.37,o),
(174.81,336.44,cs),
(174.81,333.37,o),
(173.31,330.3,o),
(170.5,327.49,c),
(68.5,233.99,l),
(61,227.49,o),
(58.5,219.99,o),
(58.5,212.99,cs),
(58.5,199.49,o),
(69.5,186.99,o),
(83.5,186.99,cs),
(90,186.99,o),
(97,189.49,o),
(104,195.99,c)
);
}
);
width = 289;
}
);
unicode = 62;
},
{
glyphname = question;
layers = (
{
hints = (
{
horizontal = 1;
place = (-10,87);
type = Stem;
},
{
horizontal = 1;
place = (652,52);
type = Stem;
},
{
place = (25,56);
type = Stem;
},
{
place = (109,85);
type = Stem;
},
{
place = (122,56);
type = Stem;
},
{
place = (279,57);
type = Stem;
}
);
layerId = "5D537C8E-A691-4577-99BE-0854CC36C2B0";
shapes = (
{
closed = 1;
nodes = (
(163.5,153.5,o),
(177.5,165,o),
(177.5,188.5,cs),
(177.5,268,o),
(206.5,314.5,o),
(239,355.5,cs),
(283,411.5,o),
(336,455.5,o),
(336,553,cs),
(336,655,o),
(256.5,704,o),
(178,704,cs),
(100.5,704,o),
(24.5,657,o),
(24.5,567,cs),
(24.5,540,o),
(33,499.5,o),
(60.5,499.5,cs),
(73.5,499.5,o),
(85.5,509,o),
(85.5,527,cs),
(85.5,535.5,o),
(80.5,552.5,o),
(80.5,564.5,cs),
(80.5,620.5,o),
(130,651.5,o),
(180,651.5,cs),
(229,651.5,o),
(279,621,o),
(279,553,cs),
(279,483.5,o),
(240.5,443.5,o),
(201.5,396,cs),
(162.5,348,o),
(122,293,o),
(122,188.5,cs),
(122,165.5,o),
(136,153.5,o),
(150,153.5,cs)
);
},
{
closed = 1;
nodes = (
(175,-9.5,o),
(194,9.5,o),
(194,34,cs),
(194,57.5,o),
(175,76.5,o),
(151.5,76.5,cs),
(127.5,76.5,o),
(108.5,57.5,o),
(108.5,34,cs),
(108.5,9.5,o),
(127.5,-9.5,o),
(151.5,-9.5,cs)
);
}
);
width = 365;
}
);
unicode = 63;
},
{
glyphname = at;
layers = (
{
hints = (
{
horizontal = 1;
place = (-148,52);
type = Stem;
},
{
horizontal = 1;
place = (19,53);
type = Stem;
},
{
horizontal = 1;
place = (24,49);
type = Stem;
},
{
horizontal = 1;
place = (318,49);
type = Stem;
},
{
horizontal = 1;
place = (483,52);
type = Stem;
},
{
place = (30,56);
type = Stem;
},
{
place = (218,54);
type = Stem;
},
{
place = (453,46);
type = Stem;
},
{
place = (632,55);
type = Stem;
}
);
layerId = "5D537C8E-A691-4577-99BE-0854CC36C2B0";
shapes = (
{
closed = 1;
nodes = (
(416,535,l),
(189,535,o),
(30,375.5,o),
(30,154.5,cs),
(30,-33,o),
(142.5,-147.5,o),
(320,-147.5,cs),
(378.5,-147.5,o),
(432.5,-138,o),
(477,-119,cs),
(491.5,-113,o),
(497.5,-102.5,o),
(497.5,-93,cs),
(497.5,-81,o),
(488,-70.5,o),
(472.5,-70.5,cs),
(451.5,-70.5,o),
(409,-96,o),
(320,-96,cs),
(175,-96,o),
(85.5,-7.5,o),
(85.5,162,cs),
(85.5,345.5,o),
(222.5,482.5,o),
(416,482.5,cs),
(549.5,482.5,o),
(632,401,o),
(632,276,cs),
(632,124.5,o),
(579,72.5,o),
(539.5,72.5,cs),
(514,72.5,o),
(499,88,o),
(499,149,cs),
(499,203,o),
(509.5,326.5,o),
(509.5,338,cs),
(509.5,359,o),
(497,368.5,o),
(483.5,368.5,cs),
(472.58,368.5,o),
(461.28,361.25,o),
(457.6,346.07,c),
(435.12,359.73,o),
(409.57,367.,o),
(384.02,367.,cs),
(299.52,367.,o),
(217.52,285.,o),
(217.52,156.5,cs),
(217.52,68.,o),
(267.02,19.,o),
(328.02,19.,cs),
(380.02,19.,o),
(422.13,46.35,o),
(453.63,95.,c),
(465.83,47.22,o),
(494.18,23.51,o),
(535.51,23.51,cs),
(606.51,23.51,o),
(686.51,104.01,o),
(686.51,276.01,cs),
(686.51,429.01,o),
(580.01,535.01,o),
(416.01,535.01,c)
);
},
{
closed = 1;
nodes = (
(296.51,71.51,o),
(272.01,96.51,o),
(272.01,164.01,cs),
(272.01,255.01,o),
(334.01,317.51,o),
(387.51,317.51,cs),
(414.6,317.51,o),
(438.32,308.23,o),
(452.86,292.77,c),
(450.95,264.2,o),
(449.48,234.13,o),
(448.39,206.5,c),
(433.83,116.97,o),
(385.08,71.51,o),
(333.01,71.51,c)
);
}
);
width = 717;
}
);
unicode = 64;
},
{
glyphname = A;
layers = (
{
anchors = (
{
name = t.uni0302_2;
position = "{612, 700}";
}
);
hints = (
{
horizontal = 1;
place = (-3,53);
type = Stem;
},
{
horizontal = 1;
place = (-1,53);
type = Stem;
},
{
horizontal = 1;
place = (265,50);
type = Stem;
},
{
horizontal = 1;
place = (266,52);
type = Stem;
},
{
horizontal = 1;
place = (622,83);
type = Stem;
},
{
horizontal = 1;
place = (705,-20);
target = down;
type = TopGhost;
},
{
place = (536,59);
type = Stem;
}
);
layerId = "5D537C8E-A691-4577-99BE-0854CC36C2B0";
shapes = (
{
closed = 1;
nodes = (
(755,223,l),
(717.5,133.5,o),
(677.5,52,o),
(642.5,52,cs),
(611,52,o),
(595,103,o),
(595,227,cs),
(595,410,o),
(645,620,o),
(645,671.5,cs),
(645,691,o),
(631,704.5,o),
(609,704.5,cs),
(549,704.5,o),
(479,587.5,o),
(381,367,cs),
(373.15,349.43,o),
(365.47,332.32,o),
(357.92,315.75,c),
(343.65,315.45,o),
(329.54,315.29,o),
(315.72,315.29,cs),
(290.22,315.29,o),
(265.71,315.83,o),
(243.01,317.,cs),
(227.07,318.06,o),
(215.37,306.7,o),
(215.37,290.77,cs),
(215.37,277.52,o),
(225.59,266.93,o),
(241.51,265.99,cs),
(270.27,264.57,o),
(301.67,264.16,o),
(334.13,264.57,c),
(272.8,136.04,o),
(217.19,50.5,o),
(141.,50.5,cs),
(86.,50.5,o),
(72.5,93.5,o),
(48.,93.5,cs),
(36.5,93.5,o),
(26.5,83.,o),
(26.5,68.5,cs),
(26.5,36.,o),
(77.,-2.5,o),
(141.,-2.5,cs),
(263.3,-2.5,o),
(331.59,118.06,o),
(399.39,266.39,c),
(446.89,268.39,o),
(494.45,271.81,o),
(537.46,276.06,c),
(536.53,254.71,o),
(536.01,232.81,o),
(536.01,210.5,cs),
(536.01,44.,o),
(582.51,-1.,o),
(642.51,-1.,cs),
(709.01,-1.,o),
(756.51,99.5,o),
(797.01,204.,cs),
(799.15,209.53,o),
(800.09,214.67,o),
(800.09,219.29,cs),
(800.09,234.09,o),
(790.43,243.57,o),
(779.5,243.57,cs),
(770.71,243.57,o),
(761.09,237.43,o),
(755.01,222.99,c)
);
},
{
closed = 1;
nodes = (
(503.4,322.94,o),
(463.16,320.,o),
(422.64,318.03,c),
(428.38,330.92,o),
(434.16,343.92,o),
(440.01,356.99,cs),
(494.01,478.99,o),
(562.01,622.49,o),
(579.01,622.49,cs),
(588.47,622.49,o),
(553.24,497.55,o),
(540.47,326.53,c)
);
}
);
width = 731;
}
);
leftKerningGroup = A2;
rightKerningGroup = A;
unicode = 65;
},
{
glyphname = B;
layers = (
{
hints = (
{
horizontal = 1;
place = (-5,52);
type = Stem;
},
{
horizontal = 1;
place = (-4,53);
type = Stem;
},
{
horizontal = 1;
place = (106,51);
type = Stem;
},
{
horizontal = 1;
place = (653,53);
type = Stem;
},
{
place = (60,55);
type = Stem;
},
{
place = (102,59);
type = Stem;
},
{
place = (289,59);
type = Stem;
},
{
place = (526,59);
type = Stem;
},
{
place = (577,59);
type = Stem;
}
);
layerId = "5D537C8E-A691-4577-99BE-0854CC36C2B0";
shapes = (
{
closed = 1;
nodes = (
(484.46,374.97,l),
(543.41,396.19,o),
(584.51,451.76,o),
(584.51,517.,cs),
(584.51,631.,o),
(486.01,706.,o),
(360.01,706.,cs),
(221.51,706.,o),
(101.51,620.,o),
(101.51,478.,cs),
(101.51,425.5,o),
(132.51,355.,o),
(171.01,355.,cs),
(185.51,355.,o),
(196.01,365.5,o),
(196.01,380.,cs),
(196.01,401.,o),
(160.51,423.,o),
(160.51,482.5,cs),
(160.51,586.5,o),
(252.51,653.,o),
(359.01,653.,cs),
(454.01,653.,o),
(525.51,598.,o),
(525.51,515.,cs),
(525.51,455.,o),
(485.51,406.,o),
(415.01,393.,c),
(399.01,390.5,o),
(391.01,378.,o),
(391.01,366.,cs),
(391.01,353.,o),
(400.51,340.,o),
(419.01,340.,cs),
(528.01,340.,o),
(577.01,272.5,o),
(577.01,200.5,cs),
(577.01,116.5,o),
(523.01,49.,o),
(447.01,49.,cs),
(400.94,49.,o),
(352.33,73.88,o),
(304.62,99.75,c),
(333.07,163.37,o),
(348.01,256.57,o),
(348.01,381,cs),
(348.01,436,o),
(344.51,490,o),
(337.01,533,cs),
(334.01,551.5,o),
(322.51,563,o),
(309.01,563,cs),
(292.51,563,o),
(280.01,549,o),
(280.01,531,cs),
(280.01,517.5,o),
(289.01,441,o),
(289.01,383,cs),
(289.01,267.94,o),
(277.05,183.2,o),
(253.92,126.81,c),
(220.06,143.9,o),
(187.32,157.01,o),
(157.01,157.01,cs),
(93.01,157.01,o),
(59.51,116.51,o),
(59.51,75.51,c),
(60.01,35.01,o),
(93.01,-4.99,o),
(162.01,-4.99,cs),
(209.83,-4.99,o),
(249.16,14.79,o),
(279.14,55.34,c),
(331.11,26.52,o),
(388.44,-3.98,o),
(447.,-3.98,cs),
(559.,-3.98,o),
(636.,90.52,o),
(636.,196.02,cs),
(636.,281.86,o),
(586.54,359.,o),
(484.45,374.99,c)
);
},
{
closed = 1;
nodes = (
(128.99,46.52,o),
(114.99,61.02,o),
(114.99,76.02,cs),
(114.99,90.52,o),
(128.49,106.02,o),
(156.99,106.02,cs),
(177.94,106.02,o),
(202.18,96.51,o),
(228.78,82.81,c),
(209.38,58.61,o),
(185.26,46.51,o),
(156.99,46.52,c)
);
}
);
width = 656;
}
);
rightKerningGroup = B;
unicode = 66;
},
{
glyphname = C;
layers = (
{
anchors = (
{
name = t.uni0302_2;
position = "{415, 700}";
},
{
name = b.uni0326_1_2;
position = "{327, 0}";
}
);
hints = (
{
horizontal = 1;
place = (-7,53);
type = Stem;
},
{
horizontal = 1;
place = (655,53);
type = Stem;
},
{
place = (93,59);
type = Stem;
},
{
place = (468,56);
type = Stem;
}
);
layerId = "5D537C8E-A691-4577-99BE-0854CC36C2B0";
shapes = (
{
closed = 1;
nodes = (
(446,-7,o),
(535,55.5,o),
(595.5,204,cs),
(597.66,209.29,o),
(598.61,214.28,o),
(598.61,218.81,cs),
(598.61,233.4,o),
(588.76,243.28,o),
(577.65,243.28,cs),
(569.03,243.28,o),
(559.64,237.33,o),
(553.5,223.01,cs),
(499,96.01,o),
(429,46.01,o),
(343.5,46.01,cs),
(233.5,46.01,o),
(152,132.51,o),
(152,273.01,cs),
(152,484.51,o),
(275,654.51,o),
(388,654.51,cs),
(441,654.51,o),
(468,622.51,o),
(468,582.51,cs),
(468,543.51,o),
(447,520.51,o),
(447,496.01,cs),
(447,484.01,o),
(456.5,475.01,o),
(471,475.01,cs),
(481.5,475.01,o),
(491,482.01,o),
(498.5,493.51,cs),
(514.5,518.51,o),
(523.5,560.01,o),
(523.5,586.51,cs),
(523.5,657.51,o),
(470,707.51,o),
(389,707.51,cs),
(231,707.51,o),
(93,507.01,o),
(93,278.01,cs),
(93,97.51,o),
(195,-6.99,o),
(337.5,-7,c)
);
}
);
width = 530;
}
);
leftKerningGroup = C;
unicode = 67;
},
{
glyphname = D;
layers = (
{
anchors = (
{
name = t.uni0302_2;
position = "{398, 700}";
}
);
hints = (
{
horizontal = 1;
place = (-5,54);
type = Stem;
},
{
horizontal = 1;
place = (107,49);
type = Stem;
},
{
horizontal = 1;
place = (395,52);
type = Stem;
},
{
horizontal = 1;
place = (655,53);
type = Stem;
},
{
place = (49,55);
type = Stem;
},
{
place = (112,58);
type = Stem;
},
{
place = (300,59);
type = Stem;
},
{
place = (661,60);
type = Stem;
}
);
layerId = "5D537C8E-A691-4577-99BE-0854CC36C2B0";
shapes = (
{
closed = 1;
nodes = (
(224,707.5,o),
(112,631,o),
(112,524.5,cs),
(112,445.5,o),
(170.5,394.5,o),
(265,394.5,cs),
(276.49,394.5,o),
(288.13,395.16,o),
(299.76,396.42,c),
(298.01,313.91,o),
(286.14,202.58,o),
(250.04,128.26,c),
(214.86,144.12,o),
(179.57,156,o),
(145.,156,cs),
(82.,156,o),
(49.,116,o),
(49.,75,cs),
(49.,35,o),
(80.5,-4.5,o),
(146.,-4.5,cs),
(198.39,-4.5,o),
(239.92,18.34,o),
(271.87,58.08,c),
(329.38,28.33,o),
(392.61,-4.5,o),
(455,-4.5,cs),
(614.5,-4.5,o),
(720.5,133.5,o),
(720.5,362,cs),
(720.5,576.5,o),
(587.5,707.5,o),
(379,707.5,cs)
);
},
{
closed = 1;
nodes = (
(454,48.5,l),
(406.07,48.5,o),
(354.02,76.16,o),
(300.79,103.42,c),
(339.01,178.38,o),
(356.96,286.36,o),
(358.85,407.78,c),
(382.44,414.3,o),
(404.82,422.93,o),
(424.52,433.,cs),
(438.02,440.,o),
(445.02,450.,o),
(445.02,461.5,cs),
(445.02,474.5,o),
(434.52,484.5,o),
(420.02,484.5,cs),
(409.35,484.5,o),
(388.13,473.67,o),
(358.81,463.58,c),
(358.43,488.91,o),
(357.45,512.83,o),
(355.02,530.5,cs),
(353.02,548.5,o),
(339.52,558.5,o),
(326.02,558.5,cs),
(312.02,558.5,o),
(298.02,547.5,o),
(298.02,524.5,cs),
(298.02,512.76,o),
(299.33,488.56,o),
(299.83,448.98,c),
(288.77,447.43,o),
(277.15,446.51,o),
(265.02,446.51,cs),
(206.02,446.51,o),
(170.02,476.01,o),
(170.02,525.51,cs),
(170.02,606.51,o),
(251.52,654.51,o),
(379.02,654.51,cs),
(557.02,654.51,o),
(661.02,550.51,o),
(661.02,362.01,cs),
(661.02,165.01,o),
(579.02,48.51,o),
(454.02,48.51,c)
);
},
{
closed = 1;
nodes = (
(117.52,46.51,o),
(104.02,61.51,o),
(104.02,76.51,cs),
(104.02,92.01,o),
(117.02,106.51,o),
(145.02,106.51,cs),
(166.76,106.51,o),
(192.7,97.07,o),
(221.37,83.75,c),
(201.01,60.6,o),
(175.66,46.51,o),
(145.02,46.51,cs)
);
}
);
width = 747;
}
);
leftKerningGroup = D2;
rightKerningGroup = D;
unicode = 68;
},
{
glyphname = E;
layers = (
{
anchors = (
{
name = t.uni0302_2;
position = "{345, 700}";
}
);
hints = (
{
horizontal = 1;
place = (-7,54);
type = Stem;
},
{
horizontal = 1;
place = (357,54);
type = Stem;
},
{
horizontal = 1;
place = (389,-20);
target = down;
type = TopGhost;
},
{
horizontal = 1;
place = (654,53);
type = Stem;
},
{
place = (122,60);
type = Stem;
},
{
place = (174,59);
type = Stem;
},
{
place = (436,55);
type = Stem;
}
);
layerId = "5D537C8E-A691-4577-99BE-0854CC36C2B0";
shapes = (
{
closed = 1;
nodes = (
(546.5,223,l),
(496,101,o),
(419.5,46.5,o),
(337.5,46.5,cs),
(232,46.5,o),
(182,117,o),
(182,191.5,cs),
(182,273.5,o),
(244.5,357,o),
(371.5,357,cs),
(391.5,357,o),
(404,368,o),
(404,383.5,cs),
(404,399.5,o),
(391.5,411,o),
(371.5,411,cs),
(279,411,o),
(233,479,o),
(233,542,cs),
(233,602.5,o),
(270.5,653.5,o),
(340.5,653.5,cs),
(397.5,653.5,o),
(436,618,o),
(436,570.5,cs),
(436,554.5,o),
(433.5,544,o),
(433.5,533.5,cs),
(433.5,521,o),
(441.5,512,o),
(456.5,512,cs),
(477,512,o),
(490.5,536.5,o),
(490.5,576.5,cs),
(490.5,650,o),
(425.5,706.5,o),
(341.5,706.5,cs),
(236.5,706.5,o),
(174,628,o),
(174,544.5,cs),
(174,486.56,o),
(202.68,425.35,o),
(268.57,388.68,c),
(170.,348.91,o),
(122.5,268.06,o),
(122.5,188.5,cs),
(122.5,88.5,o),
(194.,-6.5,o),
(330.5,-6.5,cs),
(434.,-6.5,o),
(530.5,57.5,o),
(588.5,204.,cs),
(590.64,209.39,o),
(591.58,214.44,o),
(591.58,219.01,cs),
(591.58,233.77,o),
(581.75,243.53,o),
(570.7,243.53,cs),
(561.99,243.53,o),
(552.52,237.46,o),
(546.51,222.99,c)
);
}
);
width = 523;
}
);
leftKerningGroup = E;
rightKerningGroup = A;
unicode = 69;
},
{
glyphname = F;
layers = (
{
hints = (
{
horizontal = 1;
place = (-4,53);
type = Stem;
},
{
horizontal = 1;
place = (328,52);
type = Stem;
},
{
horizontal = 1;
place = (633,53);
type = Stem;
},
{
horizontal = 1;
place = (651,53);
type = Stem;
},
{
place = (84,58);
type = Stem;
},
{
place = (321,60);
type = Stem;
},
{
place = (326,59);
type = Stem;
},
{
place = (347,59);
type = Stem;
}
);
layerId = "5D537C8E-A691-4577-99BE-0854CC36C2B0";
shapes = (
{
closed = 1;
nodes = (
(513,632.5,l),
(573.5,632.5,o),
(640,651,o),
(640,682.5,cs),
(640,695.5,o),
(630.5,704.5,o),
(618,704.5,cs),
(598.5,704.5,o),
(576.5,685.5,o),
(514,685.5,cs),
(473.5,685.5,o),
(346.5,703.5,o),
(275,703.5,cs),
(151.5,703.5,o),
(83.5,639.5,o),
(83.5,565.5,cs),
(83.5,498.5,o),
(144,443,o),
(188,443,cs),
(205.5,443,o),
(216,453.5,o),
(216,466,cs),
(216,476,o),
(210,484.5,o),
(195,492.5,cs),
(159,511.5,o),
(142,536,o),
(142,566.5,cs),
(142,612.5,o),
(190.5,650.5,o),
(275,650.5,cs),
(293.09,650.5,o),
(319.02,648.78,o),
(347.36,646.4,c),
(341.84,571.14,o),
(333.5,464.94,o),
(325.91,372.07,c),
(297.91,366.39,o),
(269.88,357.6,o),
(240.52,345.49,cs),
(227.52,339.99,o),
(222.02,329.49,o),
(222.02,318.99,cs),
(222.02,306.49,o),
(231.52,296.49,o),
(247.02,296.49,cs),
(259.81,296.49,o),
(285.4,308.36,o),
(321.42,317.64,c),
(316.9,263.41,o),
(312.96,218.11,o),
(310.51,192.99,cs),
(301.51,97.49,o),
(270.51,49.49,o),
(219.01,49.49,cs),
(183.51,49.49,o),
(155.01,71.49,o),
(138.51,109.99,cs),
(132.01,124.99,o),
(124.01,131.99,o),
(110.51,131.99,cs),
(97.51,131.99,o),
(85.51,121.49,o),
(85.51,103.49,cs),
(85.51,51.49,o),
(142.51,-3.51,o),
(217.01,-3.51,cs),
(306.51,-3.51,o),
(359.01,58.49,o),
(369.51,188.99,cs),
(372.3,223.4,o),
(376.21,272.58,o),
(380.6,327.64,c),
(387.84,328.18,o),
(395.31,328.48,o),
(403.01,328.48,cs),
(448.51,328.48,o),
(487.01,318.48,o),
(501.01,318.48,cs),
(517.51,318.48,o),
(527.01,329.48,o),
(527.01,341.98,cs),
(527.01,353.48,o),
(519.51,364.98,o),
(499.51,369.48,cs),
(470.01,375.98,o),
(435.51,379.98,o),
(406.01,379.98,cs),
(398.85,379.98,o),
(391.76,379.8,o),
(384.73,379.44,c),
(391.99,470.31,o),
(399.94,569.,o),
(406.05,641.02,c),
(451.6,636.67,o),
(494.16,632.47,o),
(513.01,632.47,c)
);
}
);
width = 616;
}
);
unicode = 70;
},
{
glyphname = G;
layers = (
{
anchors = (
{
name = t.uni0302_2;
position = "{394, 700}";
},
{
name = b.uni0326_1_2;
position = "{320, 0}";
}
);
hints = (
{
horizontal = 1;
place = (-6,53);
type = Stem;
},
{
horizontal = 1;
place = (260,53);
type = Stem;
},
{
horizontal = 1;
place = (655,53);
type = Stem;
},
{
place = (81,60);
type = Stem;
},
{
place = (464,55);
type = Stem;
}
);
layerId = "5D537C8E-A691-4577-99BE-0854CC36C2B0";
shapes = (
{
closed = 1;
nodes = (
(561,384.5,l),
(551.5,384.5,o),
(543.5,380,o),
(534.5,369,cs),
(494,320,o),
(457.5,312.5,o),
(387.5,312.5,cs),
(367.5,312.5,o),
(356.5,301,o),
(356.5,286.5,cs),
(356.5,267,o),
(371.5,259.5,o),
(398.5,259.5,cs),
(420.08,259.5,o),
(440.49,261.4,o),
(459.49,265.22,c),
(461.97,252.05,o),
(463.5,236.87,o),
(463.5,223.,cs),
(463.5,113.5,o),
(401.5,46.5,o),
(314,46.5,cs),
(209,46.5,o),
(140.5,143.,o),
(140.5,288.,cs),
(140.5,490.51,o),
(257.23,655.03,o),
(388.29,655.03,cs),
(437.99,655.03,o),
(464.5,628.66,o),
(464.5,583.01,cs),
(464.5,561.51,o),
(457.5,538.01,o),
(444.5,512.01,cs),
(441.,505.01,o),
(439.5,499.01,o),
(439.5,493.01,cs),
(439.5,480.51,o),
(450.5,470.01,o),
(464.5,470.01,cs),
(474.5,470.01,o),
(484.,475.51,o),
(491.,488.51,cs),
(509.,522.51,o),
(519.5,557.01,o),
(519.5,588.01,cs),
(519.5,659.51,o),
(470.5,708.01,o),
(386.5,708.01,cs),
(220.,708.01,o),
(81.,518.51,o),
(81.,290.51,cs),
(81.,112.51,o),
(167.,-6.49,o),
(312.5,-6.49,cs),
(436.,-6.49,o),
(522.,83.51,o),
(522.,222.51,cs),
(522.,241.93,o),
(519.21,264.7,o),
(514.88,283.94,c),
(537.89,295.56,o),
(557.35,311.38,o),
(572.5,331.51,cs),
(582.,344.01,o),
(585.5,353.01,o),
(585.5,360.51,cs),
(585.5,373.01,o),
(575.,384.51,o),
(561.,384.51,c)
);
}
);
width = 598;
}
);
leftKerningGroup = C;
rightKerningGroup = G;
unicode = 71;
},
{
glyphname = H;
layers = (
{
anchors = (
{
name = t.uni0302_2;
position = "{454, 700}";
},
{
name = b.uni0326_1_2;
position = "{374, 0}";
}
);
hints = (
{
horizontal = 1;
place = (-5,53);
type = Stem;
},
{
horizontal = 1;
place = (-4,53);
type = Stem;
},
{
horizontal = 1;
place = (350,55);
type = Stem;
},
{
horizontal = 1;
place = (358,50);
type = Stem;
},
{
horizontal = 1;
place = (646,53);
type = Stem;
},
{
horizontal = 1;
place = (707,-20);
target = down;
type = TopGhost;
},
{
place = (94,57);
type = Stem;
},
{
place = (323,59);
type = Stem;
},
{
place = (546,59);
type = Stem;
}
);
layerId = "5D537C8E-A691-4577-99BE-0854CC36C2B0";
shapes = (
{
closed = 1;
nodes = (
(771,223,l),
(730.5,123,o),
(687,49,o),
(650,49,cs),
(625.5,49,o),
(605,70.5,o),
(605,149,cs),
(605,194.87,o),
(610.1,272.61,o),
(616.66,354.61,c),
(640.34,352.62,o),
(659.42,350.49,o),
(669.01,350.49,cs),
(686.01,350.49,o),
(697.01,363.49,o),
(697.01,375.99,cs),
(697.01,386.49,o),
(689.51,397.49,o),
(671.51,399.99,cs),
(655.32,402.24,o),
(638.46,404.07,o),
(620.86,405.45,c),
(632.03,537.24,o),
(645.01,665.45,o),
(645.01,677.98,cs),
(645.01,695.98,o),
(632.01,707.48,o),
(616.51,707.48,cs),
(600.51,707.48,o),
(588.01,695.98,o),
(586.01,673.48,cs),
(579.58,603.21,o),
(570.2,504.68,o),
(562.14,408.27,c),
(554.88,408.41,o),
(547.51,408.48,o),
(540.02,408.48,cs),
(479.6,408.48,o),
(425.39,402.42,o),
(377.34,391.49,c),
(380.65,438.91,o),
(382.01,485.91,o),
(382.01,529.48,cs),
(382.01,653.48,o),
(341.51,698.98,o),
(269.01,698.98,cs),
(197.51,698.98,o),
(144.01,634.48,o),
(144.01,597.48,cs),
(144.01,583.48,o),
(154.01,573.98,o),
(166.51,573.98,cs),
(196.51,573.98,o),
(208.51,645.98,o),
(266.01,645.98,cs),
(302.17,645.98,o),
(323.05,618.29,o),
(323.05,537.71,cs),
(323.05,482.94,o),
(320.04,427.04,o),
(315.52,373.63,c),
(167.26,320.82,o),
(94.01,215.27,o),
(94.01,107.97,cs),
(94.01,39.97,o),
(135.51,-5.03,o),
(197.01,-5.03,cs),
(306.05,-5.03,o),
(354.44,160.94,o),
(372.65,337.11,c),
(422.88,350.51,o),
(481.16,357.97,o),
(547.01,357.97,cs),
(550.69,357.97,o),
(554.37,357.93,o),
(558.03,357.86,c),
(551.14,270.39,o),
(546.01,189.28,o),
(546.01,138.46,cs),
(546.01,39.46,o),
(588.01,-4.04,o),
(645.01,-4.04,cs),
(719.51,-4.04,o),
(761.51,77.46,o),
(813.01,203.96,cs),
(815.26,209.44,o),
(816.25,214.6,o),
(816.25,219.27,cs),
(816.25,234.03,o),
(806.36,243.93,o),
(795.27,243.93,cs),
(786.51,243.93,o),
(777,237.76,o),
(771,222.95,c)
);
},
{
closed = 1;
nodes = (
(200,47.95,l),
(171,47.95,o),
(151,70.45,o),
(151,111.95,cs),
(151,195.95,o),
(206.2,270.98,o),
(309.65,315.48,c),
(291.94,165.6,o),
(256.36,47.95,o),
(199.99,47.95,c)
);
}
);
width = 747;
}
);
leftKerningGroup = H;
rightKerningGroup = A;
unicode = 72;
},
{
glyphname = I;
layers = (
{
anchors = (
{
name = t.uni0302_2;
position = "{304, 700}";
},
{
name = b.uni0326_1_2;
position = "{233, 0}";
}
);
hints = (
{
horizontal = 1;
place = (-5,53);
type = Stem;
},
{
horizontal = 1;
place = (652,53);
type = Stem;
},
{
place = (113,59);
type = Stem;
},
{
place = (368,59);
type = Stem;
}
);
layerId = "5D537C8E-A691-4577-99BE-0854CC36C2B0";
shapes = (
{
closed = 1;
nodes = (
(367.95,620.62,o),
(368.17,594.59,o),
(368.17,569.43,cs),
(368.17,230.02,o),
(327.28,48.01,o),
(243.49,48.01,cs),
(201.99,48.01,o),
(190.49,77.01,o),
(167.49,77.01,cs),
(155.99,77.01,o),
(145.49,66.51,o),
(145.49,52.01,cs),
(145.49,24.01,o),
(188.99,-4.99,o),
(243.49,-4.99,cs),
(373.49,-4.99,o),
(426.99,169.51,o),
(426.99,564.01,cs),
(426.99,599.01,o),
(426.99,634.01,o),
(424.99,674.01,cs),
(423.99,688.01,o),
(417.99,694.51,o),
(400.49,697.01,cs),
(363.99,702.01,o),
(323.49,705.01,o),
(281.49,705.01,cs),
(175.49,705.01,o),
(113.49,649.51,o),
(113.49,574.01,cs),
(113.49,511.51,o),
(175.99,445.01,o),
(216.49,445.01,cs),
(232.99,445.01,o),
(243.49,455.51,o),
(243.49,470.51,cs),
(243.49,479.51,o),
(237.99,487.01,o),
(222.49,498.01,cs),
(189.99,521.01,o),
(172.49,547.51,o),
(172.49,575.01,cs),
(172.49,622.51,o),
(207.49,652.01,o),
(283.49,652.01,cs),
(308.99,652.01,o),
(334.99,651.01,o),
(367.5,647.5,c)
);
}
);
width = 466;
}
);
leftKerningGroup = I2;
rightKerningGroup = I;
unicode = 73;
},
{
glyphname = J;
layers = (
{
anchors = (
{
name = t.uni0302_2;
position = "{333, 700}";
},
{
name = b.uni0326_1_2;
position = "{243, 0}";
}
);
hints = (
{
horizontal = 1;
place = (-5,53);
type = Stem;
},
{
horizontal = 1;
place = (613,53);
type = Stem;
},
{
horizontal = 1;
place = (655,53);
type = Stem;
},
{
place = (73,59);
type = Stem;
},
{
place = (122,57);
type = Stem;
},
{
place = (376,59);
type = Stem;
}
);
layerId = "5D537C8E-A691-4577-99BE-0854CC36C2B0";
shapes = (
{
closed = 1;
nodes = (
(492,672,o),
(484,666,o),
(463.5,666,cs),
(416.5,666,o),
(344,708,o),
(271.5,708,cs),
(178,708,o),
(121.5,655,o),
(121.5,571,cs),
(121.5,547,o),
(135.5,534,o),
(151.5,534,cs),
(166,534,o),
(178.5,545,o),
(178.5,571,cs),
(178.5,627,o),
(208,655,o),
(275.5,655,cs),
(310.82,655,o),
(341.45,645.17,o),
(370.46,635.02,c),
(373.9,600.68,o),
(376.,554.2,o),
(376.,500.99,cs),
(376.,195.99,o),
(333.,47.99,o),
(237.5,47.99,cs),
(179.,47.99,o),
(132.,94.99,o),
(132.,186.99,cs),
(132.,235.49,o),
(139.,271.49,o),
(139.,289.99,cs),
(139.,310.49,o),
(127.,321.99,o),
(111.5,321.99,cs),
(96.,321.99,o),
(82.5,310.49,o),
(80.,290.49,cs),
(75.5,253.49,o),
(73.,218.99,o),
(73.,186.99,cs),
(73.,65.35,o),
(141.53,-5.02,o),
(235.51,-5.02,cs),
(377.65,-5.02,o),
(435.,146.85,o),
(435.,500.99,cs),
(435.,529.58,o),
(434.42,574.43,o),
(431.04,616.29,c),
(441.08,614.23,o),
(451.19,612.99,o),
(461.5,612.99,cs),
(499,612.99,o),
(523.5,627.49,o),
(523.5,649.99,cs),
(523.5,662.99,o),
(515,671.99,o),
(503.5,672,c)
);
}
);
width = 486;
}
);
leftKerningGroup = J2;
rightKerningGroup = J;
unicode = 74;
},
{
glyphname = K;
layers = (
{
anchors = (
{
name = t.uni0302_2;
position = "{448, 700}";
},
{
name = b.uni0326_1_2;
position = "{419, 0}";
}
);
hints = (
{
horizontal = 1;
place = (-6,53);
type = Stem;
},
{
horizontal = 1;
place = (328,54);
type = Stem;
},
{
horizontal = 1;
place = (653,53);
type = Stem;
},
{
place = (293,59);
type = Stem;
}
);
layerId = "5D537C8E-A691-4577-99BE-0854CC36C2B0";
shapes = (
{
closed = 1;
nodes = (
(717.5,223,l),
(680,135.5,o),
(638,47,o),
(603,47,cs),
(573.5,47,o),
(550.5,98.5,o),
(530.5,184,cs),
(515.34,248.78,o),
(494.27,325.38,o),
(463.02,364.92,c),
(565.46,419.23,o),
(620.27,527.01,o),
(651.,656.49,cs),
(653.5,666.99,o),
(654.5,672.49,o),
(654.5,676.99,cs),
(654.5,697.49,o),
(640.5,707.99,o),
(626.5,707.99,cs),
(613.,707.99,o),
(599.,698.49,o),
(595.5,679.99,cs),
(560.56,495.07,o),
(462.96,388.36,o),
(336.08,382.26,c),
(345.55,451.88,o),
(351.51,520.43,o),
(351.51,583.98,cs),
(351.51,658.98,o),
(305.01,706.48,o),
(232.51,706.48,cs),
(175.51,706.48,o),
(95.51,647.48,o),
(95.51,607.98,cs),
(95.51,594.98,o),
(103.51,586.98,o),
(117.51,586.98,cs),
(144.01,586.98,o),
(176.01,652.98,o),
(231.51,652.98,cs),
(268.51,652.98,o),
(292.51,628.48,o),
(292.51,588.98,cs),
(292.51,520.13,o),
(286.23,449.7,o),
(277.07,382.83,c),
(271.85,382.93,o),
(267.41,382.99,o),
(264.51,382.99,cs),
(245.51,382.99,o),
(234.51,371.99,o),
(234.51,358.99,cs),
(234.51,343.87,o),
(246.23,333.32,o),
(269.01,329.07,c),
(243.7,173.07,o),
(207.01,46.03,o),
(207.01,20.48,cs),
(207.01,4.48,o),
(221.01,-6.02,o),
(236.01,-6.02,cs),
(248.51,-6.02,o),
(261.01,1.48,o),
(265.51,19.98,cs),
(287.22,113.4,o),
(311.04,220.86,o),
(328.1,328.17,c),
(356.75,330.25,o),
(383.08,335.02,o),
(407.28,342.22,c),
(437.36,311.47,o),
(456.02,239.51,o),
(472.02,175.97,cs),
(495.02,85.97,o),
(520.02,-6.03,o),
(599.52,-6.03,cs),
(666.02,-6.03,o),
(709.02,79.47,o),
(759.52,203.97,cs),
(761.68,209.26,o),
(762.63,214.25,o),
(762.63,218.78,cs),
(762.63,233.37,o),
(752.78,243.25,o),
(741.67,243.25,cs),
(733.05,243.25,o),
(723.66,237.3,o),
(717.52,222.98,c)
);
}
);
width = 694;
}
);
leftKerningGroup = K;
rightKerningGroup = A;
unicode = 75;
},
{
glyphname = L;
layers = (
{
anchors = (
{
name = t.uni0302_2;
position = "{402, 700}";
},
{
name = b.uni0326_1_2;
position = "{329, 0}";
}
);
hints = (
{
horizontal = 1;
place = (-4,53);
type = Stem;
},
{
horizontal = 1;
place = (34,54);
type = Stem;
},
{
horizontal = 1;
place = (470,53);
type = Stem;
},
{
horizontal = 1;
place = (650,53);
type = Stem;
},
{
place = (232,58);
type = Stem;
},
{
place = (426,58);
type = Stem;
}
);
layerId = "5D537C8E-A691-4577-99BE-0854CC36C2B0";
shapes = (
{
closed = 1;
nodes = (
(578.5,223,l),
(530,105.5,o),
(495,49,o),
(455.5,49,cs),
(406,49,o),
(323,88,o),
(257,88,cs),
(233,88,o),
(201.5,84.5,o),
(179,78,c),
(247.5,161.5,o),
(266.5,241.5,o),
(289,459.5,cs),
(289.4,463.45,o),
(289.82,467.34,o),
(290.26,471.17,c),
(296.1,470.72,o),
(302.01,470.49,o),
(307.99,470.49,cs),
(412.49,470.49,o),
(483.99,535.49,o),
(483.99,614.49,cs),
(483.99,666.49,o),
(445.99,703.49,o),
(391.49,703.49,cs),
(315.35,703.49,o),
(264.06,646.09,o),
(240.55,535.38,c),
(196.14,553.41,o),
(163.31,590.65,o),
(152.98,644.,cs),
(149.48,662.5,o),
(138.48,669.5,o),
(126.98,669.5,cs),
(112.98,669.5,o),
(100.98,658.5,o),
(100.98,641.,cs),
(100.98,576.51,o),
(154.62,510.55,o),
(232.03,483.39,c),
(231.28,477.22,o),
(230.6,470.93,o),
(229.99,464.51,cs),
(207.99,235.01,o),
(179.49,142.01,o),
(84.49,59.01,cs),
(74.49,50.51,o),
(69.99,39.51,o),
(69.99,29.51,cs),
(69.99,14.01,o),
(82.49,1.51,o),
(100.49,1.51,cs),
(105.99,1.51,o),
(113.49,3.01,o),
(121.99,6.51,cs),
(169.49,25.51,o),
(203.49,34.01,o),
(246.99,34.01,cs),
(312.49,34.01,o),
(403.49,-3.99,o),
(451.99,-3.99,cs),
(519.49,-3.99,o),
(563.49,57.01,o),
(620.49,204.01,cs),
(622.72,209.74,o),
(623.7,215,o),
(623.7,219.67,cs),
(623.7,234.28,o),
(614.12,243.2,o),
(603.28,243.2,cs),
(594.3,243.2,o),
(584.46,237.08,o),
(578.48,223.01,c)
);
},
{
closed = 1;
nodes = (
(385.98,650.01,l),
(409.98,650.01,o),
(425.98,634.01,o),
(425.98,610.01,cs),
(425.98,563.01,o),
(378.98,523.01,o),
(306.98,523.01,cs),
(304.03,523.01,o),
(301.1,523.08,o),
(298.19,523.21,c),
(314.75,607.75,o),
(344.38,650.02,o),
(385.99,650.02,c)
);
}
);
width = 555;
}
);
leftKerningGroup = L;
rightKerningGroup = A;
unicode = 76;
},
{
glyphname = M;
layers = (
{
hints = (
{
horizontal = 1;
place = (-4,54);
type = Stem;
},
{
horizontal = 1;
place = (0,21);
target = up;
type = BottomGhost;
},
{
horizontal = 1;
place = (563,53);
type = Stem;
},
{
horizontal = 1;
place = (660,53);
type = Stem;
},
{
horizontal = 1;
place = (666,53);
type = Stem;
},
{
place = (246,56);
type = Stem;
},
{
place = (634,59);
type = Stem;
},
{
place = (955,60);
type = Stem;
},
{
place = (971,60);
type = Stem;
}
);
layerId = "5D537C8E-A691-4577-99BE-0854CC36C2B0";
shapes = (
{
closed = 1;
nodes = (
(1168.5,223,l),
(1129,122,o),
(1089.5,49.5,o),
(1051,49.5,cs),
(1029.5,49.5,o),
(1014.5,66.5,o),
(1014.5,116.5,cs),
(1014.5,156,o),
(1030.5,417,o),
(1030.5,472,cs),
(1030.5,567.5,o),
(984,616,o),
(906,616,cs),
(823.08,616,o),
(748.92,551.61,o),
(692.16,430.15,c),
(693.02,455.13,o),
(693.33,480.29,o),
(692.99,505.5,cs),
(690.99,657.5,o),
(635.49,712.5,o),
(552.49,712.5,cs),
(446.68,712.5,o),
(361.27,613.26,o),
(301.58,420.93,c),
(293.47,641.27,o),
(237.12,719.5,o),
(143.48,719.5,cs),
(90.98,719.5,o),
(54.48,689.,o),
(31.98,652.5,cs),
(25.98,643.,o),
(22.98,633.5,o),
(22.98,624.5,cs),
(22.98,610.5,o),
(32.48,600.,o),
(45.48,600.,cs),
(54.48,600.,o),
(63.98,606.,o),
(70.98,617.,cs),
(93.48,651.5,o),
(115.48,666.5,o),
(143.48,666.5,cs),
(216.98,666.5,o),
(246.48,555.,o),
(246.48,299.,cs),
(246.48,206.31,o),
(224.97,83.68,o),
(224.97,32.74,cs),
(224.97,11.53,o),
(237.29,-0.49,o),
(252.98,-0.49,cs),
(268.98,-0.49,o),
(281.48,11.01,o),
(283.48,31.51,cs),
(285.93,60.,o),
(293.26,126.77,o),
(300.18,192.85,c),
(335.76,463.05,o),
(435.26,659.51,o),
(547.47,659.51,cs),
(599.97,659.51,o),
(634.47,625.01,o),
(634.47,509.51,cs),
(634.47,314.51,o),
(609.97,199.01,o),
(596.97,120.01,cs),
(595.47,111.51,o),
(592.47,96.01,o),
(592.47,89.51,cs),
(592.47,70.51,o),
(603.97,59.01,o),
(620.97,59.01,cs),
(634.97,59.01,o),
(646.97,68.51,o),
(650.47,86.51,cs),
(659.04,130.27,o),
(667.28,177.82,o),
(674.19,227.88,c),
(712.4,419.93,o),
(807.95,563.,o),
(904.47,563.,cs),
(945.47,563.,o),
(971.47,536.5,o),
(971.47,472.,cs),
(971.47,393.,o),
(955.47,172.5,o),
(955.47,120.5,cs),
(955.47,34.5,o),
(992.47,-3.5,o),
(1047.47,-3.5,cs),
(1116.97,-3.5,o),
(1162.47,78.,o),
(1210.47,204.,cs),
(1212.7,209.81,o),
(1213.68,215.17,o),
(1213.68,219.97,cs),
(1213.68,234.99,o),
(1204.06,244.43,o),
(1193.2,244.43,cs),
(1184.24,244.43,o),
(1174.43,238.01,o),
(1168.47,223.01,c)
);
}
);
width = 1145;
}
);
leftKerningGroup = M;
rightKerningGroup = A;
unicode = 77;
},
{
glyphname = N;
layers = (
{
anchors = (
{
name = t.uni0302_2;
position = "{539, 700}";
},
{
name = b.uni0326_1_2;
position = "{478, 0}";
}
);
hints = (
{
horizontal = 1;
place = (-3,52);
type = Stem;
},
{
horizontal = 1;
place = (651,53);
type = Stem;
},
{
horizontal = 1;
place = (663,53);
type = Stem;
},
{
place = (253,56);
type = Stem;
},
{
place = (626,59);
type = Stem;
},
{
place = (641,59);
type = Stem;
}
);
layerId = "5D537C8E-A691-4577-99BE-0854CC36C2B0";
shapes = (
{
closed = 1;
nodes = (
(838.5,223,l),
(800,126.5,o),
(762,49,o),
(724,49,cs),
(702,49,o),
(684.5,71,o),
(684.5,124,cs),
(684.5,178.5,o),
(699.5,424,o),
(699.5,500,cs),
(699.5,641,o),
(639.5,704,o),
(551.5,704,cs),
(447.5,704,o),
(363.94,597.42,o),
(308.94,419.97,c),
(302.4,635.42,o),
(240.73,716.49,o),
(145.5,716.49,cs),
(95.5,716.49,o),
(55.,687.99,o),
(32.5,650.49,cs),
(27.,641.49,o),
(23.,630.49,o),
(23.,622.49,cs),
(23.,607.99,o),
(34.5,598.99,o),
(47.,598.99,cs),
(56.,598.99,o),
(65.5,603.49,o),
(72.5,614.49,cs),
(96.5,651.99,o),
(118.5,663.49,o),
(146.,663.49,cs),
(221.,663.49,o),
(253.,558.99,o),
(253.,330.99,cs),
(253.,209.49,o),
(231.,56.99,o),
(231.,29.49,cs),
(231.,7.49,o),
(245.,-3.51,o),
(259.5,-3.51,cs),
(273.5,-3.51,o),
(287.5,7.49,o),
(290.,29.99,cs),
(293.,57.49,o),
(301.5,130.49,o),
(307.5,190.49,cs),
(332.,436.99,o),
(438.,650.99,o),
(549.,650.99,cs),
(601.5,650.99,o),
(640.5,611.99,o),
(640.5,494.99,cs),
(640.5,410.49,o),
(625.5,186.99,o),
(625.5,125.49,cs),
(625.5,38.99,o),
(665.5,-3.01,o),
(719.,-3.01,cs),
(793.5,-3.01,o),
(831.,78.49,o),
(880.5,203.99,cs),
(882.73,209.58,o),
(883.71,214.79,o),
(883.71,219.48,cs),
(883.71,234.35,o),
(873.86,244.02,o),
(862.83,244.02,cs),
(853.98,244.02,o),
(844.37,237.79,o),
(838.49,223.01,c)
);
}
);
width = 815;
}
);
leftKerningGroup = M;
rightKerningGroup = A;
unicode = 78;
},
{
glyphname = O;
layers = (
{
anchors = (
{
name = t.uni0302_2;
position = "{455, 700}";
}
);
hints = (
{
horizontal = 1;
place = (-6,54);
type = Stem;
},
{
horizontal = 1;
place = (65,52);
type = Stem;
},
{
horizontal = 1;
place = (656,53);
type = Stem;
},
{
place = (109,59);
type = Stem;
},
{
place = (258,58);
type = Stem;
},
{
place = (588,59);
type = Stem;
}
);
layerId = "5D537C8E-A691-4577-99BE-0854CC36C2B0";
shapes = (
{
closed = 1;
nodes = (
(714.5,223,l),
(686.37,153.61,o),
(629.66,120.71,o),
(568.29,116.88,c),
(617.71,192.13,o),
(646.51,296.93,o),
(646.51,416.5,cs),
(646.51,585.,o),
(577.01,709.,o),
(452.01,709.,cs),
(414.06,709.,o),
(378.73,694.35,o),
(348.89,667.59,c),
(345.94,676.92,o),
(337.3,682.99,o),
(324.51,682.99,cs),
(316.51,682.99,o),
(308.01,681.49,o),
(298.51,676.99,cs),
(186.51,623.49,o),
(108.51,470.49,o),
(108.51,311.99,cs),
(108.51,127.49,o),
(204.51,-5.51,o),
(362.51,-5.51,cs),
(426.02,-5.51,o),
(482.3,20.67,o),
(527.66,66.37,c),
(536.68,65.46,o),
(545.8,65.,o),
(555.01,65.,cs),
(642.51,65.,o),
(721.01,112.,o),
(756.51,204.,cs),
(758.67,209.58,o),
(759.62,214.82,o),
(759.62,219.56,cs),
(759.62,234.64,o),
(750.01,244.67,o),
(739.06,244.67,cs),
(730.33,244.67,o),
(720.75,238.29,o),
(714.52,223.,c)
);
},
{
closed = 1;
nodes = (
(540.02,656.,o),
(587.52,556.5,o),
(587.52,418.,cs),
(587.52,294.85,o),
(555.63,189.75,o),
(504.01,123.29,c),
(396.79,151.84,o),
(316.02,267.66,o),
(316.02,419.,cs),
(316.02,555.5,o),
(369.52,656.,o),
(453.02,656.,cs)
);
},
{
closed = 1;
nodes = (
(366.02,47.5,l),
(239.02,47.5,o),
(167.52,160.5,o),
(167.52,311.,cs),
(167.52,440.78,o),
(219.64,562.1,o),
(307.05,616.1,c),
(276.52,565.36,o),
(258.02,496.1,o),
(258.02,414.01,cs),
(258.02,249.42,o),
(344.62,124.6,o),
(462.33,81.42,c),
(433.56,59.54,o),
(401.03,47.5,o),
(366.03,47.5,c)
);
}
);
width = 691;
}
);
leftKerningGroup = O;
rightKerningGroup = A;
unicode = 79;
},
{
glyphname = P;
layers = (
{
hints = (
{
horizontal = 1;
place = (-4,21);
target = up;
type = BottomGhost;
},
{
horizontal = 1;
place = (206,53);
type = Stem;
},
{
horizontal = 1;
place = (656,53);
type = Stem;
},
{
place = (30,57);
type = Stem;
},
{
place = (151,59);
type = Stem;
},
{
place = (196,58);
type = Stem;
},
{
place = (519,59);
type = Stem;
}
);
layerId = "5D537C8E-A691-4577-99BE-0854CC36C2B0";
shapes = (
{
closed = 1;
nodes = (
(315.5,708.5,l),
(136,708.5,o),
(29.5,601.5,o),
(29.5,464,cs),
(29.5,440,o),
(42.5,426,o),
(58,426,cs),
(74,426,o),
(87,440.5,o),
(87,464,cs),
(87,575,o),
(169.5,655.5,o),
(315.5,655.5,cs),
(447.5,655.5,o),
(519,570,o),
(519,462.5,cs),
(519,351,o),
(447,259,o),
(330.5,259,cs),
(300.6,259,o),
(269.46,263.64,o),
(241.46,272.93,c),
(248.79,328.61,o),
(254.49,385.42,o),
(254.49,437.,cs),
(254.49,486.5,o),
(247.99,577.,o),
(207.99,577.,cs),
(192.49,577.,o),
(180.99,565.5,o),
(180.99,547.,cs),
(180.99,529.,o),
(195.99,507.,o),
(195.99,437.,cs),
(195.99,303.5,o),
(151.49,98.5,o),
(151.49,29.,cs),
(151.49,8.,o),
(164.49,-4.,o),
(180.49,-4.,cs),
(196.49,-4.,o),
(209.49,8.5,o),
(209.99,28.5,cs),
(211.28,75.02,o),
(223.13,145.19,o),
(234.27,221.46,c),
(262.04,212.62,o),
(295.37,206.01,o),
(332.48,206.01,cs),
(479.48,206.01,o),
(577.98,325.01,o),
(577.98,462.01,cs),
(577.98,598.01,o),
(483.48,708.51,o),
(315.48,708.51,c)
);
}
);
width = 591;
}
);
leftKerningGroup = P2;
rightKerningGroup = P;
unicode = 80;
},
{
glyphname = Q;
layers = (
{
hints = (
{
horizontal = 1;
place = (-6,53);
type = Stem;
},
{
horizontal = 1;
place = (-5,53);
type = Stem;
},
{
horizontal = 1;
place = (140,51);
type = Stem;
},
{
horizontal = 1;
place = (653,53);
type = Stem;
},
{
place = (137,59);
type = Stem;
},
{
place = (191,57);
type = Stem;
},
{
place = (576,59);
type = Stem;
}
);
layerId = "5D537C8E-A691-4577-99BE-0854CC36C2B0";
shapes = (
{
closed = 1;
nodes = (
(704.5,223,l),
(675.5,151,o),
(622.5,47,o),
(580,47,cs),
(558.82,47,o),
(533.65,65.24,o),
(504.49,88.74,c),
(579.67,166,o),
(635,285.49,o),
(635,424.41,cs),
(635,602.04,o),
(541.63,705.98,o),
(404.99,705.98,cs),
(249.99,705.98,o),
(136.99,576.98,o),
(136.99,383.98,cs),
(136.99,336.48,o),
(143.99,290.98,o),
(156.99,253.98,cs),
(161.99,239.98,o),
(172.49,232.48,o),
(184.49,232.48,cs),
(199.99,232.48,o),
(211.99,244.98,o),
(211.99,262.48,cs),
(211.99,278.98,o),
(195.99,328.48,o),
(195.99,384.98,cs),
(195.99,547.48,o),
(282.99,652.98,o),
(402.99,652.98,cs),
(506.49,652.98,o),
(575.99,567.98,o),
(575.99,430.98,cs),
(575.99,298.49,o),
(525.22,190.28,o),
(461.01,123.77,c),
(416.86,158.1,o),
(365.52,190.98,o),
(306.99,190.98,cs),
(231.49,190.98,o),
(190.99,143.48,o),
(190.99,94.48,cs),
(190.99,45.48,o),
(229.99,-5.02,o),
(313.99,-5.02,cs),
(363.3,-5.02,o),
(415.86,15.63,o),
(463.87,52.5,c),
(501.81,21.19,o),
(538.96,-6.02,o),
(578.48,-6.02,cs),
(655.98,-6.02,o),
(715.48,123.98,o),
(746.48,203.98,cs),
(748.87,210.15,o),
(749.92,215.84,o),
(749.92,220.91,cs),
(749.92,236.01,o),
(740.62,245.55,o),
(729.89,245.55,cs),
(720.88,245.55,o),
(710.85,238.81,o),
(704.48,222.98,c)
);
},
{
closed = 1;
nodes = (
(247.98,118.48,o),
(267.48,139.98,o),
(306.98,139.98,cs),
(347.16,139.98,o),
(384.84,116.21,o),
(420.4,88.1,c),
(384.92,62.08,o),
(347.64,47.98,o),
(313.98,47.98,cs),
(269.48,47.98,o),
(247.98,72.48,o),
(247.98,95.98,c)
);
}
);
width = 681;
}
);
leftKerningGroup = Q;
rightKerningGroup = A;
unicode = 81;
},
{
glyphname = R;
layers = (
{
anchors = (
{
name = t.uni0302_2;
position = "{345, 700}";
},
{
name = b.uni0326_1_2;
position = "{350, 0}";
}
);
hints = (
{
horizontal = 1;
place = (-7,53);
type = Stem;
},
{
horizontal = 1;
place = (294,53);
type = Stem;
},
{
horizontal = 1;
place = (305,55);
type = Stem;
},
{
horizontal = 1;
place = (651,53);
type = Stem;
},
{
place = (49,59);
type = Stem;
},
{
place = (164,59);
type = Stem;
},
{
place = (199,58);
type = Stem;
},
{
place = (208,59);
type = Stem;
},
{
place = (505,59);
type = Stem;
}
);
layerId = "5D537C8E-A691-4577-99BE-0854CC36C2B0";
shapes = (
{
closed = 1;
nodes = (
(666,223,l),
(625.5,122.5,o),
(588,46,o),
(556.5,46,cs),
(529,46,o),
(504,87,o),
(459,179,cs),
(436.96,224.23,o),
(416.12,271.26,o),
(393.7,300.66,c),
(496.59,324.29,o),
(564.,407.86,o),
(564.,504.99,cs),
(564.,616.99,o),
(476.,703.99,o),
(331.5,703.99,cs),
(164.5,703.99,o),
(49.,598.49,o),
(49.,468.49,cs),
(49.,441.99,o),
(62.5,427.99,o),
(78.5,427.99,cs),
(94.5,427.99,o),
(108.,441.99,o),
(108.,468.49,cs),
(108.,570.49,o),
(199.,650.99,o),
(331.5,650.99,cs),
(443.5,650.99,o),
(505.,589.99,o),
(505.,504.49,cs),
(505.,414.49,o),
(443.5,346.99,o),
(328.5,346.99,cs),
(302.3,346.99,o),
(280.85,348.44,o),
(263.16,350.35,c),
(265.24,373.62,o),
(266.51,398.08,o),
(266.51,424.,cs),
(266.51,513.5,o),
(252.01,563.,o),
(221.51,563.,cs),
(207.01,563.,o),
(195.51,550.5,o),
(195.51,532.5,cs),
(195.51,516.,o),
(207.51,489.5,o),
(207.51,424.,cs),
(207.51,401.06,o),
(206.47,379.42,o),
(204.75,358.86,c),
(201.32,359.27,o),
(198.26,359.51,o),
(195.51,359.51,cs),
(177.01,359.51,o),
(167.51,346.01,o),
(167.51,332.01,cs),
(167.51,320.01,o),
(175.01,308.01,o),
(191.51,305.51,cs),
(193.76,305.18,o),
(196.09,304.85,o),
(198.5,304.52,c),
(193.14,267.05,o),
(186.36,233.12,o),
(181.01,201.01,cs),
(170.01,137.51,o),
(163.51,87.01,o),
(163.51,24.51,cs),
(163.51,5.51,o),
(178.51,-5.99,o),
(193.01,-5.99,cs),
(208.01,-5.99,o),
(222.51,5.01,o),
(222.51,32.01,cs),
(222.51,85.51,o),
(230.01,136.51,o),
(238.51,188.01,cs),
(244.34,222.46,o),
(251.45,258.58,o),
(257.05,297.99,c),
(282.65,295.72,o),
(309.19,294.12,o),
(331.21,294.01,c),
(355.69,264.29,o),
(380.26,210.11,o),
(401.01,164.01,cs),
(445.51,66.01,o),
(487.01,-6.99,o),
(552.51,-6.99,cs),
(619.51,-6.99,o),
(657.01,78.01,o),
(708.01,204.01,cs),
(710.4,209.87,o),
(711.45,215.34,o),
(711.45,220.25,cs),
(711.45,235.09,o),
(701.88,244.82,o),
(690.95,244.82,cs),
(682.06,244.82,o),
(672.27,238.38,o),
(666.01,223.01,c)
);
}
);
width = 642;
}
);
leftKerningGroup = R;
rightKerningGroup = A;
unicode = 82;
},
{
glyphname = S;
layers = (
{
anchors = (
{
name = t.uni0302_2;
position = "{319, 700}";
},
{
name = b.uni0326_1_2;
position = "{294, -3}";
}
);
hints = (
{
horizontal = 1;
place = (-6,54);
type = Stem;
},
{
horizontal = 1;
place = (654,53);
type = Stem;
},
{
place = (75,59);
type = Stem;
},
{
place = (150,59);
type = Stem;
},
{
place = (396,55);
type = Stem;
},
{
place = (430,59);
type = Stem;
}
);
layerId = "5D537C8E-A691-4577-99BE-0854CC36C2B0";
shapes = (
{
closed = 1;
nodes = (
(401.5,-5.5,o),
(488.5,78,o),
(488.5,183.5,cs),
(488.5,288,o),
(408.5,344,o),
(336.5,402,cs),
(272.5,453,o),
(208.5,498.5,o),
(208.5,562,cs),
(208.5,620,o),
(252.5,654,o),
(305.5,654,cs),
(357,654,o),
(395.5,624,o),
(395.5,577,cs),
(395.5,563.5,o),
(393.5,555,o),
(393.5,546,cs),
(393.5,532,o),
(404,522.5,o),
(419.5,522.5,cs),
(438,522.5,o),
(450.5,542.5,o),
(450.5,578,cs),
(450.5,658.5,o),
(387.5,707,o),
(307.5,707,cs),
(221,707,o),
(149.5,651,o),
(149.5,563.5,cs),
(149.5,474,o),
(225.5,414.5,o),
(300.5,356.5,cs),
(363.5,307.5,o),
(429.5,259.5,o),
(429.5,183.5,cs),
(429.5,107,o),
(368.5,47.5,o),
(278.5,47.5,cs),
(191,47.5,o),
(133.5,101.5,o),
(133.5,174.5,cs),
(133.5,217,o),
(151.5,249,o),
(151.5,269.5,cs),
(151.5,284.5,o),
(141,295.5,o),
(125.5,295.5,cs),
(111,295.5,o),
(99.5,285,o),
(93,268,cs),
(80,233.5,o),
(74.5,202.5,o),
(74.5,175.5,cs),
(74.5,68.5,o),
(154.5,-5.5,o),
(278.5,-5.5,cs)
);
}
);
width = 506;
}
);
leftKerningGroup = S2;
rightKerningGroup = S;
unicode = 83;
},
{
glyphname = T;
layers = (
{
anchors = (
{
name = t.uni0302_2;
position = "{414, 696}";
},
{
name = b.uni0326_1_2;
position = "{262, 0}";
}
);
hints = (
{
horizontal = 1;
place = (-5,53);
type = Stem;
},
{
horizontal = 1;
place = (606,54);
type = Stem;
},
{
horizontal = 1;
place = (649,53);
type = Stem;
},
{
place = (93,59);
type = Stem;
},
{
place = (365,58);
type = Stem;
}
);
layerId = "5D537C8E-A691-4577-99BE-0854CC36C2B0";
shapes = (
{
closed = 1;
nodes = (
(655.5,732.5,l),
(621,732.5,o),
(637.5,659.5,o),
(540,659.5,cs),
(458,659.5,o),
(336,701.5,o),
(248,701.5,cs),
(147.5,701.5,o),
(93,649,o),
(93,571.5,cs),
(93,516.5,o),
(125.5,476,o),
(164.5,454,cs),
(176,447.5,o),
(187.5,443,o),
(197.5,443,cs),
(215,443,o),
(224.5,454,o),
(224.5,465.5,cs),
(224.5,475.5,o),
(218.5,484.5,o),
(206,492,cs),
(171.5,512.5,o),
(152,534,o),
(152,572.5,cs),
(152,618,o),
(187,648.5,o),
(248,648.5,cs),
(275.89,648.5,o),
(318.22,640.77,o),
(364.7,631.94,c),
(357.27,520.68,o),
(347.27,367.5,o),
(341,285.5,cs),
(328.09,120.63,o),
(296.44,47.99,o),
(236.74,47.99,cs),
(202.22,47.99,o),
(173.27,71.56,o),
(152.01,107.,c),
(145.01,120.5,o),
(134.51,126.5,o),
(124.51,126.5,cs),
(111.51,126.5,o),
(99.51,115.5,o),
(99.51,98.,cs),
(99.51,91.,o),
(101.51,82.5,o),
(106.51,73.,cs),
(129.51,29.5,o),
(178.01,-5.,o),
(234.51,-5.,cs),
(335.51,-5.,o),
(387.01,86.,o),
(400.01,280.5,cs),
(403.85,336.63,o),
(412.29,464.12,o),
(423.13,621.,c),
(467.51,613.06,o),
(511.83,606.49,o),
(548.02,606.49,cs),
(625.02,606.49,o),
(678.02,656.49,o),
(678.02,706.99,cs),
(678.02,722.99,o),
(668.02,732.49,o),
(655.52,732.49,c)
);
}
);
width = 566;
}
);
leftKerningGroup = T2;
rightKerningGroup = T;
unicode = 84;
},
{
glyphname = U;
layers = (
{
anchors = (
{
name = t.uni0302_2;
position = "{417, 700}";
}
);
hints = (
{
horizontal = 1;
place = (-4,53);
type = Stem;
},
{
horizontal = 1;
place = (655,53);
type = Stem;
},
{
place = (157,59);
type = Stem;
},
{
place = (221,59);
type = Stem;
},
{
place = (524,58);
type = Stem;
},
{
place = (550,61);
type = Stem;
}
);
layerId = "5D537C8E-A691-4577-99BE-0854CC36C2B0";
shapes = (
{
closed = 1;
nodes = (
(743.5,223,l),
(702,122,o),
(667.5,48.5,o),
(634.5,48.5,cs),
(603.5,48.5,o),
(582,105.5,o),
(582,226,cs),
(582,357.5,o),
(590.5,431.5,o),
(606.5,547.5,cs),
(609,565.5,o),
(611,582,o),
(611,587,cs),
(611,606.5,o),
(598.5,619,o),
(583,619,cs),
(568,619,o),
(554,606.5,o),
(551.5,583.5,cs),
(550.99,578.6,o),
(550.38,573.08,o),
(549.7,567.18,c),
(500.56,270.1,o),
(392.28,48.51,o),
(284.5,48.51,cs),
(241.5,48.51,o),
(215.5,75.01,o),
(215.5,132.51,cs),
(215.5,226.01,o),
(279.5,521.51,o),
(279.5,596.01,cs),
(279.5,669.51,o),
(239.5,707.51,o),
(185.5,707.51,cs),
(138.5,707.51,o),
(93.,678.01,o),
(61.5,623.01,cs),
(57.5,616.01,o),
(56.,610.01,o),
(56.,604.51,cs),
(56.,590.51,o),
(67.,581.01,o),
(80.,581.01,cs),
(88.5,581.01,o),
(98.,585.01,o),
(104.5,596.01,cs),
(128.,635.51,o),
(155.5,654.51,o),
(179.,654.51,cs),
(205.5,654.51,o),
(220.5,634.51,o),
(220.5,598.01,cs),
(220.5,539.51,o),
(156.5,221.51,o),
(156.5,133.51,cs),
(156.5,44.01,o),
(204.5,-4.49,o),
(281.5,-4.49,cs),
(386.69,-4.49,o),
(467.81,113.02,o),
(524.57,278.26,c),
(523.89,257.28,o),
(523.51,234.9,o),
(523.51,210.51,cs),
(523.51,56.51,o),
(569.01,-4.49,o),
(631.51,-4.49,cs),
(697.51,-4.49,o),
(736.01,79.51,o),
(785.51,204.01,cs),
(787.86,209.85,o),
(788.89,215.23,o),
(788.89,220.02,cs),
(788.89,234.7,o),
(779.23,243.87,o),
(768.33,243.87,cs),
(759.33,243.87,o),
(749.47,237.61,o),
(743.52,223.02,c)
);
}
);
width = 720;
}
);
leftKerningGroup = U;
rightKerningGroup = A;
unicode = 85;
},
{
glyphname = V;
layers = (
{
hints = (
{
horizontal = 1;
place = (-8,21);
target = up;
type = BottomGhost;
},
{
horizontal = 1;
place = (659,53);
type = Stem;
},
{
horizontal = 1;
place = (707,-20);
target = down;
type = TopGhost;
},
{
place = (12,659);
type = Stem;
}
);
layerId = "5D537C8E-A691-4577-99BE-0854CC36C2B0";
shapes = (
{
closed = 1;
nodes = (
(634.5,706.5,o),
(624.5,702,o),
(614.5,693,cs),
(485.46,576.78,o),
(386.99,360.47,o),
(322.92,113.44,c),
(307.23,216.89,o),
(291.33,350.89,o),
(271.49,558.99,cs),
(261.99,658.49,o),
(215.99,712.49,o),
(140.49,712.49,cs),
(80.49,712.49,o),
(35.99,672.99,o),
(17.49,631.99,cs),
(13.99,624.49,o),
(11.99,616.99,o),
(11.99,610.49,cs),
(11.99,595.49,o),
(22.99,586.99,o),
(34.99,586.99,cs),
(45.49,586.99,o),
(53.49,592.49,o),
(59.49,603.99,cs),
(80.49,644.49,o),
(106.49,659.49,o),
(136.49,659.49,cs),
(179.99,659.49,o),
(204.99,623.99,o),
(212.49,557.49,cs),
(233.49,364.99,o),
(247.99,182.99,o),
(280.49,28.99,cs),
(285.99,3.49,o),
(300.99,-7.51,o),
(317.99,-7.51,cs),
(333.99,-7.51,o),
(346.99,2.99,o),
(353.49,26.49,cs),
(420.99,267.99,o),
(504.99,513.49,o),
(653.99,649.49,cs),
(665.49,659.99,o),
(670.99,670.99,o),
(670.99,679.99,cs),
(670.99,694.99,o),
(659.49,706.49,o),
(644,706.5,c)
);
}
);
width = 531;
}
);
unicode = 86;
},
{
glyphname = W;
layers = (
{
anchors = (
{
name = t.uni0302_2;
position = "{581, 700}";
}
);
hints = (
{
horizontal = 1;
place = (-5,53);
type = Stem;
},
{
horizontal = 1;
place = (2,53);
type = Stem;
},
{
horizontal = 1;
place = (659,53);
type = Stem;
},
{
horizontal = 1;
place = (703,-20);
target = down;
type = TopGhost;
},
{
place = (174,59);
type = Stem;
},
{
place = (219,59);
type = Stem;
},
{
place = (527,54);
type = Stem;
},
{
place = (541,61);
type = Stem;
},
{
place = (869,59);
type = Stem;
}
);
layerId = "5D537C8E-A691-4577-99BE-0854CC36C2B0";
shapes = (
{
closed = 1;
nodes = (
(872,695.5,o),
(860.5,703,o),
(849.5,703,cs),
(834,703,o),
(822,691.5,o),
(822,675,cs),
(822,668,o),
(824.5,660,o),
(830,648.5,cs),
(852.5,603,o),
(868.5,523.5,o),
(868.5,442.5,cs),
(868.5,206.5,o),
(789.5,55,o),
(697,55,cs),
(627,55,o),
(581,136,o),
(581,318,cs),
(581,401.5,o),
(593.5,476,o),
(597.5,502,cs),
(600,516.5,o),
(601.5,524.5,o),
(601.5,530.5,cs),
(601.5,549,o),
(589.5,561.5,o),
(573.5,561.5,cs),
(558.5,561.5,o),
(545,550,o),
(542,529.5,cs),
(541.49,526.33,o),
(540.99,523.15,o),
(540.5,519.96,cs),
(490,229.48,o),
(407,48.49,o),
(311,48.49,cs),
(263.5,48.49,o),
(233,79.99,o),
(233,158.49,cs),
(233,252.49,o),
(278,536.99,o),
(278,603.49,cs),
(278,672.99,o),
(237,712.49,o),
(176,712.49,cs),
(122,712.49,o),
(84,681.49,o),
(62,649.99,cs),
(54.5,639.49,o),
(51,628.99,o),
(51,619.49,cs),
(51,605.99,o),
(61,595.99,o),
(73,595.99,cs),
(82,595.99,o),
(91.5,600.49,o),
(99.5,611.99,cs),
(122.5,645.49,o),
(144.5,659.49,o),
(172,659.49,cs),
(200.5,659.49,o),
(219,639.49,o),
(219,606.49,cs),
(219,546.49,o),
(174,254.99,o),
(174,151.49,cs),
(174,51.49,o),
(227.5,-4.51,o),
(306.5,-4.51,cs),
(402.28,-4.51,o),
(472.77,83.04,o),
(526.87,261.63,c),
(535.47,73.1,o),
(606.92,1.52,o),
(695.5,1.99,cs),
(824.5,2.49,o),
(927.5,177.99,o),
(927.5,435.99,cs),
(927.5,526.99,o),
(910.5,615.49,o),
(881.5,675.5,cs)
);
}
);
width = 950;
}
);
leftKerningGroup = W2;
rightKerningGroup = W;
unicode = 87;
},
{
glyphname = X;
layers = (
{
hints = (
{
horizontal = 1;
place = (-2,53);
type = Stem;
},
{
horizontal = 1;
place = (698,-20);
target = down;
type = TopGhost;
},
{
horizontal = 1;
place = (708,-20);
target = down;
type = TopGhost;
},
{
place = (32,569);
type = Stem;
}
);
layerId = "5D537C8E-A691-4577-99BE-0854CC36C2B0";
shapes = (
{
closed = 1;
nodes = (
(574,697.5,l),
(566.5,697.5,o),
(557,694.5,o),
(547.5,687,cs),
(468.64,622.56,o),
(399.94,504.52,o),
(340.29,373.86,c),
(303.89,473.69,o),
(281.3,578.51,o),
(274.5,679.,cs),
(273.5,696.5,o),
(260.5,707.5,o),
(244.5,707.5,cs),
(229.,707.5,o),
(215.5,696.,o),
(215.5,677.5,cs),
(215.5,672.5,o),
(216.,666.5,o),
(217.,655.5,cs),
(227.78,537.9,o),
(258.49,414.54,o),
(307.3,299.,c),
(240.78,147.09,o),
(190.89,51.,o),
(137.49,51.,cs),
(116.49,51.,o),
(97.99,63.,o),
(81.49,78.5,c),
(71.99,88.,o),
(63.99,91.5,o),
(55.99,91.5,cs),
(41.99,91.5,o),
(31.99,80.,o),
(31.99,65.5,cs),
(31.99,57.5,o),
(34.99,49.5,o),
(41.49,41.,c),
(64.99,13.,o),
(100.49,-2.,o),
(137.49,-2.,cs),
(226.95,-2.,o),
(282.56,102.23,o),
(339.41,229.39,c),
(386.38,135.85,o),
(445.76,49.73,o),
(516.49,-21.,cs),
(524.99,-29.5,o),
(532.99,-33.,o),
(540.49,-33.,cs),
(555.99,-33.,o),
(569.49,-19.5,o),
(569.49,-4.5,cs),
(569.49,4.5,o),
(565.99,12.,o),
(558.99,19.,cs),
(481.73,95.33,o),
(417.95,193.04,o),
(370.33,299.65,c),
(444.93,469.26,o),
(509.85,579.55,o),
(587.49,646.51,cs),
(596.49,654.01,o),
(600.99,663.51,o),
(600.99,672.01,cs),
(600.99,686.01,o),
(588.49,697.51,o),
(573.99,697.51,c)
);
}
);
width = 561;
}
);
unicode = 88;
},
{
glyphname = Y;
layers = (
{
anchors = (
{
name = t.uni0302_2;
position = "{429, 700}";
}
);
hints = (
{
horizontal = 1;
place = (-5,53);
type = Stem;
},
{
horizontal = 1;
place = (244,53);
type = Stem;
},
{
horizontal = 1;
place = (648,53);
type = Stem;
},
{
place = (234,59);
type = Stem;
},
{
place = (249,59);
type = Stem;
},
{
place = (567,58);
type = Stem;
}
);
layerId = "5D537C8E-A691-4577-99BE-0854CC36C2B0";
shapes = (
{
closed = 1;
nodes = (
(622,669,l),
(620.5,689.5,o),
(607.5,699,o),
(594,699,cs),
(578.5,699,o),
(563.5,687,o),
(563.5,666,cs),
(563.5,648.21,o),
(566.43,622.12,o),
(566.5,567.95,c),
(562.98,417.97,o),
(480.98,297.,o),
(380.49,297.,cs),
(326.99,297.,o),
(293.49,330.5,o),
(293.49,394.,cs),
(293.49,457.,o),
(308.49,571.,o),
(308.49,600.,cs),
(308.49,659.,o),
(267.49,701.,o),
(210.99,701.,cs),
(165.49,701.,o),
(121.99,673.,o),
(87.49,631.,cs),
(80.49,622.5,o),
(77.99,614.,o),
(77.99,606.,cs),
(77.99,592.5,o),
(88.49,582.,o),
(100.49,582.,cs),
(108.49,582.,o),
(116.99,585.5,o),
(124.49,594.,cs),
(159.99,634.5,o),
(182.99,648.,o),
(206.49,648.,cs),
(232.49,648.,o),
(249.49,630.5,o),
(249.49,597.,cs),
(249.49,567.5,o),
(234.49,460.,o),
(234.49,395.,cs),
(234.49,298.,o),
(288.49,244.,o),
(375.49,244.,cs),
(449.53,244.,o),
(507.29,288.24,o),
(548.3,353.65,c),
(519.72,190.5,o),
(456.5,48.,o),
(351.97,48.,cs),
(317.97,48.,o),
(288.97,63.5,o),
(259.47,99.,cs),
(251.47,108.5,o),
(243.47,112.5,o),
(235.47,112.5,cs),
(220.97,112.5,o),
(209.97,102.,o),
(209.97,87.5,cs),
(209.97,79.,o),
(212.97,70.,o),
(218.97,61.5,cs),
(246.97,21.5,o),
(295.47,-5.,o),
(352.97,-5.,cs),
(538.97,-5.,o),
(615.97,259.,o),
(625.47,563.,cs),
(626.47,594.5,o),
(624.47,636.,o),
(621.97,669.,c)
);
}
);
width = 648;
}
);
leftKerningGroup = Y2;
rightKerningGroup = Y;
unicode = 89;
},
{
glyphname = Z;
layers = (
{
anchors = (
{
name = t.uni0302_2;
position = "{357, 700}";
}
);
hints = (
{
horizontal = 1;
place = (-4,53);
type = Stem;
},
{
horizontal = 1;
place = (108,50);
type = Stem;
},
{
horizontal = 1;
place = (612,53);
type = Stem;
},
{
horizontal = 1;
place = (644,53);
type = Stem;
},
{
horizontal = 1;
place = (694,-20);
target = down;
type = TopGhost;
},
{
place = (47,57);
type = Stem;
},
{
place = (109,57);
type = Stem;
}
);
layerId = "5D537C8E-A691-4577-99BE-0854CC36C2B0";
shapes = (
{
closed = 1;
nodes = (
(577,223,l),
(534,120,o),
(480,49,o),
(435,49,cs),
(399,49,o),
(354.59,72.51,o),
(307.98,97.69,c),
(317.88,111.77,o),
(327.7,127.36,o),
(337.5,144.49,cs),
(439,321.49,o),
(558.5,608.49,o),
(558.5,665.49,cs),
(558.5,683.49,o),
(548,693.99,o),
(531,693.99,cs),
(506,693.99,o),
(477,664.99,o),
(430.5,664.99,cs),
(355.5,664.99,o),
(282,696.99,o),
(217.5,696.99,cs),
(151.5,696.99,o),
(108.5,652.49,o),
(108.5,585.99,cs),
(108.5,536.49,o),
(129.5,501.99,o),
(157,501.99,cs),
(170.5,501.99,o),
(180.5,511.49,o),
(180.5,524.99,cs),
(180.5,538.49,o),
(165.5,558.99,o),
(165.5,585.99,cs),
(165.5,622.49,o),
(184.5,643.99,o),
(217.5,643.99,cs),
(280,643.99,o),
(351,612.49,o),
(427,612.49,cs),
(447.5,612.49,o),
(467.5,614.49,o),
(488.5,620.49,c),
(435.32,475.79,o),
(326.58,224.12,o),
(255.12,125.49,c),
(218.19,143.71,o),
(181.34,157.99,o),
(147.5,157.99,cs),
(81.5,157.99,o),
(47,116.99,o),
(47,76.49,cs),
(47,35.99,o),
(81,-3.51,o),
(150.5,-3.51,cs),
(195.83,-3.51,o),
(235.73,15.58,o),
(273.52,55.16,c),
(327.16,25.72,o),
(384.7,-4.01,o),
(431.5,-4.01,cs),
(500.,-4.01,o),
(560.,56.99,o),
(619.,203.99,cs),
(621.35,209.9,o),
(622.38,215.31,o),
(622.38,220.1,cs),
(622.38,234.68,o),
(612.85,243.54,o),
(602.04,243.54,cs),
(592.97,243.54,o),
(583.,237.31,o),
(577.,222.99,c)
);
},
{
closed = 1;
nodes = (
(146.5,47.99,l),
(119.,47.99,o),
(104.5,61.99,o),
(104.5,76.49,cs),
(104.5,91.99,o),
(118.,107.99,o),
(146.5,107.99,cs),
(165.53,107.99,o),
(191.,97.98,o),
(219.58,83.7,c),
(194.79,59.15,o),
(170.65,48,o),
(146.51,48,c)
);
}
);
width = 553;
}
);
leftKerningGroup = Z;
rightKerningGroup = A;
unicode = 90;
},
{
glyphname = bracketleft;
layers = (
{
hints = (
{
horizontal = 1;
place = (-12,50);
type = Stem;
},
{
horizontal = 1;
place = (612,50);
type = Stem;
},
{
place = (80,54);
type = Stem;
}
);
layerId = "5D537C8E-A691-4577-99BE-0854CC36C2B0";
shapes = (
{
closed = 1;
nodes = (
(228.5,-8.5,l),
(246.85,-6.35,o),
(256,5.68,o),
(256,17.36,cs),
(256,30.18,o),
(244.98,42.58,o),
(223,41.01,c),
(206.15,39.35,o),
(189.41,38.25,o),
(175.83,38.25,cs),
(160.8,38.25,o),
(149.65,39.59,o),
(146.5,43.,cs),
(138,52.,o),
(134,188.,o),
(134,332.,cs),
(134,458.5,o),
(140,587.5,o),
(151.5,603.,cs),
(158.5,612.,o),
(191,612.,o),
(228,612.5,cs),
(248.74,612.76,o),
(259.67,625.52,o),
(259.67,637.96,cs),
(259.67,649.51,o),
(250.25,660.78,o),
(230.51,661.5,cs),
(220.23,661.81,o),
(209.51,662.04,o),
(198.86,662.04,cs),
(158.76,662.04,o),
(119.69,658.83,o),
(109.02,645.,cs),
(89.52,621.,o),
(80.02,478.,o),
(80.02,332.,cs),
(80.02,170.,o),
(81.52,29.5,o),
(99.52,4.5,cs),
(107.82,-7.12,o),
(137.52,-12.12,o),
(172.79,-12.12,cs),
(190.62,-12.12,o),
(209.88,-10.84,o),
(228.52,-8.49,c)
);
}
);
width = 290;
}
);
unicode = 91;
},
{
glyphname = backslash;
layers = (
{
hints = (
{
horizontal = 1;
place = (0,21);
target = up;
type = BottomGhost;
},
{
place = (29,311);
type = Stem;
}
);
layerId = "5D537C8E-A691-4577-99BE-0854CC36C2B0";
shapes = (
{
closed = 1;
nodes = (
(317,-0.5,l),
(330.14,-0.5,o),
(340.05,11.25,o),
(340.05,26.57,cs),
(340.05,32.59,o),
(338.18,39.05,o),
(334.,45.51,cs),
(257.,167.01,o),
(164.5,521.51,o),
(76.,644.51,cs),
(68.,655.51,o),
(58.5,660.01,o),
(51.,660.01,cs),
(38.87,660.01,o),
(28.75,649.68,o),
(28.75,635.76,cs),
(28.75,628.96,o),
(31.04,620.92,o),
(36.5,612.52,cs),
(127.,472.52,o),
(206.5,150.02,o),
(292.5,16.02,cs),
(300.,4.52,o),
(309.,-0.48,o),
(317.,-0.48,c)
);
}
);
width = 369;
}
);
unicode = 92;
},
{
glyphname = bracketright;
layers = (
{
hints = (
{
horizontal = 1;
place = (-12,50);
type = Stem;
},
{
horizontal = 1;
place = (613,49);
type = Stem;
},
{
place = (156,54);
type = Stem;
}
);
layerId = "5D537C8E-A691-4577-99BE-0854CC36C2B0";
shapes = (
{
closed = 1;
nodes = (
(61,-8.5,l),
(79.64,-10.68,o),
(98.9,-11.9,o),
(116.74,-11.9,cs),
(152.01,-11.9,o),
(181.7,-7.11,o),
(190,4.51,cs),
(208,29.51,o),
(209.5,170.01,o),
(209.5,332.01,cs),
(209.5,478.01,o),
(200,621.01,o),
(180.5,645.01,cs),
(169.44,658.84,o),
(130.6,662.05,o),
(90.61,662.05,cs),
(79.99,662.05,o),
(69.29,661.82,o),
(59.01,661.51,cs),
(39.27,660.79,o),
(29.85,649.52,o),
(29.85,637.97,cs),
(29.85,625.53,o),
(40.78,612.77,o),
(61.52,612.51,cs),
(98.52,612.01,o),
(131.02,612.01,o),
(138.02,603.01,cs),
(149.52,587.51,o),
(155.52,458.51,o),
(155.52,332.01,cs),
(155.52,188.01,o),
(151.52,52.01,o),
(143.02,43.01,cs),
(139.87,39.6,o),
(128.72,38.26,o),
(113.69,38.26,cs),
(100.11,38.26,o),
(83.37,39.36,o),
(66.52,41.02,cs),
(44.54,43.11,o),
(33.52,30.69,o),
(33.52,17.73,cs),
(33.52,5.92,o),
(42.67,-6.34,o),
(61.02,-8.49,c)
);
}
);
width = 290;
}
);
unicode = 93;
},
{
glyphname = asciicircum;
layers = (
{
hints = (
{
horizontal = 1;
place = (388,282);
type = Stem;
},
{
place = (30,275);
type = Stem;
}
);
layerId = "5D537C8E-A691-4577-99BE-0854CC36C2B0";
shapes = (
{
closed = 1;
nodes = (
(61.5,387.5,o),
(71,393,o),
(77.5,406.5,cs),
(159,578,ls),
(161.5,583,o),
(163.5,586.5,o),
(167.5,586.5,cs),
(171,586.5,o),
(173,583,o),
(175.5,578,cs),
(256,408,ls),
(262.5,395,o),
(272.5,389,o),
(282,389,cs),
(293.5,389,o),
(304.5,397.5,o),
(304.5,412,cs),
(304.5,417.5,o),
(303.5,422.5,o),
(300.5,428.5,cs),
(195,649.5,l),
(189,663,o),
(178,670,o),
(167,670,cs),
(155.5,670,o),
(145,663,o),
(138.5,649.5,cs),
(33.5,428,ls),
(31,422.5,o),
(30,417,o),
(30,411.5,cs),
(30,397,o),
(40.5,387.5,o),
(52.5,387.5,cs)
);
}
);
width = 335;
}
);
unicode = 94;
},
{
glyphname = underscore;
layers = (
{
hints = (
{
horizontal = 1;
place = (-12,46);
type = Stem;
},
{
place = (36,270);
type = Stem;
}
);
layerId = "5D537C8E-A691-4577-99BE-0854CC36C2B0";
shapes = (
{
closed = 1;
nodes = (
(276.31,-12.02,l),
(296.43,-12.02,o),
(306.49,-0.77,o),
(306.49,10,cs),
(306.49,22,o),
(295.99,34,o),
(274.99,34,c),
(213.99,35,o),
(115.49,36.5,o),
(67.99,36,cs),
(46.99,35.5,o),
(36.49,23.5,o),
(36.49,12,cs),
(36.49,0.5,o),
(46.99,-10.5,o),
(67.99,-10.5,c),
(81.37,-10.37,o),
(97.37,-10.31,o),
(114.75,-10.31,cs),
(167.55,-10.31,o),
(233.11,-12.01,o),
(276.31,-12.01,c)
);
}
);
width = 331;
}
);
leftKerningGroup = slash;
unicode = 95;
},
{
glyphname = grave;
layers = (
{
hints = (
{
horizontal = 1;
place = (764,118);
type = Stem;
},
{
place = (37,113);
type = Stem;
}
);
layerId = "5D537C8E-A691-4577-99BE-0854CC36C2B0";
shapes = (
{
closed = 1;
nodes = (
(139,808,l),
(80.5,869.5,ls),
(72.32,878.11,o),
(63.9,881.66,o),
(56.65,881.66,cs),
(45.21,881.66,o),
(36.7,872.81,o),
(36.7,861.03,cs),
(36.7,853.83,o),
(39.88,845.54,o),
(47.5,837.51,cs),
(106,776.01,ls),
(113.95,767.78,o),
(122.21,764.38,o),
(129.38,764.38,cs),
(140.97,764.38,o),
(149.71,773.26,o),
(149.71,785.02,cs),
(149.71,792.08,o),
(146.56,800.18,o),
(138.99,808.02,c)
);
}
);
width = 190;
}
);
unicode = 96;
},
{
glyphname = a;
layers = (
{
anchors = (
{
name = t.uni0302_2;
position = "{213, 400}";
}
);
hints = (
{
horizontal = 1;
place = (-4,52);
type = Stem;
},
{
horizontal = 1;
place = (-3,53);
type = Stem;
},
{
horizontal = 1;
place = (343,51);
type = Stem;
},
{
horizontal = 1;
place = (398,-20);
target = down;
type = TopGhost;
},
{
place = (16,56);
type = Stem;
},
{
place = (286,49);
type = Stem;
}
);
layerId = "5D537C8E-A691-4577-99BE-0854CC36C2B0";
shapes = (
{
closed = 1;
nodes = (
(430,115,o),
(395.5,49.5,o),
(368.5,49.5,cs),
(349.5,49.5,o),
(335,66.5,o),
(335,122,cs),
(335,229,o),
(347.5,349,o),
(347.5,368,cs),
(347.5,387,o),
(336,398,o),
(321,398,cs),
(305.5,398,o),
(294,386,o),
(289.5,366,c),
(263,385.5,o),
(232,394,o),
(203,394,cs),
(106.5,394,o),
(16,293.5,o),
(16,156.5,cs),
(16,57.9,o),
(71.06,-4,o),
(146.1,-4,cs),
(198.16,-4,o),
(246.87,26.41,o),
(283.48,87.94,c),
(293.98,23.85,o),
(324.08,-2.5,o),
(366,-2.5,cs),
(423,-2.5,o),
(465.5,71.5,o),
(516,204,cs),
(518.08,209.53,o),
(519,214.59,o),
(519,219.09,cs),
(519,233.78,o),
(509.23,242.54,o),
(498.35,242.54,cs),
(489.36,242.54,o),
(479.62,236.56,o),
(474,223,cs)
);
},
{
closed = 1;
nodes = (
(106.5,48,o),
(72.,84.5,o),
(72.,158,cs),
(72.,265.5,o),
(139.,343,o),
(212.5,343,cs),
(243.,343,o),
(270.,330,o),
(286.5,312.5,c),
(287.5,142.5,o),
(225.5,48,o),
(153.5,48,cs)
);
}
);
width = 450;
}
);
leftKerningGroup = a;
rightKerningGroup = A;
unicode = 97;
},
{
glyphname = b;
layers = (
{
hints = (
{
horizontal = 1;
place = (-3,52);
type = Stem;
},
{
horizontal = 1;
place = (333,52);
type = Stem;
},
{
horizontal = 1;
place = (441,50);
type = Stem;
},
{
horizontal = 1;
place = (655,52);
type = Stem;
},
{
place = (23,56);
type = Stem;
},
{
place = (118,54);
type = Stem;
},
{
place = (302,55);
type = Stem;
},
{
place = (304,56);
type = Stem;
}
);
layerId = "5D537C8E-A691-4577-99BE-0854CC36C2B0";
shapes = (
{
closed = 1;
nodes = (
(428,223,l),
(408.38,174.48,o),
(376.8,142.76,o),
(340.15,128.57,c),
(352.55,160.77,o),
(359.5,196.64,o),
(359.5,233.49,cs),
(359.5,333.49,o),
(307.5,385.49,o),
(237.5,385.49,cs),
(168.67,385.49,o),
(117.99,333.02,o),
(117.99,250.9,cs),
(117.99,157.86,o),
(175.87,97.58,o),
(246.06,79.05,c),
(228.37,60.64,o),
(207.48,49.46,o),
(184.6,49.46,cs),
(124.53,49.46,o),
(78.5,120.1,o),
(78.5,273.49,cs),
(78.5,334.92,o),
(84.32,392.12,o),
(94.86,442.58,c),
(106.38,441.49,o),
(118.36,440.99,o),
(131,440.99,cs),
(257,440.99,o),
(356.5,513.99,o),
(356.5,608.99,cs),
(356.5,663.49,o),
(313,707.49,o),
(249.5,707.49,cs),
(162.3,707.49,o),
(91.86,631.18,o),
(53.69,503.79,c),
(45.11,506.45,o),
(38.26,508.48,o),
(31,508.48,cs),
(16,508.48,o),
(6,496.98,o),
(6,484.48,cs),
(6,473.98,o),
(13,462.98,o),
(29.5,456.98,cs),
(33.26,455.61,o),
(37.03,454.34,o),
(40.81,453.16,c),
(28.93,397.36,o),
(22.5,333.93,o),
(22.5,264.48,cs),
(22.5,82.98,o),
(89,-2.52,o),
(181.5,-2.52,cs),
(233.29,-2.52,o),
(279.18,27.66,o),
(311.39,73.91,c),
(375.17,80.38,o),
(437.15,120.95,o),
(470,203.98,cs),
(472.2,209.47,o),
(473.16,214.52,o),
(473.16,219.03,cs),
(473.16,233.54,o),
(463.18,242.47,o),
(452.16,242.47,cs),
(443.2,242.47,o),
(433.55,236.57,o),
(428,222.98,c)
);
},
{
closed = 1;
nodes = (
(281,655.48,o),
(301.5,634.98,o),
(301.5,605.48,cs),
(301.5,542.98,o),
(229.5,491.48,o),
(135.5,491.48,cs),
(125.02,491.48,o),
(115.76,491.91,o),
(107.52,492.63,c),
(137.54,592.36,o),
(188.42,655.48,o),
(248.5,655.48,c)
);
},
{
closed = 1;
nodes = (
(171.5,248.77,l),
(171.5,298.1,o),
(199.82,333.48,o),
(235.51,333.48,cs),
(272.51,333.48,o),
(303.51,302.98,o),
(303.51,239.48,cs),
(303.51,198.88,o),
(293.1,156.09,o),
(275.42,121.42,c),
(219.12,130.18,o),
(171.5,178.34,o),
(171.5,248.78,c)
);
}
);
width = 404;
}
);
leftKerningGroup = b;
rightKerningGroup = A;
unicode = 98;
},
{
glyphname = c;
layers = (
{
anchors = (
{
name = t.uni0302_2;
position = "{190, 391}";
},
{
name = b.uni0326_1_2;
position = "{183, 0}";
}
);
hints = (
{
horizontal = 1;
place = (-6,52);
type = Stem;
},
{
horizontal = 1;
place = (346,52);
type = Stem;
},
{
place = (19,55);
type = Stem;
},
{
place = (247,52);
type = Stem;
}
);
layerId = "5D537C8E-A691-4577-99BE-0854CC36C2B0";
shapes = (
{
closed = 1;
nodes = (
(291.5,-6,o),
(375,74.5,o),
(425.5,204,cs),
(427.7,209.78,o),
(428.66,215.05,o),
(428.66,219.72,cs),
(428.66,234.5,o),
(419,243.26,o),
(408.19,243.26,cs),
(399.09,243.26,o),
(389.17,237.05,o),
(383.51,223.,cs),
(341.51,119.,o),
(275.01,46.,o),
(190.01,46.,cs),
(110.6,46.,o),
(74.49,112.18,o),
(74.49,183.09,cs),
(74.49,262.44,o),
(119.11,346.5,o),
(192.01,346.5,cs),
(225.51,346.5,o),
(246.01,326.,o),
(246.51,293.,cs),
(247.01,274.,o),
(259.51,264.,o),
(272.01,264.,cs),
(285.51,264.,o),
(299.01,275.,o),
(299.01,299.5,cs),
(299.01,354.5,o),
(255.01,398.5,o),
(191.51,398.5,cs),
(84.01,398.5,o),
(18.51,288.,o),
(18.51,183.,cs),
(18.51,86.5,o),
(71.51,-6.,o),
(188.5,-6,c)
);
}
);
width = 360;
}
);
leftKerningGroup = c;
rightKerningGroup = A;
unicode = 99;
},
{
glyphname = d;
layers = (
{
hints = (
{
horizontal = 1;
place = (-2,52);
type = Stem;
},
{
horizontal = 1;
place = (1,52);
type = Stem;
},
{
horizontal = 1;
place = (350,51);
type = Stem;
},
{
horizontal = 1;
place = (652,53);
type = Stem;
},
{
place = (16,56);
type = Stem;
},
{
place = (265,54);
type = Stem;
},
{
place = (411,56);
type = Stem;
}
);
layerId = "5D537C8E-A691-4577-99BE-0854CC36C2B0";
shapes = (
{
closed = 1;
nodes = (
(468,126.5,o),
(423.5,52.5,o),
(389.5,52.5,cs),
(357.53,52.5,o),
(335.96,109.69,o),
(325.6,209.13,c),
(375.23,296.24,o),
(466.5,485.54,o),
(466.5,611.,cs),
(466.5,673.5,o),
(436.5,704.5,o),
(391.5,704.5,cs),
(314.27,704.5,o),
(263.85,612.65,o),
(265.48,378.97,c),
(247.9,393.64,o),
(225.42,401.,o),
(197.99,401.,cs),
(85.49,401.,o),
(15.99,265.,o),
(15.99,151.,cs),
(15.99,61.5,o),
(61.49,-2.,o),
(133.99,-2.,cs),
(196.17,-2.,o),
(253.27,50.15,o),
(285.54,116.08,c),
(298.07,38.75,o),
(338.13,0.51,o),
(383.99,0.51,cs),
(456.49,0.51,o),
(503.49,91.01,o),
(550.49,204.01,cs),
(552.65,209.22,o),
(553.6,214.13,o),
(553.6,218.59,cs),
(553.6,232.98,o),
(543.71,242.7,o),
(532.57,242.7,cs),
(523.97,242.7,o),
(514.62,236.91,o),
(508.5,223,cs)
);
},
{
closed = 1;
nodes = (
(388.5,652.5,l),
(401.5,652.5,o),
(411.,643.,o),
(411.,616.,cs),
(411.,555.97,o),
(372.76,410.87,o),
(319.54,302.79,c),
(318.85,323.91,o),
(318.5,346.17,o),
(318.5,369.49,cs),
(318.5,569.49,o),
(354.5,652.49,o),
(388.5,652.49,c)
);
},
{
closed = 1;
nodes = (
(96.5,49.99,o),
(72,89.49,o),
(72,152.49,cs),
(72,239.49,o),
(122,349.99,o),
(205.5,349.99,cs),
(247.5,349.99,o),
(274.5,320.49,o),
(274.5,257.49,cs),
(274.5,144.49,o),
(196,49.99,o),
(139,49.99,cs)
);
}
);
width = 485;
}
);
leftKerningGroup = a;
rightKerningGroup = A;
unicode = 100;
},
{
glyphname = e;
layers = (
{
anchors = (
{
name = t.uni0302_2;
position = "{197, 386}";
}
);
hints = (
{
horizontal = 1;
place = (-4,52);
type = Stem;
},
{
horizontal = 1;
place = (162,47);
type = Stem;
},
{
horizontal = 1;
place = (346,52);
type = Stem;
},
{
place = (19,56);
type = Stem;
},
{
place = (260,55);
type = Stem;
}
);
layerId = "5D537C8E-A691-4577-99BE-0854CC36C2B0";
shapes = (
{
closed = 1;
nodes = (
(391.5,223,l),
(342.5,107.5,o),
(286,47.5,o),
(196,47.5,cs),
(127.3,47.5,o),
(75.45,96.08,o),
(75,186.82,c),
(101.04,171.05,o),
(136.02,161.51,o),
(172.49,161.51,cs),
(258.49,161.51,o),
(315.49,216.51,o),
(315.49,290.01,cs),
(315.49,352.51,o),
(268.99,398.01,o),
(196.99,398.01,cs),
(92.49,398.01,o),
(18.99,305.51,o),
(18.99,187.51,cs),
(18.99,63.51,o),
(93.99,-4.49,o),
(194.99,-4.49,cs),
(300.49,-4.49,o),
(376.99,62.01,o),
(433.49,204.01,cs),
(435.96,210.17,o),
(437.04,215.75,o),
(437.04,220.65,cs),
(437.04,235.1,o),
(427.68,243.61,o),
(416.98,243.61,cs),
(407.77,243.61,o),
(397.56,237.29,o),
(391.49,223,c)
);
},
{
closed = 1;
nodes = (
(238.49,346,o),
(259.99,322,o),
(259.99,290,cs),
(259.99,244,o),
(225.99,208.5,o),
(167.99,208.5,cs),
(140.1,208.5,o),
(107.53,216.09,o),
(79.66,233.51,c),
(93.98,300.48,o),
(139.79,346,o),
(197.49,346,cs)
);
}
);
width = 368;
}
);
leftKerningGroup = c;
rightKerningGroup = A;
unicode = 101;
},
{
glyphname = f;
layers = (
{
hints = (
{
horizontal = 1;
place = (-245,52);
type = Stem;
},
{
horizontal = 1;
place = (80,49);
type = Stem;
},
{
horizontal = 1;
place = (651,52);
type = Stem;
},
{
place = (23,56);
type = Stem;
},
{
place = (214,56);
type = Stem;
},
{
place = (240,56);
type = Stem;
}
);
layerId = "5D537C8E-A691-4577-99BE-0854CC36C2B0";
shapes = (
{
closed = 1;
nodes = (
(318,223,l),
(291.5,161.5,o),
(265,128.5,o),
(234.5,128.5,cs),
(230.5,128.5,o),
(226.65,129.22,o),
(222.94,130.52,c),
(201.7,175.46,o),
(175.18,206.84,o),
(147.71,207.,c),
(147.71,207.,o),
(147.64,207.,o),
(147.57,207.,c),
(147.17,207.,l),
(147.17,207.,o),
(147.11,207.,o),
(147.05,207.,c),
(146.89,207.,l),
(127.36,206.62,o),
(116.63,191.25,o),
(116.63,171.,cs),
(116.63,142.32,o),
(140.77,105.59,o),
(182.64,88.72,c),
(201.46,41.97,o),
(213.63,-19.17,o),
(213.63,-72.,cs),
(213.63,-160.,o),
(194.63,-193.,o),
(164.63,-193.,cs),
(111.63,-193.,o),
(78.63,-114.,o),
(78.63,201.,cs),
(78.63,219.04,o),
(78.9,236.76,o),
(79.43,254.12,c),
(229.64,389.15,o),
(295.63,535.74,o),
(295.63,613.,cs),
(295.63,668.5,o),
(261.63,702.5,o),
(210.63,702.5,cs),
(89.63,702.5,o),
(22.63,521.5,o),
(22.63,183.,cs),
(22.63,-163.,o),
(72.63,-245.,o),
(162.63,-245.,cs),
(224.63,-245.,o),
(269.63,-190.5,o),
(269.63,-76.,cs),
(269.63,-27.54,o),
(259.42,29.82,o),
(242.9,80.18,c),
(285.08,85.29,o),
(326.61,119.98,o),
(360.13,204.,cs),
(362.31,209.44,o),
(363.27,214.39,o),
(363.27,218.77,cs),
(363.27,232.92,o),
(353.31,241.18,o),
(342.34,241.18,cs),
(333.29,241.18,o),
(323.55,235.56,o),
(318.14,223.,c)
);
},
{
closed = 1;
nodes = (
(227.14,650.5,o),
(239.64,636.5,o),
(239.64,609.5,cs),
(239.64,548.4,o),
(178.98,425.24,o),
(83.2,325.74,c),
(97.78,518.1,o),
(145.85,650.5,o),
(205.64,650.5,c)
);
}
);
width = 294;
}
);
leftKerningGroup = f;
rightKerningGroup = A;
unicode = 102;
},
{
glyphname = g;
layers = (
{
anchors = (
{
name = t.uni0302_2;
position = "{207, 386}";
}
);
hints = (
{
horizontal = 1;
place = (-250,52);
type = Stem;
},
{
horizontal = 1;
place = (20,52);
type = Stem;
},
{
horizontal = 1;
place = (347,52);
type = Stem;
},
{
place = (16,56);
type = Stem;
},
{
place = (96,56);
type = Stem;
},
{
place = (287,57);
type = Stem;
}
);
layerId = "5D537C8E-A691-4577-99BE-0854CC36C2B0";
shapes = (
{
closed = 1;
nodes = (
(395.15,140.34,o),
(366.77,79.38,o),
(326.96,42.22,c),
(335.24,152.76,o),
(343.99,279.64,o),
(343.99,301.49,cs),
(343.99,350.99,o),
(284.49,398.99,o),
(204.49,398.99,cs),
(99.99,398.99,o),
(15.99,302.49,o),
(15.99,174.49,cs),
(15.99,78.49,o),
(72.99,19.99,o),
(154.99,19.99,cs),
(198.99,19.99,o),
(241.99,40.49,o),
(274.49,80.99,c),
(273.49,53.99,o),
(271.49,29.49,o),
(269.49,6.99,c),
(163.49,-50.01,o),
(96.49,-97.51,o),
(96.49,-168.51,cs),
(96.49,-214.01,o),
(131.99,-249.51,o),
(186.99,-249.51,cs),
(274.06,-249.51,o),
(308.98,-170.18,o),
(321.69,-27.11,c),
(395.99,27.92,o),
(431.35,99.2,o),
(472.99,203.99,cs),
(475.3,209.78,o),
(476.32,215.2,o),
(476.32,220.08,cs),
(476.32,234.87,o),
(466.97,244.67,o),
(456.11,244.67,cs),
(447.35,244.67,o),
(437.6,238.29,o),
(431,223,cs)
);
},
{
closed = 1;
nodes = (
(106.49,72.,o),
(71.99,107.5,o),
(71.99,177.,cs),
(71.99,267.5,o),
(125.99,347.,o),
(207.49,347.,cs),
(245.49,347.,o),
(278.49,327.,o),
(286.99,307.5,c),
(282.99,193.,o),
(268.49,72.,o),
(160.99,72.,cs)
);
},
{
closed = 1;
nodes = (
(165.99,-197.5,o),
(151.99,-184.,o),
(151.99,-164.5,cs),
(151.99,-125.5,o),
(199.49,-88.5,o),
(263.49,-53.,c),
(248.99,-164.5,o),
(225.49,-197.5,o),
(186.99,-197.5,cs)
);
}
);
width = 407;
}
);
leftKerningGroup = a;
rightKerningGroup = A;
unicode = 103;
},
{
glyphname = h;
layers = (
{
anchors = (
{
name = t.uni0302_2;
position = "{224, 700}";
}
);
hints = (
{
horizontal = 1;
place = (1,52);
type = Stem;
},
{
horizontal = 1;
place = (358,51);
type = Stem;
},
{
horizontal = 1;
place = (433,50);
type = Stem;
},
{
horizontal = 1;
place = (654,52);
type = Stem;
},
{
place = (26,57);
type = Stem;
},
{
place = (239,56);
type = Stem;
},
{
place = (270,56);
type = Stem;
},
{
place = (286,57);
type = Stem;
}
);
layerId = "5D537C8E-A691-4577-99BE-0854CC36C2B0";
shapes = (
{
closed = 1;
nodes = (
(452.5,223,l),
(407.5,116.5,o),
(367,52.5,o),
(330,52.5,cs),
(309,52.5,o),
(295,66.5,o),
(295,93.5,cs),
(295,153.5,o),
(342.5,247.5,o),
(342.5,319,cs),
(342.5,372,o),
(304.5,408.5,o),
(250.5,408.5,cs),
(188.07,408.5,o),
(124.21,366.14,o),
(82.23,287.01,c),
(83.75,341.45,o),
(87.55,390.05,o),
(93.47,432.66,c),
(97.47,432.55,o),
(101.47,432.5,o),
(105.48,432.5,cs),
(245.98,432.5,o),
(325.98,521.5,o),
(325.98,604,cs),
(325.98,664,o),
(284.98,705.5,o),
(223.48,705.5,cs),
(137.32,705.5,o),
(76.51,630.91,o),
(46.75,489.12,c),
(37.26,491.22,o),
(30.58,493.,o),
(23.99,493.,cs),
(9.99,493.,o),
(0.99,482.,o),
(0.99,469.5,cs),
(0.99,458.5,o),
(7.99,447.5,o),
(23.99,443.,cs),
(28.77,441.65,o),
(33.43,440.46,o),
(38.,439.42,c),
(29.67,382.23,o),
(25.91,316.19,o),
(25.91,241.19,cs),
(25.91,171.3,o),
(27.98,95.88,o),
(32.48,31.01,cs),
(33.98,10.01,o),
(47.48,-0.49,o),
(60.98,-0.49,cs),
(75.48,-0.49,o),
(90.48,11.51,o),
(88.98,33.51,cs),
(86.79,69.89,o),
(84.6,109.26,o),
(83.15,148.35,c),
(87.63,261.51,o),
(177.51,358.02,o),
(243.98,358.02,cs),
(270.98,358.02,o),
(286.48,342.52,o),
(286.48,311.52,cs),
(286.48,255.02,o),
(238.98,168.02,o),
(238.98,92.02,cs),
(238.98,34.52,o),
(272.98,0.52,o),
(324.48,0.52,cs),
(386.98,0.52,o),
(437.98,62.52,o),
(494.48,204.02,cs),
(496.58,209.24,o),
(497.51,214.09,o),
(497.51,218.46,cs),
(497.51,232.89,o),
(487.43,242.1,o),
(476.3,242.1,cs),
(467.54,242.1,o),
(458.13,236.39,o),
(452.48,223.02,c)
);
},
{
closed = 1;
nodes = (
(221.98,653.52,l),
(250.98,653.52,o),
(270.48,634.02,o),
(270.48,602.52,cs),
(270.48,539.02,o),
(208.48,482.52,o),
(112.48,482.52,cs),
(108.79,482.52,o),
(105.27,482.57,o),
(101.91,482.66,c),
(124.84,595.21,o),
(166.22,653.53,o),
(221.97,653.53,c)
);
}
);
width = 429;
}
);
leftKerningGroup = h;
rightKerningGroup = A;
unicode = 104;
},
{
glyphname = i;
layers = (
{
hints = (
{
horizontal = 1;
place = (-3,53);
type = Stem;
},
{
horizontal = 1;
place = (394,-20);
target = down;
type = TopGhost;
},
{
horizontal = 1;
place = (449,69);
type = Stem;
},
{
place = (21,56);
type = Stem;
},
{
place = (53,68);
type = Stem;
}
);
layerId = "5D537C8E-A691-4577-99BE-0854CC36C2B0";
shapes = (
{
closed = 1;
nodes = (
(106,449,o),
(121,464.5,o),
(121,483.5,cs),
(121,502.5,o),
(106,518,o),
(87,518,cs),
(67.5,518,o),
(52.5,502.5,o),
(52.5,483.5,cs),
(52.5,464.5,o),
(67.5,449,o),
(87,449,cs)
);
},
{
closed = 1;
nodes = (
(179.5,-2.5,o),
(228.5,68.5,o),
(281,204,cs),
(283.2,209.61,o),
(284.17,214.92,o),
(284.17,219.75,cs),
(284.17,234.84,o),
(274.71,245.2,o),
(263.77,245.2,cs),
(255.12,245.2,o),
(245.55,238.73,o),
(239.,223,cs),
(193.,112,o),
(157.5,49.5,o),
(122.,49.5,cs),
(98.,49.5,o),
(77.,70.5,o),
(77.,150.5,cs),
(77.,194.5,o),
(84.,259.5,o),
(99.,359,cs),
(102.5,382,o),
(87.5,394,o),
(73.,394,cs),
(59.5,394,o),
(46.5,385,o),
(43.,364.5,cs),
(33.,300.5,o),
(21.,205,o),
(21.,154.5,cs),
(21.,38,o),
(62.5,-2.5,o),
(118,-2.5,cs)
);
}
);
width = 215;
}
);
leftKerningGroup = i;
rightKerningGroup = A;
unicode = 105;
},
{
glyphname = j;
layers = (
{
hints = (
{
horizontal = 1;
place = (-250,52);
type = Stem;
},
{
horizontal = 1;
place = (397,-20);
target = down;
type = TopGhost;
},
{
horizontal = 1;
place = (444,68);
type = Stem;
},
{
place = (-165,56);
type = Stem;
},
{
place = (37,68);
type = Stem;
}
);
layerId = "5D537C8E-A691-4577-99BE-0854CC36C2B0";
shapes = (
{
closed = 1;
nodes = (
(90,444,o),
(105,459,o),
(105,478,cs),
(105,497,o),
(90,512,o),
(71,512,cs),
(52,512,o),
(37,497,o),
(37,478,cs),
(37,459,o),
(52,444,o),
(71,444,cs)
);
},
{
closed = 1;
nodes = (
(175.5,223,l),
(147.43,154.58,o),
(107.05,76.15,o),
(65.49,37.67,c),
(66.17,45.51,o),
(66.84,53.64,o),
(67.5,62.,cs),
(75.,156.5,o),
(86.5,291.5,o),
(92.5,364.,cs),
(94.,384.5,o),
(81.,396.5,o),
(64.5,396.5,cs),
(50.,396.5,o),
(38.,386.,o),
(36.5,368.,cs),
(30.5,297.,o),
(22.,176.,o),
(10.5,46.,cs),
(9.31,32.15,o),
(8.11,18.99,o),
(6.88,6.5,c),
(-98.23,-48.84,o),
(-164.99,-97.71,o),
(-164.99,-168.51,cs),
(-164.99,-214.01,o),
(-129.49,-249.51,o),
(-74.49,-249.51,cs),
(2.01,-249.51,o),
(42.01,-177.01,o),
(57.51,-44.01,cs),
(57.92,-40.19,o),
(58.37,-35.99,o),
(58.85,-31.44,c),
(134.76,22.32,o),
(177.47,103.17,o),
(217.52,203.99,cs),
(219.79,209.75,o),
(220.79,215.13,o),
(220.79,219.97,cs),
(220.79,234.95,o),
(211.23,244.79,o),
(200.32,244.79,cs),
(191.49,244.79,o),
(181.77,238.35,o),
(175.51,222.98,c)
);
},
{
closed = 1;
nodes = (
(-95.49,-197.52,o),
(-109.49,-184.02,o),
(-109.49,-164.52,cs),
(-109.49,-125.58,o),
(-62.59,-87.54,o),
(-0.05,-53.83,c),
(-14.31,-158.74,o),
(-34.31,-197.51,o),
(-74.49,-197.52,c)
);
}
);
width = 152;
}
);
leftKerningGroup = j;
rightKerningGroup = A;
unicode = 106;
},
{
glyphname = k;
layers = (
{
anchors = (
{
name = b.uni0326_1_2;
position = "{160, 0}";
}
);
hints = (
{
horizontal = 1;
place = (-3,53);
type = Stem;
},
{
horizontal = 1;
place = (338,52);
type = Stem;
},
{
horizontal = 1;
place = (427,51);
type = Stem;
},
{
horizontal = 1;
place = (435,51);
type = Stem;
},
{
horizontal = 1;
place = (653,52);
type = Stem;
},
{
place = (25,57);
type = Stem;
},
{
place = (39,44);
type = Stem;
},
{
place = (153,59);
type = Stem;
},
{
place = (270,56);
type = Stem;
},
{
place = (282,57);
type = Stem;
}
);
layerId = "5D537C8E-A691-4577-99BE-0854CC36C2B0";
shapes = (
{
closed = 1;
nodes = (
(420.5,223,l),
(373.5,113.5,o),
(332,49.5,o),
(288,49.5,cs),
(253,49.5,o),
(211.5,95.5,o),
(211.5,138.5,cs),
(211.5,154,o),
(219,158.5,o),
(246.5,174,cs),
(294,200.5,o),
(338.5,228,o),
(338.5,294,cs),
(338.5,351,o),
(298,390,o),
(235.5,390,cs),
(185.29,390,o),
(123.95,359.98,o),
(83.49,296.59,c),
(85.58,344.88,o),
(89.65,388.6,o),
(95.45,427.55,c),
(98.61,427.51,o),
(101.79,427.49,o),
(105.01,427.49,cs),
(246.01,427.49,o),
(325.51,521.49,o),
(325.51,603.99,cs),
(325.51,663.99,o),
(284.51,705.49,o),
(223.01,705.49,cs),
(140.85,705.49,o),
(79.21,627.32,o),
(48.38,484.08,c),
(39.2,485.93,o),
(32.48,487.48,o),
(26.01,487.48,cs),
(11.51,487.48,o),
(2.01,475.98,o),
(2.01,463.48,cs),
(2.01,452.48,o),
(9.01,441.48,o),
(25.51,436.98,cs),
(30.22,435.65,o),
(34.77,434.5,o),
(39.19,433.51,c),
(32.63,390.07,o),
(28.5,341.8,o),
(27.01,288.98,cs),
(25.54,251.91,o),
(24.88,216.8,o),
(24.88,183.64,cs),
(24.88,126.44,o),
(26.84,75.05,o),
(30,29.47,cs),
(31.5,7.97,o),
(45,-2.03,o),
(58.5,-2.03,cs),
(73.5,-2.03,o),
(88,9.97,o),
(86.5,31.97,cs),
(84.56,64.01,o),
(82.62,98.99,o),
(81.59,136.97,c),
(85.96,287.96,o),
(181.25,338.47,o),
(226.5,338.47,cs),
(262.5,338.47,o),
(282.5,319.97,o),
(282.5,292.47,cs),
(282.5,258.97,o),
(257.5,237.47,o),
(203.,208.97,cs),
(162.,187.47,o),
(153.5,177.47,o),
(153.5,150.47,cs),
(153.5,66.97,o),
(216.,-2.53,o),
(284.5,-2.53,cs),
(352.,-2.53,o),
(406.,62.47,o),
(462.5,203.97,cs),
(464.85,209.81,o),
(465.88,215.14,o),
(465.88,219.86,cs),
(465.88,234.25,o),
(456.31,242.95,o),
(445.47,242.95,cs),
(436.42,242.95,o),
(426.48,236.88,o),
(420.49,222.98,c)
);
},
{
closed = 1;
nodes = (
(221.49,653.48,l),
(250.49,653.48,o),
(269.99,633.98,o),
(269.99,602.48,cs),
(269.99,538.98,o),
(207.99,477.98,o),
(111.99,477.98,cs),
(109.4,477.98,o),
(106.89,478.,o),
(104.46,478.04,c),
(128.75,592.47,o),
(170.78,653.47,o),
(221.49,653.47,c)
);
}
);
width = 397;
}
);
leftKerningGroup = k;
rightKerningGroup = A;
unicode = 107;
},
{
glyphname = l;
layers = (
{
anchors = (
{
name = t.uni0302_2;
position = "{186, 688}";
},
{
name = b.uni0326_1_2;
position = "{166, 0}";
}
);
hints = (
{
horizontal = 1;
place = (-1,52);
type = Stem;
},
{
horizontal = 1;
place = (646,52);
type = Stem;
},
{
place = (22,57);
type = Stem;
},
{
place = (212,56);
type = Stem;
}
);
layerId = "5D537C8E-A691-4577-99BE-0854CC36C2B0";
shapes = (
{
closed = 1;
nodes = (
(299.5,223,l),
(269.5,150,o),
(217.5,51,o),
(165.5,51,cs),
(117.93,51,o),
(86.66,109.97,o),
(79.88,214.25,c),
(208.18,352.11,o),
(268.49,482.05,o),
(268.49,594,cs),
(268.49,659,o),
(236.49,698,o),
(185.49,698,cs),
(79.49,698,o),
(22.49,551,o),
(22.49,259,cs),
(22.49,90,o),
(74.99,-1,o),
(161.99,-1,cs),
(233.49,-1,o),
(286.99,69.5,o),
(341.49,204,cs),
(343.7,209.39,o),
(344.67,214.41,o),
(344.67,218.93,cs),
(344.67,233.48,o),
(334.6,242.87,o),
(323.47,242.87,cs),
(314.64,242.87,o),
(305.14,236.95,o),
(299.48,223.,c)
);
},
{
closed = 1;
nodes = (
(200.48,646.,o),
(212.48,629.5,o),
(212.48,594.,cs),
(212.48,500.66,o),
(165.5,392.8,o),
(78.65,285.02,c),
(81.75,512.25,o),
(125.5,646.01,o),
(179.48,646.,c)
);
}
);
width = 276;
}
);
leftKerningGroup = l;
rightKerningGroup = A;
unicode = 108;
},
{
glyphname = m;
layers = (
{
hints = (
{
horizontal = 1;
place = (-1,53);
type = Stem;
},
{
horizontal = 1;
place = (315,52);
type = Stem;
},
{
horizontal = 1;
place = (341,51);
type = Stem;
},
{
place = (17,56);
type = Stem;
},
{
place = (239,56);
type = Stem;
},
{
place = (456,56);
type = Stem;
},
{
place = (472,56);
type = Stem;
}
);
layerId = "5D537C8E-A691-4577-99BE-0854CC36C2B0";
shapes = (
{
closed = 1;
nodes = (
(597,110,o),
(567,51.5,o),
(538,51.5,cs),
(523,51.5,o),
(512,62.5,o),
(512,88,cs),
(512,147.5,o),
(528,259.5,o),
(528,305,cs),
(528,357.5,o),
(493.5,392,o),
(441,392,cs),
(392.38,392,o),
(348.29,366.23,o),
(313.35,314.69,c),
(302.16,345.34,o),
(271.72,366.99,o),
(232,366.99,cs),
(178.47,366.99,o),
(121.5,330.95,o),
(80.37,256.07,c),
(84.37,311.22,o),
(88.5,343.41,o),
(88.5,362.,cs),
(88.5,382.5,o),
(75.5,392.,o),
(62,392.,cs),
(49,392.,o),
(34.5,382.,o),
(33,363.5,cs),
(25.5,269.,o),
(17,132.5,o),
(17,33.,cs),
(17,11.,o),
(27.5,-0.,o),
(44,-0.,cs),
(62,-0.,o),
(73,11.5,o),
(73,33.,cs),
(73,57.1,o),
(73.21,79.57,o),
(73.58,100.52,c),
(84.14,229.75,o),
(167.26,314.99,o),
(225,314.99,cs),
(250.5,314.99,o),
(264,301.49,o),
(264,275.99,cs),
(264,240.38,o),
(239,176.3,o),
(239,68.57,cs),
(239,37.35,o),
(239.89,-1.,o),
(272,-1.,cs),
(286.5,-1.,o),
(298,9.,o),
(298,28.,cs),
(298,38.5,o),
(295,65.,o),
(295,98.,cs),
(295,105.77,o),
(295.2,113.38,o),
(295.57,120.83,cs),
(301.94,242.72,o),
(362.74,341.,o),
(428.5,341.,cs),
(457.,341.,o),
(472.,324.5,o),
(472.,292.,cs),
(472.,255.5,o),
(456.,148.,o),
(456.,89.5,cs),
(456.,30.5,o),
(487.,-0.5,o),
(532.5,-0.5,cs),
(592.5,-0.5,o),
(632.,69.5,o),
(684.5,204.,cs),
(686.68,209.51,o),
(687.64,214.56,o),
(687.64,219.06,cs),
(687.64,233.62,o),
(677.64,242.4,o),
(666.64,242.4,cs),
(657.61,242.4,o),
(647.91,236.49,o),
(642.5,223,cs)
);
}
);
width = 619;
}
);
leftKerningGroup = m;
rightKerningGroup = A;
unicode = 109;
},
{
glyphname = n;
layers = (
{
anchors = (
{
name = t.uni0302_2;
position = "{208, 400}";
},
{
name = b.uni0326_1_2;
position = "{171, 0}";
}
);
hints = (
{
horizontal = 1;
place = (0,52);
type = Stem;
},
{
horizontal = 1;
place = (341,51);
type = Stem;
},
{
place = (17,56);
type = Stem;
},
{
place = (246,56);
type = Stem;
},
{
place = (262,56);
type = Stem;
}
);
layerId = "5D537C8E-A691-4577-99BE-0854CC36C2B0";
shapes = (
{
closed = 1;
nodes = (
(383,107.5,o),
(356.5,51.5,o),
(329,51.5,cs),
(313,51.5,o),
(302,62.5,o),
(302,88,cs),
(302,147.5,o),
(318,261,o),
(318,300.5,cs),
(318,357.5,o),
(282.5,392,o),
(229,392,cs),
(175.59,392,o),
(125.28,361.59,o),
(86.85,301.21,c),
(88.9,328.82,o),
(91.04,350.61,o),
(91.04,362.75,cs),
(91.04,382.22,o),
(78.48,391.51,o),
(64.99,391.51,cs),
(51.49,391.51,o),
(37.49,381.51,o),
(35.49,362.51,cs),
(26.99,281.51,o),
(16.99,103.51,o),
(16.99,31.01,cs),
(16.99,10.51,o),
(28.99,0.51,o),
(43.99,0.51,cs),
(60.49,0.51,o),
(72.99,11.01,o),
(72.99,31.01,cs),
(72.99,66.56,o),
(74.51,107.51,o),
(76.68,148.45,c),
(89.25,260.18,o),
(156.31,340.51,o),
(218.49,340.51,cs),
(246.99,340.51,o),
(261.99,324.51,o),
(261.99,292.01,cs),
(261.99,255.51,o),
(245.99,148.01,o),
(245.99,92.01,cs),
(245.99,30.51,o),
(276.99,-0.49,o),
(322.49,-0.49,cs),
(381.99,-0.49,o),
(416.99,63.51,o),
(474.49,204.01,cs),
(476.7,209.4,o),
(477.67,214.37,o),
(477.67,218.82,cs),
(477.67,233.09,o),
(467.69,242.,o),
(456.62,242.,cs),
(447.75,242.,o),
(438.18,236.28,o),
(432.5,223,cs)
);
}
);
width = 409;
}
);
leftKerningGroup = m;
rightKerningGroup = A;
unicode = 110;
},
{
glyphname = o;
layers = (
{
anchors = (
{
name = t.uni0302_2;
position = "{221, 382}";
},
{
name = b.uni0326_1_2;
position = "{162, 0}";
}
);
hints = (
{
horizontal = 1;
place = (-2,52);
type = Stem;
},
{
horizontal = 1;
place = (342,58);
type = Stem;
},
{
place = (16,56);
type = Stem;
},
{
place = (132,52);
type = Stem;
},
{
place = (292,56);
type = Stem;
}
);
layerId = "5D537C8E-A691-4577-99BE-0854CC36C2B0";
shapes = (
{
closed = 1;
nodes = (
(398.65,172.53,o),
(369.76,142.26,o),
(332.17,131.25,c),
(342.37,161.09,o),
(348.01,195.24,o),
(348.01,233.,cs),
(348.01,313.15,o),
(309.57,372.3,o),
(259.42,388.84,c),
(242.93,395.12,o),
(222.13,399.51,o),
(202.,399.51,cs),
(97.,399.51,o),
(16.,297.51,o),
(16.,170.01,cs),
(16.,61.51,o),
(76.5,-2.49,o),
(162.,-2.49,cs),
(221.06,-2.49,o),
(273.02,27.02,o),
(306.9,78.89,c),
(369.79,83.05,o),
(429.46,121.96,o),
(462.,204.01,cs),
(464.47,210.25,o),
(465.55,215.9,o),
(465.55,220.85,cs),
(465.55,235.41,o),
(456.24,243.97,o),
(445.58,243.97,cs),
(436.34,243.97,o),
(426.09,237.54,o),
(420,223,cs)
);
},
{
closed = 1;
nodes = (
(272.25,129.49,l),
(224.23,141.03,o),
(184.5,185.71,o),
(184.5,257.,cs),
(184.5,309.,o),
(202.,342.,o),
(231.5,342.,cs),
(264.,342.,o),
(292.,301.,o),
(292.,232.,cs),
(292.,191.92,o),
(284.7,157.39,o),
(272.24,129.49,c)
);
},
{
closed = 1;
nodes = (
(164.99,49.51,l),
(99.99,49.51,o),
(71.99,107.01,o),
(71.99,171.51,cs),
(71.99,237.07,o),
(101.67,309.58,o),
(153.51,337.09,c),
(140.87,314.89,o),
(132.49,286.9,o),
(132.49,254.5,cs),
(132.49,165.75,o),
(182.41,107.14,o),
(244.69,86.63,c),
(222.67,62.55,o),
(194.77,49.5,o),
(164.98,49.5,c)
);
}
);
width = 396;
}
);
rightKerningGroup = A;
unicode = 111;
},
{
glyphname = p;
layers = (
{
hints = (
{
horizontal = 1;
place = (-248,21);
target = up;
type = BottomGhost;
},
{
horizontal = 1;
place = (0,71);
type = Stem;
},
{
horizontal = 1;
place = (346,52);
type = Stem;
},
{
horizontal = 1;
place = (402,-20);
target = down;
type = TopGhost;
},
{
place = (25,56);
type = Stem;
},
{
place = (294,56);
type = Stem;
}
);
layerId = "5D537C8E-A691-4577-99BE-0854CC36C2B0";
shapes = (
{
closed = 1;
nodes = (
(420.5,223,l),
(392.26,154.38,o),
(351.3,113.05,o),
(291.12,91.17,c),
(326.2,139.76,o),
(350.01,201.63,o),
(350.01,261.01,cs),
(350.01,345.51,o),
(301.51,398.01,o),
(232.01,398.01,cs),
(171.42,398.01,o),
(113.63,356.86,o),
(76.2,296.47,c),
(73.37,329.12,o),
(69.39,357.31,o),
(65.01,381.52,cs),
(62.51,395.52,o),
(51.01,402.02,o),
(39.51,402.02,cs),
(25.75,402.02,o),
(11.5,392.35,o),
(11.5,374.44,cs),
(11.5,352,o),
(24.51,312.54,o),
(24.51,189.02,cs),
(24.51,9.52,o),
(-9.99,-186.48,o),
(-9.99,-218.48,cs),
(-9.99,-237.98,o),
(4.01,-248.48,o),
(17.51,-248.48,cs),
(30.01,-248.48,o),
(43.01,-239.98,o),
(45.51,-221.48,cs),
(66.51,-59.98,o),
(80.51,80.52,o),
(80.51,192.02,c),
(80.51,193.02,l),
(98.51,275.02,o),
(165.51,346.02,o),
(225.01,346.02,cs),
(266.51,346.02,o),
(294.01,315.52,o),
(294.01,263.02,cs),
(294.01,192.37,o),
(254.94,113.15,o),
(202.57,73.15,c),
(185.62,71.71,o),
(167.62,71.03,o),
(148.51,71.03,cs),
(123.01,71.03,o),
(108.01,52.53,o),
(108.01,34.53,cs),
(108.01,17.03,o),
(122.01,0.03,o),
(150.51,0.03,cs),
(177.37,0.03,o),
(205.17,11.14,o),
(231.18,29.92,c),
(348.54,47.11,o),
(420.98,100.22,o),
(462.5,204.02,cs),
(464.77,209.81,o),
(465.77,215.03,o),
(465.77,219.62,cs),
(465.77,234.02,o),
(455.97,242.19,o),
(445.13,242.19,cs),
(435.86,242.19,o),
(425.82,236.21,o),
(420.51,223.03,c)
);
}
);
width = 397;
}
);
leftKerningGroup = p;
rightKerningGroup = A;
unicode = 112;
},
{
glyphname = q;
layers = (
{
anchors = (
{
name = t.uni0302_2;
position = "{208, 390}";
},
{
name = b.uni0326_1_2;
position = "{208, 0}";
}
);
hints = (
{
horizontal = 1;
place = (-247,52);
type = Stem;
},
{
horizontal = 1;
place = (21,52);
type = Stem;
},
{
horizontal = 1;
place = (346,52);
type = Stem;
},
{
place = (16,56);
type = Stem;
},
{
place = (228,56);
type = Stem;
},
{
place = (289,53);
type = Stem;
},
{
place = (356,55);
type = Stem;
}
);
layerId = "5D537C8E-A691-4577-99BE-0854CC36C2B0";
shapes = (
{
closed = 1;
nodes = (
(316.5,-247,l),
(369.5,-247,o),
(410.5,-200.5,o),
(410.5,-119,cs),
(410.5,-37,o),
(368.5,31.5,o),
(361,54,c),
(419,84,o),
(454.5,137.5,o),
(481.5,204,cs),
(483.71,209.39,o),
(484.68,214.36,o),
(484.68,218.81,cs),
(484.68,233.08,o),
(474.7,241.99,o),
(463.63,241.99,cs),
(454.76,241.99,o),
(445.19,236.27,o),
(439.5,223,cs),
(403,138.5,o),
(375.5,111.5,o),
(311.5,82.5,c),
(326.69,175.14,o),
(342.02,262.66,o),
(342.02,295.22,cs),
(342.02,343.43,o),
(283.37,398.01,o),
(207.51,398.01,cs),
(99.01,398.01,o),
(16.01,297.51,o),
(16.01,167.01,cs),
(16.01,81.01,o),
(70.01,21.01,o),
(149.01,21.01,cs),
(185.51,21.01,o),
(221.01,35.01,o),
(251.51,63.51,c),
(239.51,-13.99,o),
(228.01,-94.49,o),
(228.01,-141.99,cs),
(228.01,-212.49,o),
(263.01,-246.99,o),
(316.51,-246.99,c)
);
},
{
closed = 1;
nodes = (
(102.01,73.01,o),
(72.01,109.51,o),
(72.01,171.01,cs),
(72.01,269.51,o),
(135.01,346.01,o),
(214.01,346.01,cs),
(247.01,346.01,o),
(278.51,329.01,o),
(288.51,305.51,c),
(277.51,190.51,o),
(261.51,73.01,o),
(154.01,73.01,cs)
);
},
{
closed = 1;
nodes = (
(298.01,-194.99,o),
(284.01,-180.99,o),
(284.01,-150.99,cs),
(284.01,-102.99,o),
(294.51,-26.99,o),
(306.01,50.01,c),
(320.51,16.01,o),
(356.01,-42.49,o),
(356.01,-114.99,cs),
(356.01,-171.49,o),
(340.01,-194.99,o),
(316.01,-194.99,cs)
);
}
);
width = 416;
}
);
leftKerningGroup = a;
rightKerningGroup = A;
unicode = 113;
},
{
glyphname = r;
layers = (
{
anchors = (
{
name = t.uni0302_2;
position = "{208, 387}";
},
{
name = b.uni0326_1_2;
position = "{262, 0}";
}
);
hints = (
{
horizontal = 1;
place = (-4,53);
type = Stem;
},
{
horizontal = 1;
place = (334,47);
type = Stem;
},
{
horizontal = 1;
place = (389,-20);
target = down;
type = TopGhost;
},
{
place = (141,56);
type = Stem;
}
);
layerId = "5D537C8E-A691-4577-99BE-0854CC36C2B0";
shapes = (
{
closed = 1;
nodes = (
(350.5,136.5,o),
(308.5,48.5,o),
(256.5,48.5,cs),
(223,48.5,o),
(196.5,74,o),
(196.5,138.5,cs),
(196.5,204,o),
(229,274.5,o),
(268.5,335.5,cs),
(274,344,o),
(278,353.5,o),
(278,362,cs),
(278,376.5,o),
(267,389,o),
(250.5,389,cs),
(237,389,o),
(228.5,381,o),
(205,381,cs),
(169,381,o),
(140.5,396.5,o),
(131.5,426,cs),
(127.5,439,o),
(117,445.5,o),
(106,445.5,cs),
(93,445.5,o),
(78,435,o),
(78,413,cs),
(78,406,o),
(80,397,o),
(80,390.5,c),
(74.5,359,o),
(49,284,o),
(24,223,cs),
(21.99,218,o),
(21.1,213.4,o),
(21.1,209.27,cs),
(21.1,194.93,o),
(31.76,186.23,o),
(43.05,186.23,cs),
(51.96,186.23,o),
(61.25,191.65,o),
(66,204,cs),
(85.51,254.05,o),
(104.3,307.69,o),
(121.46,359.74,c),
(138.41,346.28,o),
(178.76,334.72,o),
(204.2,333.69,c),
(164.64,262.48,o),
(140.5,197.59,o),
(140.5,135,cs),
(140.5,43.5,o),
(190,-3.5,o),
(251,-3.5,cs),
(338.5,-3.5,o),
(386.5,97,o),
(428.5,204,cs),
(430.68,209.56,o),
(431.64,214.79,o),
(431.64,219.53,cs),
(431.64,234.48,o),
(422.09,244.54,o),
(411.14,244.54,cs),
(402.46,244.54,o),
(392.89,238.22,o),
(386.5,223,cs)
);
}
);
width = 363;
}
);
leftKerningGroup = r;
rightKerningGroup = A;
unicode = 114;
},
{
glyphname = s;
layers = (
{
anchors = (
{
name = t.uni0302_2;
position = "{149, 400}";
},
{
name = b.uni0326_1_2;
position = "{151, 0}";
}
);
hints = (
{
horizontal = 1;
place = (-3,63);
type = Stem;
},
{
place = (87,74);
type = Stem;
},
{
place = (214,56);
type = Stem;
}
);
layerId = "5D537C8E-A691-4577-99BE-0854CC36C2B0";
shapes = (
{
closed = 1;
nodes = (
(347,223,l),
(324.42,169.41,o),
(301.25,125.73,o),
(267.5,97.05,c),
(268.81,105.31,o),
(269.5,114.12,o),
(269.5,123.5,cs),
(269.5,220.,o),
(160.5,313.5,o),
(160.5,363.,cs),
(160.5,383.5,o),
(177,392.,o),
(177,410.5,cs),
(177,431.,o),
(159.5,443.,o),
(138,443.,cs),
(111.73,443.,o),
(87.43,423.35,o),
(87,386.49,c),
(66.04,327.23,o),
(40.7,262.6,o),
(24,223.,cs),
(22.17,218.66,o),
(21.36,214.56,o),
(21.36,210.8,cs),
(21.36,196.86,o),
(32.47,187.49,o),
(44.07,187.49,cs),
(52.46,187.49,o),
(61.11,192.39,o),
(66.01,204.,cs),
(79.96,237.18,o),
(95.62,278.61,o),
(112.13,323.57,c),
(149.02,262.27,o),
(213.52,182.05,o),
(213.52,123.5,cs),
(213.52,94.85,o),
(201.46,71.85,o),
(182.3,61.1,c),
(173.54,60.05,o),
(164.29,59.51,o),
(154.51,59.51,cs),
(121.51,59.51,o),
(109.01,69.51,o),
(88.51,73.51,c),
(85.4,74.34,o),
(82.45,74.73,o),
(79.69,74.73,cs),
(64.23,74.73,o),
(54.51,62.66,o),
(54.51,49.51,cs),
(54.51,39.01,o),
(60.01,27.51,o),
(72.51,18.51,cs),
(92.01,4.51,o),
(119.01,-3.49,o),
(146.01,-3.49,cs),
(173.16,-3.49,o),
(200.82,4.06,o),
(223.06,20.48,c),
(297.69,43.82,o),
(346.71,102.2,o),
(389.01,204.02,cs),
(391.36,209.63,o),
(392.39,214.82,o),
(392.39,219.47,cs),
(392.39,233.86,o),
(382.53,243.02,o),
(371.49,243.02,cs),
(362.57,243.02,o),
(352.88,237.04,o),
(347.,223.01,c)
);
}
);
width = 323;
}
);
leftKerningGroup = r;
rightKerningGroup = A;
unicode = 115;
},
{
glyphname = t;
layers = (
{
anchors = (
{
name = b.uni0326_1_2;
position = "{140, -1}";
}
);
hints = (
{
horizontal = 1;
place = (-2,53);
type = Stem;
},
{
horizontal = 1;
place = (419,57);
type = Stem;
},
{
horizontal = 1;
place = (432,47);
type = Stem;
},
{
place = (19,56);
type = Stem;
},
{
place = (50,56);
type = Stem;
}
);
layerId = "5D537C8E-A691-4577-99BE-0854CC36C2B0";
shapes = (
{
closed = 1;
nodes = (
(239.5,128,o),
(199,50.5,o),
(143.5,50.5,cs),
(100.5,50.5,o),
(75,80,o),
(75,157.5,cs),
(75,209,o),
(87,299,o),
(100,387,cs),
(101.86,399.57,o),
(103.9,413.61,o),
(106.01,428.38,c),
(153.58,424.53,o),
(179.01,418.5,o),
(194,418.5,cs),
(208.5,418.5,o),
(217,429.5,o),
(217,441.5,cs),
(217,451,o),
(210.5,460.5,o),
(195.5,464,cs),
(170.15,469.91,o),
(141.65,473.64,o),
(112.68,475.9,c),
(120.97,536.24,o),
(128.51,596.26,o),
(128.51,613,cs),
(128.51,631.5,o),
(117.01,642.5,o),
(102.01,642.5,cs),
(86.51,642.5,o),
(74.01,632,o),
(72.51,613.5,cs),
(69.17,570.33,o),
(63.24,523.65,o),
(56.97,478.63,c),
(45.91,478.89,o),
(35.04,479,o),
(24.52,479,cs),
(5.02,479,o),
(-4.48,467,o),
(-4.48,455.5,cs),
(-4.48,443,o),
(4.52,431.5,o),
(23.52,431.5,cs),
(32.89,431.5,o),
(41.78,431.39,o),
(50.21,431.2,c),
(48.42,418.8,o),
(46.67,406.69,o),
(45.01,394.99,cs),
(32.01,305.49,o),
(19.01,214.99,o),
(19.01,162.49,cs),
(19.01,51.49,o),
(65.01,-1.51,o),
(139.51,-1.51,cs),
(227.51,-1.51,o),
(278.51,92.99,o),
(322.01,203.99,cs),
(324.38,210.03,o),
(325.42,215.55,o),
(325.42,220.44,cs),
(325.42,235.14,o),
(316.05,244.11,o),
(305.31,244.11,cs),
(296.25,244.11,o),
(286.21,237.72,o),
(280,223,cs)
);
}
);
width = 256;
}
);
leftKerningGroup = t;
rightKerningGroup = A;
unicode = 116;
},
{
glyphname = u;
layers = (
{
anchors = (
{
name = t.uni0302_2;
position = "{183, 386}";
}
);
hints = (
{
horizontal = 1;
place = (-3,52);
type = Stem;
},
{
horizontal = 1;
place = (-2,52);
type = Stem;
},
{
horizontal = 1;
place = (397,-20);
target = down;
type = TopGhost;
},
{
place = (13,56);
type = Stem;
},
{
place = (36,56);
type = Stem;
},
{
place = (265,51);
type = Stem;
}
);
layerId = "5D537C8E-A691-4577-99BE-0854CC36C2B0";
shapes = (
{
closed = 1;
nodes = (
(447.5,223,l),
(404,118,o),
(369.5,50,o),
(347.5,50,cs),
(328,50,o),
(315.5,81,o),
(315.5,176,cs),
(315.5,226.5,o),
(318,285.5,o),
(331,365.5,cs),
(334,384.5,o),
(321,396.5,o),
(305,396.5,cs),
(290,396.5,o),
(278,387.5,o),
(276,371,cs),
(271.85,335.92,o),
(267.7,296.57,o),
(264.85,257.23,c),
(250.58,128.48,o),
(189.27,49.01,o),
(123.49,49.01,cs),
(87.99,49.01,o),
(68.99,68.51,o),
(68.99,109.01,cs),
(68.99,164.01,o),
(92.49,281.51,o),
(92.49,345.01,cs),
(92.49,385.01,o),
(63.99,413.01,o),
(33.99,413.01,cs),
(17.49,413.01,o),
(6.99,402.51,o),
(6.99,389.51,cs),
(6.99,365.01,o),
(35.99,370.51,o),
(35.99,335.01,cs),
(35.99,288.51,o),
(12.99,174.51,o),
(12.99,105.01,cs),
(12.99,39.28,o),
(55.49,-3,o),
(119.73,-3,cs),
(177.44,-3,o),
(227.82,32.5,o),
(265.09,104.75,c),
(276.03,22.15,o),
(308.76,-1.99,o),
(344.63,-1.99,cs),
(396.93,-1.99,o),
(435.09,65.48,o),
(489.49,204.01,cs),
(491.7,209.62,o),
(492.67,214.79,o),
(492.67,219.42,cs),
(492.67,234.12,o),
(482.85,243.28,o),
(471.89,243.28,cs),
(462.94,243.28,o),
(453.23,237.18,o),
(447.48,223.01,c)
);
}
);
width = 424;
}
);
leftKerningGroup = u;
rightKerningGroup = A;
unicode = 117;
},
{
glyphname = v;
layers = (
{
hints = (
{
horizontal = 1;
place = (-3,52);
type = Stem;
},
{
horizontal = 1;
place = (123,49);
type = Stem;
},
{
horizontal = 1;
place = (394,-20);
target = down;
type = TopGhost;
},
{
horizontal = 1;
place = (395,-20);
target = down;
type = TopGhost;
},
{
place = (17,56);
type = Stem;
},
{
place = (35,56);
type = Stem;
},
{
place = (237,88);
type = Stem;
}
);
layerId = "5D537C8E-A691-4577-99BE-0854CC36C2B0";
shapes = (
{
closed = 1;
nodes = (
(407.5,223,l),
(393.5,190.5,o),
(375,171.5,o),
(356,171.5,cs),
(339.37,171.5,o),
(323.18,183.55,o),
(311.9,206.75,c),
(320.29,237.68,o),
(325,270.48,o),
(325,304.01,cs),
(325,365.51,o),
(308,395.01,o),
(281,395.01,cs),
(256,395.01,o),
(237,367.01,o),
(237,308.01,cs),
(237,269.17,o),
(243.27,235.47,o),
(254.01,207.86,c),
(226.29,103.97,o),
(153.89,49.01,o),
(115.,49.01,cs),
(91.,49.01,o),
(73.,68.01,o),
(73.,115.01,cs),
(73.,191.01,o),
(91.,267.01,o),
(91.,362.01,cs),
(91.,383.01,o),
(79.5,393.51,o),
(63.5,393.51,cs),
(47.5,393.51,o),
(35.,381.01,o),
(35.,360.01,cs),
(35.,261.51,o),
(17.,207.51,o),
(17.,119.01,cs),
(17.,38.01,o),
(54.,-2.99,o),
(111.5,-2.99,cs),
(179.83,-2.99,o),
(251.,60.22,o),
(291.47,149.8,c),
(310.05,132.35,o),
(331.99,123.02,o),
(354.99,123.02,cs),
(392.49,123.02,o),
(427.99,150.02,o),
(449.49,204.02,cs),
(451.69,209.48,o),
(452.66,214.65,o),
(452.66,219.35,cs),
(452.66,234.13,o),
(443.1,244.3,o),
(432.1,244.3,cs),
(423.5,244.3,o),
(414.01,238.09,o),
(407.5,223.02,c)
);
}
);
width = 383;
}
);
leftKerningGroup = v;
rightKerningGroup = A;
unicode = 118;
},
{
glyphname = w;
layers = (
{
anchors = (
{
name = t.uni0302_2;
position = "{278, 386}";
}
);
hints = (
{
horizontal = 1;
place = (-4,52);
type = Stem;
},
{
horizontal = 1;
place = (3,52);
type = Stem;
},
{
horizontal = 1;
place = (123,48);
type = Stem;
},
{
horizontal = 1;
place = (395,-20);
target = down;
type = TopGhost;
},
{
horizontal = 1;
place = (398,-20);
target = down;
type = TopGhost;
},
{
place = (15,56);
type = Stem;
},
{
place = (35,56);
type = Stem;
},
{
place = (251,56);
type = Stem;
},
{
place = (448,87);
type = Stem;
}
);
layerId = "5D537C8E-A691-4577-99BE-0854CC36C2B0";
shapes = (
{
closed = 1;
nodes = (
(617.5,223,l),
(605,193,o),
(589,171,o),
(566.5,171,cs),
(548.62,171,o),
(532.65,183.62,o),
(522.09,207.43,c),
(530.71,239.69,o),
(535.5,273.75,o),
(535.5,308.,cs),
(535.5,365.,o),
(518.,395.5,o),
(491.5,395.5,cs),
(466.,395.5,o),
(448.,365.5,o),
(448.,310.,cs),
(448.,269.92,o),
(454.57,235.21,o),
(465.72,206.95,c),
(439.4,109.9,o),
(375.75,55.,o),
(337.,55.,cs),
(307.,55.,o),
(290.,79.5,o),
(290.,122.,cs),
(290.,172.,o),
(307.5,234.,o),
(307.5,329.,cs),
(307.5,350.5,o),
(297.,360.5,o),
(281.,360.5,cs),
(265.,360.5,o),
(251.5,347.5,o),
(251.5,327.,cs),
(251.5,293.6,o),
(249.24,263.26,o),
(246.45,235.56,c),
(225.2,92.47,o),
(158.36,48.01,o),
(121,48.01,cs),
(91.5,48.01,o),
(70.5,68.51,o),
(70.5,118.51,cs),
(70.5,179.51,o),
(91,287.01,o),
(91,361.01,cs),
(91,387.01,o),
(81.5,397.51,o),
(65,397.51,cs),
(47,397.51,o),
(35,384.51,o),
(35,360.01,cs),
(35,284.51,o),
(14.5,199.51,o),
(14.5,120.01,cs),
(14.5,39.51,o),
(57,-3.99,o),
(114.5,-3.99,cs),
(168.72,-3.99,o),
(210.7,29.22,o),
(240.57,76.92,c),
(251.94,28.63,o),
(284.06,3,o),
(331.49,3,cs),
(399.85,3,o),
(464.5,65.01,o),
(502.04,150.29,c),
(520.51,132.52,o),
(542.28,123.,o),
(564.99,123.,cs),
(605.49,123.,o),
(637.99,149.,o),
(659.49,204.,cs),
(661.74,209.71,o),
(662.73,214.99,o),
(662.73,219.71,cs),
(662.73,234.41,o),
(653.14,243.71,o),
(642.25,243.71,cs),
(633.36,243.71,o),
(623.6,237.51,o),
(617.49,223,c)
);
}
);
width = 594;
}
);
leftKerningGroup = v;
rightKerningGroup = A;
unicode = 119;
},
{
glyphname = x;
layers = (
{
hints = (
{
horizontal = 1;
place = (-3,53);
type = Stem;
},
{
horizontal = 1;
place = (346,52);
type = Stem;
},
{
horizontal = 1;
place = (390,-20);
target = down;
type = TopGhost;
},
{
place = (21,494);
type = Stem;
}
);
layerId = "5D537C8E-A691-4577-99BE-0854CC36C2B0";
shapes = (
{
closed = 1;
nodes = (
(469.5,223,l),
(425,112.5,o),
(391.5,49.5,o),
(370,49.5,cs),
(353,49.5,o),
(334,77,o),
(300.5,153.5,cs),
(296.7,162.22,o),
(292.7,171.62,o),
(288.48,181.73,c),
(324.51,234.16,o),
(357.96,289.39,o),
(384.,345.01,cs),
(387.5,352.51,o),
(389.,359.51,o),
(389.,365.01,cs),
(389.,380.51,o),
(378.,390.01,o),
(365.,390.01,cs),
(355.,390.01,o),
(343.,383.51,o),
(336.,369.01,cs),
(317.17,330.1,o),
(292.04,286.28,o),
(263.83,242.54,c),
(255.29,264.1,o),
(246.04,287.87,o),
(236.,314.01,cs),
(212.5,375.01,o),
(185.,398.01,o),
(148.,398.01,cs),
(107.5,398.01,o),
(83.5,366.01,o),
(65.,321.51,cs),
(49.,282.51,o),
(36.,251.01,o),
(24.,223.01,cs),
(21.99,218.22,o),
(21.1,213.82,o),
(21.1,209.87,cs),
(21.1,196.05,o),
(31.94,187.74,o),
(43.33,187.74,cs),
(52.15,187.74,o),
(61.3,192.73,o),
(66.,204.01,cs),
(79.,235.01,o),
(92.,266.51,o),
(100.5,286.01,cs),
(115.,319.51,o),
(126.,346.01,o),
(145.,346.01,cs),
(165.,346.01,o),
(172.5,322.51,o),
(211.,224.01,cs),
(215.31,212.92,o),
(219.47,202.25,o),
(223.51,192.01,c),
(184.79,137.46,o),
(143.92,86.54,o),
(107.01,47.5,cs),
(98.01,38.,o),
(95.01,29.,o),
(95.01,22.,cs),
(95.01,7.5,o),
(106.51,-3.,o),
(120.01,-3.,cs),
(130.01,-3.,o),
(137.51,0.5,o),
(146.01,9.5,cs),
(178.21,43.33,o),
(213.4,85.47,o),
(248.06,132.12,c),
(251.42,124.39,o),
(254.73,117.01,o),
(258.01,109.99,cs),
(294.01,32.49,o),
(323.51,-2.51,o),
(367.01,-2.51,cs),
(421.01,-2.51,o),
(455.51,63.99,o),
(511.51,203.99,cs),
(513.69,209.4,o),
(514.65,214.56,o),
(514.65,219.28,cs),
(514.65,234.33,o),
(504.9,244.93,o),
(493.81,244.93,cs),
(485.22,244.93,o),
(475.82,238.57,o),
(469.51,222.99,c)
);
}
);
width = 446;
}
);
leftKerningGroup = r;
rightKerningGroup = A;
unicode = 120;
},
{
glyphname = y;
layers = (
{
anchors = (
{
name = t.uni0302_2;
position = "{183, 387}";
}
);
hints = (
{
horizontal = 1;
place = (-249,51);
type = Stem;
},
{
horizontal = 1;
place = (1,52);
type = Stem;
},
{
horizontal = 1;
place = (392,-20);
target = down;
type = TopGhost;
},
{
place = (13,56);
type = Stem;
},
{
place = (36,56);
type = Stem;
},
{
place = (79,56);
type = Stem;
},
{
place = (253,58);
type = Stem;
}
);
layerId = "5D537C8E-A691-4577-99BE-0854CC36C2B0";
shapes = (
{
closed = 1;
nodes = (
(390.48,148.3,o),
(351.07,78.94,o),
(310.26,40.27,c),
(310.66,44.43,o),
(311.07,48.67,o),
(311.49,52.99,cs),
(319.99,145.49,o),
(330.49,279.49,o),
(335.99,359.49,cs),
(337.49,381.99,o),
(322.99,392.49,o),
(308.49,392.49,cs),
(294.99,392.49,o),
(280.99,382.49,o),
(279.99,363.49,cs),
(278.44,334.53,o),
(275.83,298.47,o),
(272.54,257.48,c),
(256.46,133.51,o),
(185.66,52.99,o),
(123.49,52.99,cs),
(87.99,52.99,o),
(68.99,72.49,o),
(68.99,112.99,cs),
(68.99,167.99,o),
(92.49,279.99,o),
(92.49,343.49,cs),
(92.49,383.49,o),
(63.99,411.49,o),
(33.99,411.49,cs),
(17.49,411.49,o),
(6.99,400.99,o),
(6.99,387.99,cs),
(6.99,363.49,o),
(35.99,367.49,o),
(35.99,332.49,cs),
(35.99,286.99,o),
(12.99,178.49,o),
(12.99,108.99,cs),
(12.99,43.26,o),
(55.49,0.98,o),
(119.73,0.98,cs),
(167.78,0.98,o),
(218.65,32.66,o),
(258.75,96.04,c),
(257.02,76.36,o),
(255.26,56.3,o),
(253.49,36.,cs),
(252.6,25.67,o),
(251.69,15.74,o),
(250.77,6.2,c),
(146,-49.01,o),
(79.49,-97.83,o),
(79.49,-168.5,cs),
(79.49,-214.,o),
(114.99,-249.5,o),
(169.99,-249.5,cs),
(246.49,-249.5,o),
(287.99,-177.5,o),
(301.99,-44.,cs),
(302.45,-39.94,o),
(302.93,-35.48,o),
(303.43,-30.64,c),
(377.85,25.6,o),
(423.99,106.17,o),
(463.5,203.99,cs),
(465.7,209.41,o),
(466.66,214.4,o),
(466.66,218.86,cs),
(466.66,233.25,o),
(456.62,242.13,o),
(445.56,242.13,cs),
(436.63,242.13,o),
(427.03,236.34,o),
(421.5,223,cs)
);
},
{
closed = 1;
nodes = (
(170.,-197.5,l),
(149.,-197.5,o),
(135.,-184.,o),
(135.,-164.5,cs),
(135.,-125.66,o),
(181.67,-87.72,o),
(243.97,-54.08,c),
(229.95,-158.9,o),
(210.11,-197.51,o),
(170.,-197.51,c)
);
}
);
width = 398;
}
);
leftKerningGroup = u;
rightKerningGroup = A;
unicode = 121;
},
{
glyphname = z;
layers = (
{
anchors = (
{
name = t.uni0302_2;
position = "{212, 387}";
}
);
hints = (
{
horizontal = 1;
place = (-5,53);
type = Stem;
},
{
horizontal = 1;
place = (7,52);
type = Stem;
},
{
horizontal = 1;
place = (309,52);
type = Stem;
},
{
place = (21,428);
type = Stem;
}
);
layerId = "5D537C8E-A691-4577-99BE-0854CC36C2B0";
shapes = (
{
closed = 1;
nodes = (
(404,223,l),
(364.5,125.5,o),
(322.5,47.5,o),
(286.5,47.5,cs),
(264.5,47.5,o),
(228,59,o),
(187.5,59,cs),
(177.76,59,o),
(168.02,58.46,o),
(157.63,57.23,c),
(227.27,120.23,o),
(300.12,254.48,o),
(320.49,321.48,c),
(323.99,331.98,o),
(325.49,340.48,o),
(325.49,346.48,cs),
(325.49,360.48,o),
(316.49,369.98,o),
(303.99,369.98,cs),
(289.49,369.98,o),
(275.49,361.48,o),
(247.49,361.48,cs),
(189.49,361.48,o),
(152.49,388.98,o),
(135.99,418.98,cs),
(125.49,437.48,o),
(118.49,445.98,o),
(102.99,445.98,cs),
(85.99,445.98,o),
(73.99,431.98,o),
(73.99,415.48,cs),
(73.99,408.98,o),
(75.49,399.98,o),
(76.49,392.48,c),
(70.49,353.48,o),
(42.99,271.98,o),
(23.99,222.98,cs),
(22.13,218.22,o),
(21.3,213.7,o),
(21.3,209.54,cs),
(21.3,194.67,o),
(31.83,184.42,o),
(43.19,184.42,cs),
(51.68,184.42,o),
(60.63,190.16,o),
(65.98,203.99,cs),
(87.48,258.49,o),
(102.48,302.99,o),
(118.48,355.99,c),
(152.98,329.99,o),
(193.48,311.99,o),
(257.98,309.49,c),
(218.48,212.49,o),
(157.48,125.49,o),
(83.48,60.49,cs),
(72.48,50.99,o),
(67.48,38.99,o),
(67.48,26.99,cs),
(67.48,10.99,o),
(78.48,-3.51,o),
(99.48,-3.51,cs),
(115.98,-3.51,o),
(139.98,7.49,o),
(182.98,7.49,cs),
(211.98,7.49,o),
(252.48,-4.51,o),
(294.48,-4.51,cs),
(348.98,-4.51,o),
(396.48,78.49,o),
(445.98,203.99,cs),
(448.19,209.53,o),
(449.16,214.65,o),
(449.16,219.24,cs),
(449.16,233.89,o),
(439.25,243.13,o),
(428.23,243.13,cs),
(419.32,243.13,o),
(409.68,237.09,o),
(403.96,222.99,c)
);
}
);
width = 380;
}
);
leftKerningGroup = r;
rightKerningGroup = A;
unicode = 122;
},
{
glyphname = braceleft;
layers = (
{
hints = (
{
horizontal = 1;
place = (-6,50);
type = Stem;
},
{
horizontal = 1;
place = (613,50);
type = Stem;
},
{
place = (131,54);
type = Stem;
},
{
place = (132,45);
type = Stem;
}
);
layerId = "5D537C8E-A691-4577-99BE-0854CC36C2B0";
shapes = (
{
closed = 1;
nodes = (
(266.5,58.5,l),
(250.5,47,o),
(237.5,43.5,o),
(227.5,43.5,cs),
(201.5,43.5,o),
(185,60,o),
(185,85,cs),
(185,119,o),
(193,224,o),
(193,242,cs),
(193,281.66,o),
(170.79,317.31,o),
(141.15,334.42,c),
(169.07,348.18,o),
(184.,369.05,o),
(184.,398.99,cs),
(184.,439.49,o),
(177.5,506.49,o),
(177.5,546.99,cs),
(177.5,594.99,o),
(195.5,613.49,o),
(231.,613.49,cs),
(241.,613.49,o),
(252.5,610.49,o),
(267.5,603.99,cs),
(273.26,601.4,o),
(278.65,600.26,o),
(283.49,600.26,cs),
(297.98,600.26,o),
(307.59,610.42,o),
(307.59,622.06,cs),
(307.59,630.53,o),
(302.5,639.79,o),
(290.5,646.49,cs),
(272.,656.99,o),
(250.,662.99,o),
(231.,662.99,cs),
(166.,662.99,o),
(124.5,619.49,o),
(124.5,546.99,cs),
(124.5,520.99,o),
(132.,438.99,o),
(132.,401.99,cs),
(132.,376.99,o),
(112.5,361.99,o),
(81.5,353.49,cs),
(68.,349.99,o),
(60.,342.49,o),
(60.,331.99,cs),
(60.,321.99,o),
(68.5,313.99,o),
(82.,310.99,cs),
(119.,302.49,o),
(139.5,276.49,o),
(139.5,241.99,cs),
(139.5,223.49,o),
(131.5,116.99,o),
(131.5,83.99,cs),
(131.5,29.99,o),
(167.5,-6.01,o),
(227.5,-6.01,cs),
(252.,-6.01,o),
(277.,5.49,o),
(295.,23.49,cs),
(301.42,30.19,o),
(304.18,37.59,o),
(304.18,44.26,cs),
(304.18,55.72,o),
(296.04,65.04,o),
(284.35,65.04,cs),
(279.,65.04,o),
(272.9,63.08,o),
(266.5,58.48,c)
);
}
);
width = 338;
}
);
unicode = 123;
},
{
glyphname = bar;
layers = (
{
hints = (
{
horizontal = 1;
place = (701,-20);
target = down;
type = TopGhost;
},
{
place = (62,56);
type = Stem;
}
);
layerId = "5D537C8E-A691-4577-99BE-0854CC36C2B0";
shapes = (
{
closed = 1;
nodes = (
(93.5,-256.5,o),
(107,-246,o),
(108,-224,cs),
(114.5,-101.5,o),
(118,43,o),
(118,188.5,cs),
(118,360.5,o),
(113.5,534,o),
(106,668.5,cs),
(105,690,o),
(91.5,700.5,o),
(78,700.5,cs),
(64,700.5,o),
(50,689.5,o),
(50,667,cs),
(50,626.5,o),
(62,483.5,o),
(62,230.5,cs),
(62,-1,o),
(52,-182.5,o),
(52,-222.5,cs),
(52,-244.5,o),
(66,-256.5,o),
(80,-256.5,cs)
);
}
);
width = 168;
}
);
unicode = 124;
},
{
glyphname = braceright;
layers = (
{
hints = (
{
horizontal = 1;
place = (-6,50);
type = Stem;
},
{
horizontal = 1;
place = (614,49);
type = Stem;
},
{
place = (153,54);
type = Stem;
},
{
place = (161,45);
type = Stem;
}
);
layerId = "5D537C8E-A691-4577-99BE-0854CC36C2B0";
shapes = (
{
closed = 1;
nodes = (
(256,346,l),
(219,354.5,o),
(198.5,380.5,o),
(198.5,415,cs),
(198.5,433.5,o),
(206.5,540,o),
(206.5,573,cs),
(206.5,627,o),
(170.5,663,o),
(110.5,663,cs),
(86,663,o),
(61,651.5,o),
(43,633.5,cs),
(36.58,626.8,o),
(33.82,619.4,o),
(33.82,612.73,cs),
(33.82,601.27,o),
(41.96,591.95,o),
(53.65,591.95,cs),
(59.,591.95,o),
(65.1,593.91,o),
(71.5,598.51,cs),
(87.5,610.01,o),
(100.5,613.51,o),
(110.5,613.51,cs),
(135.5,613.51,o),
(153.,597.01,o),
(153.,572.01,cs),
(153.,538.01,o),
(145.,433.01,o),
(145.,415.01,cs),
(145.,375.56,o),
(167.28,341.3,o),
(196.58,324.14,c),
(168.72,310.5,o),
(154.01,288.,o),
(154.01,258.01,cs),
(154.01,217.51,o),
(160.51,150.51,o),
(160.51,110.01,cs),
(160.51,62.01,o),
(142.51,43.51,o),
(107.01,43.51,cs),
(97.01,43.51,o),
(85.51,46.51,o),
(70.51,53.01,cs),
(64.75,55.6,o),
(59.36,56.74,o),
(54.52,56.74,cs),
(40.03,56.74,o),
(30.42,46.58,o),
(30.42,34.94,cs),
(30.42,26.47,o),
(35.51,17.21,o),
(47.51,10.51,cs),
(66.01,0.01,o),
(88.01,-5.99,o),
(107.01,-5.99,cs),
(172.01,-5.99,o),
(213.51,37.51,o),
(213.51,110.01,cs),
(213.51,136.01,o),
(206.01,218.01,o),
(206.01,255.01,cs),
(206.01,280.01,o),
(226.01,295.01,o),
(256.51,303.51,cs),
(270.01,307.01,o),
(278.01,314.51,o),
(278.01,324.51,cs),
(278.01,335.01,o),
(270.01,343.01,o),
(256.01,346.01,c)
);
}
);
width = 338;
}
);
unicode = 125;
},
{
glyphname = asciitilde;
layers = (
{
hints = (
{
horizontal = 1;
place = (299,49);
type = Stem;
},
{
horizontal = 1;
place = (331,49);
type = Stem;
},
{
place = (30,268);
type = Stem;
}
);
layerId = "5D537C8E-A691-4577-99BE-0854CC36C2B0";
shapes = (
{
closed = 1;
nodes = (
(247.5,351,o),
(237.5,347.5,o),
(223,347.5,cs),
(185,347.5,o),
(148,380,o),
(105,380,cs),
(82.5,380,o),
(57.5,370,o),
(38.5,345,cs),
(32.5,337.5,o),
(30,329.5,o),
(30,323,cs),
(30,311,o),
(39,302.5,o),
(50,302.5,cs),
(56.5,302.5,o),
(64,306,o),
(70,313,cs),
(79,324,o),
(89.5,331,o),
(103.5,331,cs),
(139.5,331,o),
(175.5,298.5,o),
(223,298.5,cs),
(248.5,298.5,o),
(275.5,308.5,o),
(291.5,334.5,cs),
(296,341.5,o),
(297.5,347.5,o),
(297.5,353,cs),
(297.5,366.5,o),
(288,375.5,o),
(277,375.5,cs),
(270.5,375.5,o),
(262.5,372.5,o),
(257,364.5,cs)
);
}
);
width = 328;
}
);
unicode = 126;
},
{
glyphname = exclamdown;
layers = (
{
hints = (
{
horizontal = 1;
place = (-252,21);
target = up;
type = BottomGhost;
},
{
horizontal = 1;
place = (382,86);
type = Stem;
},
{
place = (18,85);
type = Stem;
},
{
place = (45,58);
type = Stem;
}
);
layerId = "5D537C8E-A691-4577-99BE-0854CC36C2B0";
shapes = (
{
closed = 1;
nodes = (
(36.5,467.5,o),
(17.5,448.5,o),
(17.5,424,cs),
(17.5,400.5,o),
(36.5,381.5,o),
(60.5,381.5,cs),
(84,381.5,o),
(103,400.5,o),
(103,424,cs),
(103,448.5,o),
(84,467.5,o),
(60.5,467.5,cs)
);
},
{
closed = 1;
nodes = (
(48.87,311.06,o),
(36.49,297.75,o),
(36.49,277,cs),
(36.49,253,o),
(45.49,167,o),
(45.49,-0.5,cs),
(45.49,-80,o),
(43.49,-157,o),
(39.49,-214.5,cs),
(37.4,-237.43,o),
(50.53,-251.56,o),
(66.93,-251.56,cs),
(81.64,-251.56,o),
(94.55,-240.68,o),
(95.99,-222,cs),
(100.49,-166.5,o),
(102.99,-91,o),
(102.99,-12,cs),
(102.99,90.5,o),
(99.49,200.5,o),
(93.49,277.5,cs),
(92.05,298.68,o),
(79.02,311.06,o),
(64.22,311.06,cs)
);
}
);
width = 148;
}
);
leftKerningGroup = colon;
unicode = 161;
},
{
glyphname = cent;
layers = (
{
hints = (
{
horizontal = 1;
place = (-85,677);
type = Stem;
},
{
place = (23,56);
type = Stem;
},
{
place = (179,54);
type = Stem;
},
{
place = (192,53);
type = Stem;
},
{
place = (301,54);
type = Stem;
}
);
layerId = "5D537C8E-A691-4577-99BE-0854CC36C2B0";
shapes = (
{
closed = 1;
nodes = (
(448.5,258.5,l),
(439,258.5,o),
(427.5,251.5,o),
(420.5,237,cs),
(367.01,125.12,o),
(309.15,70.06,o),
(238.07,59.43,c),
(241.78,138.13,o),
(244.5,218.91,o),
(244.5,316.,cs),
(244.5,361.99,o),
(243.73,405.29,o),
(242.2,444.56,c),
(280.14,439.78,o),
(300.5,416.69,o),
(300.5,375.99,cs),
(300.5,349.99,o),
(307.5,330.99,o),
(326.5,330.99,cs),
(341.5,330.99,o),
(355,346.99,o),
(355,375.99,cs),
(355,447.77,o),
(309.38,491.31,o),
(240.01,496.88,c),
(238.93,520.81,o),
(237.22,542.18,o),
(235.51,560.99,cs),
(233.51,582.49,o),
(221.01,591.99,o),
(209.01,591.99,cs),
(196.51,591.99,o),
(183.51,581.49,o),
(183.51,560.99,cs),
(183.51,550.45,o),
(185.44,531.43,o),
(187.6,491.74,c),
(106.6,467.22,o),
(22.51,366.56,o),
(22.51,233.99,cs),
(22.51,108.3,o),
(89.97,23.08,o),
(181.63,7.91,c),
(179.67,-23.59,o),
(178.52,-44.07,o),
(178.52,-51.51,cs),
(178.52,-73.51,o),
(191.02,-84.51,o),
(204.02,-84.51,cs),
(217.02,-84.51,o),
(230.02,-74.01,o),
(231.52,-51.51,cs),
(232.99,-32.08,o),
(234.19,-12.65,o),
(235.32,6.58,c),
(329.42,15.44,o),
(398.36,78.42,o),
(463.03,204.99,cs),
(471.03,220.49,o),
(472.03,227.49,o),
(472.03,232.99,cs),
(472.03,248.99,o),
(461.03,258.49,o),
(448.53,258.49,c)
);
},
{
closed = 1;
nodes = (
(78.53,233.99,l),
(78.53,336.21,o),
(135.13,411.77,o),
(189.6,436.65,c),
(190.52,404.51,o),
(191.53,364.55,o),
(191.53,316.49,cs),
(191.53,213.86,o),
(188.14,125.21,o),
(184.48,60.68,c),
(123.97,75.29,o),
(78.53,139.18,o),
(78.53,234.,c)
);
}
);
width = 500;
}
);
unicode = 162;
},
{
glyphname = sterling;
layers = (
{
hints = (
{
horizontal = 1;
place = (-8,53);
type = Stem;
},
{
horizontal = 1;
place = (322,49);
type = Stem;
},
{
horizontal = 1;
place = (630,52);
type = Stem;
},
{
place = (106,56);
type = Stem;
},
{
place = (125,56);
type = Stem;
},
{
place = (372,54);
type = Stem;
}
);
layerId = "5D537C8E-A691-4577-99BE-0854CC36C2B0";
shapes = (
{
closed = 1;
nodes = (
(402.5,164,l),
(391,164,o),
(378.5,155,o),
(375,136.5,cs),
(363.5,77,o),
(332,45,o),
(295.5,45,cs),
(259.5,45,o),
(212,61.5,o),
(160,83.5,c),
(176.5,109.5,o),
(181,137.5,o),
(181,182,cs),
(181,218.61,o),
(176.65,270,o),
(172.11,321.91,c),
(232.5,321.5,l),
(252.5,321.5,o),
(263,334,o),
(263,346,cs),
(263,358.5,o),
(252.5,370.5,o),
(232.5,370.5,c),
(167.87,370.94,l),
(164.59,410.2,o),
(161.99,447.08,o),
(161.99,475,cs),
(161.99,579,o),
(206.99,629.5,o),
(283.49,629.5,cs),
(336.49,629.5,o),
(371.99,599,o),
(371.99,563,cs),
(371.99,540.5,o),
(358.49,513,o),
(358.49,502,cs),
(358.49,485,o),
(370.49,475.5,o),
(382.99,475.5,cs),
(393.49,475.5,o),
(404.49,482,o),
(410.49,497,cs),
(419.99,520.5,o),
(425.99,544.5,o),
(425.99,565,cs),
(425.99,628.5,o),
(365.49,682,o),
(283.49,682,cs),
(172.49,682,o),
(105.99,609,o),
(105.99,475,cs),
(105.99,445.06,o),
(108.4,408.9,o),
(111.51,371.31,c),
(84.49,371.49,l),
(65.49,371.49,o),
(55.99,359.49,o),
(55.99,346.99,cs),
(55.99,334.99,o),
(65.49,322.49,o),
(84.49,322.49,c),
(115.78,322.28,l),
(120.43,270.15,o),
(124.99,219.23,o),
(124.99,181.99,cs),
(124.99,109.49,o),
(104.49,98.99,o),
(51.49,68.99,cs),
(34.49,59.49,o),
(27.49,45.49,o),
(27.49,33.49,cs),
(27.49,17.99,o),
(38.99,4.49,o),
(56.99,4.49,cs),
(64.99,4.49,o),
(73.99,6.99,o),
(83.99,12.99,cs),
(103.99,25.49,o),
(115.99,35.49,o),
(126.99,35.49,cs),
(149.49,35.49,o),
(227.49,-7.51,o),
(298.49,-7.51,cs),
(379.49,-7.51,o),
(426.99,84.49,o),
(426.99,134.99,cs),
(426.99,153.99,o),
(415.49,163.99,o),
(402.49,163.99,c)
);
}
);
width = 454;
}
);
unicode = 163;
},
{
glyphname = currency;
layers = (
{
hints = (
{
horizontal = 1;
place = (68,52);
type = Stem;
},
{
horizontal = 1;
place = (477,52);
type = Stem;
},
{
place = (30,56);
type = Stem;
},
{
place = (342,56);
type = Stem;
}
);
layerId = "5D537C8E-A691-4577-99BE-0854CC36C2B0";
shapes = (
{
closed = 1;
nodes = (
(394,65.5,l),
(343.06,134.2,l),
(376.52,175.18,o),
(397.5,233.1,o),
(397.5,302.,cs),
(397.5,376.53,o),
(379.26,433.85,o),
(347.58,472.18,c),
(380.01,514.51,ls),
(385.81,522.31,o),
(388.25,529.89,o),
(388.25,536.58,cs),
(388.25,550.58,o),
(377.55,560.66,o),
(364.54,560.66,cs),
(355.9,560.66,o),
(346.24,556.21,o),
(338.02,545.51,cs),
(308.11,506.27,l),
(283.49,520.96,o),
(254.61,528.5,o),
(222.52,528.5,cs),
(187.78,528.5,o),
(155.13,518.5,o),
(126.94,500.12,c),
(90.02,545.99,ls),
(81.99,556.1,o),
(72.73,560.29,o),
(64.38,560.29,cs),
(51.12,560.29,o),
(40.18,549.73,o),
(40.18,535.55,cs),
(40.18,528.63,o),
(42.79,520.84,o),
(49.02,513.,cs),
(87.06,465.07,l),
(51.87,424.23,o),
(30.02,365.62,o),
(30.02,295.01,cs),
(30.02,220.01,o),
(48.5,162.45,o),
(81.08,124.06,c),
(35.02,65.51,ls),
(28.84,57.49,o),
(26.25,49.63,o),
(26.25,42.69,cs),
(26.25,28.52,o),
(37.05,18.19,o),
(50.1,18.19,cs),
(58.57,18.19,o),
(67.99,22.54,o),
(76.03,33.,cs),
(121.38,90.22,l),
(146.72,75.53,o),
(176.59,68.,o),
(210.03,68.,cs),
(243.42,68.,o),
(275.13,78.23,o),
(302.66,96.92,c),
(350.03,34.5,ls),
(358.33,23.43,o),
(368.05,18.88,o),
(376.8,18.88,cs),
(390.4,18.88,o),
(401.67,29.86,o),
(401.67,44.4,cs),
(401.67,50.94,o),
(399.39,58.2,o),
(394.02,65.5,c)
);
},
{
closed = 1;
nodes = (
(132.02,119.5,o),
(85.52,174,o),
(85.52,295,cs),
(85.52,408,o),
(145.02,476.5,o),
(222.52,476.5,cs),
(294.02,476.5,o),
(342.02,418,o),
(342.02,303.5,cs),
(342.02,188,o),
(283.52,119.5,o),
(210.02,119.5,cs)
);
}
);
width = 431;
}
);
unicode = 164;
},
{
glyphname = yen;
layers = (
{
hints = (
{
horizontal = 1;
place = (-5,21);
target = up;
type = BottomGhost;
},
{
horizontal = 1;
place = (176,45);
type = Stem;
},
{
horizontal = 1;
place = (269,44);
type = Stem;
},
{
place = (165,53);
type = Stem;
}
);
layerId = "5D537C8E-A691-4577-99BE-0854CC36C2B0";
shapes = (
{
closed = 1;
nodes = (
(398,647,o),
(386,656.5,o),
(373,656.5,cs),
(362.5,656.5,o),
(351,650,o),
(342,634,cs),
(294,549,o),
(237.5,434.5,o),
(195,344.5,c),
(146,419,o),
(102,539.5,o),
(82.5,632,cs),
(78.5,651,o),
(65.5,659.5,o),
(53.5,659.5,cs),
(40,659.5,o),
(26.5,649,o),
(26.5,629.5,cs),
(26.5,581.5,o),
(87.02,410.98,o),
(149.61,312.95,c),
(97.5,313.49,l),
(76.5,313.49,o),
(66,302.99,o),
(66,291.49,cs),
(66,280.49,o),
(76.5,268.99,o),
(97.5,268.99,c),
(164.62,268.29,l),
(162.68,251.91,o),
(160.86,236.61,o),
(159.16,222.32,c),
(94.51,222.99,l),
(73.51,222.99,o),
(63.01,212.49,o),
(63.01,200.99,cs),
(63.01,190.49,o),
(73.51,178.49,o),
(94.51,178.49,c),
(153.86,177.87,l),
(140.46,65.67,o),
(136.51,33.63,o),
(136.51,24.99,cs),
(136.51,5.49,o),
(149.01,-4.51,o),
(162.51,-4.51,cs),
(175.51,-4.51,o),
(189.01,4.99,o),
(191.51,24.49,cs),
(210.18,177.28,l),
(286.01,176.49,l),
(307.01,176.49,o),
(316.51,187.99,o),
(316.51,198.99,cs),
(316.51,209.99,o),
(307.01,220.99,o),
(287.01,220.99,c),
(215.61,221.73,l),
(221.23,267.7,l),
(289.02,266.99,l),
(310.02,266.99,o),
(319.52,278.49,o),
(319.52,289.49,cs),
(319.52,300.49,o),
(310.02,311.49,o),
(290.02,311.49,c),
(239.81,312.01,l),
(297.51,434.53,o),
(354.11,542.6,o),
(389.01,604.99,cs),
(395.01,615.49,o),
(398.01,623.49,o),
(398,631,c)
);
}
);
width = 429;
}
);
unicode = 165;
},
{
glyphname = brokenbar;
layers = (
{
hints = (
{
horizontal = 1;
place = (-254,21);
target = up;
type = BottomGhost;
},
{
horizontal = 1;
place = (699,-20);
target = down;
type = TopGhost;
},
{
place = (62,56);
type = Stem;
}
);
layerId = "5D537C8E-A691-4577-99BE-0854CC36C2B0";
shapes = (
{
closed = 1;
nodes = (
(104,298.5,o),
(118,310,o),
(118,332,cs),
(118,464,o),
(113,590,o),
(105.5,670,cs),
(104,689,o),
(90.5,698.5,o),
(77.5,698.5,cs),
(64.5,698.5,o),
(50.5,687.5,o),
(50.5,667,cs),
(50.5,613,o),
(62,515.5,o),
(62,331,cs),
(62,309.5,o),
(76,298.5,o),
(89.5,298.5,cs)
);
},
{
closed = 1;
nodes = (
(91,-253.5,o),
(105,-244,o),
(106,-222.5,cs),
(112,-125,o),
(117.5,23.5,o),
(117.5,112.5,cs),
(117.5,137,o),
(104,149,o),
(90.5,149,cs),
(76,149,o),
(61.5,136.5,o),
(61.5,112.5,cs),
(61.5,-29.5,o),
(50,-198,o),
(50,-222,cs),
(50,-242.5,o),
(64,-253.5,o),
(78,-253.5,cs)
);
}
);
width = 168;
}
);
unicode = 166;
},
{
glyphname = section;
layers = (
{
hints = (
{
horizontal = 1;
place = (-10,51);
type = Stem;
},
{
horizontal = 1;
place = (601,50);
type = Stem;
},
{
place = (47,52);
type = Stem;
},
{
place = (66,52);
type = Stem;
},
{
place = (77,52);
type = Stem;
},
{
place = (246,52);
type = Stem;
},
{
place = (256,53);
type = Stem;
}
);
layerId = "5D537C8E-A691-4577-99BE-0854CC36C2B0";
shapes = (
{
closed = 1;
nodes = (
(308.5,311,l),
(308.5,439,o),
(129,471.5,o),
(129,556.5,cs),
(129,583,o),
(150.5,600.5,o),
(183.5,600.5,cs),
(209.5,600.5,o),
(235,589.5,o),
(255.5,565,c),
(263,556.5,o),
(270.5,552.5,o),
(278,552.5,cs),
(290,552.5,o),
(300,562.5,o),
(300,576,cs),
(300,582.5,o),
(297.5,589.5,o),
(292,597,cs),
(264,634,o),
(223,651,o),
(182.5,651,cs),
(122.5,651,o),
(77,613.5,o),
(77,558,cs),
(77,517.97,o),
(96,488.75,o),
(121.64,463.88,c),
(85.47,438.86,o),
(66.48,406.31,o),
(66.48,367,cs),
(66.48,253.5,o),
(245.98,215,o),
(245.98,116,cs),
(245.98,64.5,o),
(216.48,40.5,o),
(177.48,40.5,cs),
(133.98,40.5,o),
(98.98,69,o),
(98.98,112,cs),
(98.98,125,o),
(102.48,138.5,o),
(102.48,148.5,cs),
(102.48,163.5,o),
(91.98,171,o),
(80.48,171,cs),
(54.48,171,o),
(47.48,138.5,o),
(47.48,110,cs),
(47.48,36,o),
(105.98,-10,o),
(177.98,-10,cs),
(244.48,-10,o),
(297.98,33,o),
(297.98,108,cs),
(297.98,146.93,o),
(284.06,178.05,o),
(263.97,204.43,c),
(292.04,236.43,o),
(308.48,272.52,o),
(308.48,311.01,c)
);
},
{
closed = 1;
nodes = (
(117.98,368.01,l),
(117.98,394.06,o),
(132.21,415.37,o),
(159.73,431.94,c),
(206.81,396,o),
(256.48,363.76,o),
(256.48,308,cs),
(256.48,281.31,o),
(249.7,259.24,o),
(232.52,238.65,c),
(181.05,286.82,o),
(117.98,320.05,o),
(117.98,368.,c)
);
}
);
width = 357;
}
);
unicode = 167;
},
{
glyphname = dieresis;
layers = (
{
hints = (
{
horizontal = 1;
place = (768,65);
type = Stem;
},
{
place = (30,64);
type = Stem;
},
{
place = (157,64);
type = Stem;
}
);
layerId = "5D537C8E-A691-4577-99BE-0854CC36C2B0";
shapes = (
{
closed = 1;
nodes = (
(80,768,o),
(94,782.5,o),
(94,800.5,cs),
(94,818.5,o),
(80,833,o),
(62,833,cs),
(43.5,833,o),
(29.5,818.5,o),
(29.5,800.5,cs),
(29.5,782.5,o),
(43.5,768,o),
(62,768,cs)
);
},
{
closed = 1;
nodes = (
(207,768,o),
(221,782.5,o),
(221,800.5,cs),
(221,818.5,o),
(207,833,o),
(189,833,cs),
(170.5,833,o),
(156.5,818.5,o),
(156.5,800.5,cs),
(156.5,782.5,o),
(170.5,768,o),
(189,768,cs)
);
}
);
width = 256;
}
);
unicode = 168;
},
{
glyphname = copyright;
layers = (
{
hints = (
{
horizontal = 1;
place = (71,46);
type = Stem;
},
{
horizontal = 1;
place = (183,43);
type = Stem;
},
{
horizontal = 1;
place = (425,42);
type = Stem;
},
{
horizontal = 1;
place = (533,45);
type = Stem;
},
{
place = (23,48);
type = Stem;
},
{
place = (157,47);
type = Stem;
},
{
place = (314,41);
type = Stem;
},
{
place = (478,49);
type = Stem;
}
);
layerId = "5D537C8E-A691-4577-99BE-0854CC36C2B0";
shapes = (
{
closed = 1;
nodes = (
(137.5,578,o),
(22.5,462,o),
(22.5,304,cs),
(22.5,161,o),
(114,70.5,o),
(271.5,70.5,cs),
(414.5,70.5,o),
(526.5,182.5,o),
(526.5,347,cs),
(526.5,486.5,o),
(434.5,578,o),
(289,578,cs)
);
},
{
closed = 1;
nodes = (
(405.5,532.5,o),
(477.5,461,o),
(477.5,346.5,cs),
(477.5,207.5,o),
(388,117,o),
(269,117,cs),
(141.5,117,o),
(71,187.5,o),
(71,304,cs),
(71,439.5,o),
(162.5,532.5,o),
(291.5,532.5,cs)
);
},
{
closed = 1;
nodes = (
(334,243.5,o),
(308,226,o),
(274.5,226,cs),
(232.5,226,o),
(203.5,255,o),
(203.5,319,cs),
(203.5,386.5,o),
(242,425,o),
(278.5,425,cs),
(303,425,o),
(314,414,o),
(314,393.5,cs),
(314,377.5,o),
(324,370,o),
(334,370,cs),
(344.5,370,o),
(355,378.5,o),
(355,394.5,cs),
(355,438,o),
(326,466.5,o),
(278.5,466.5,cs),
(216,466.5,o),
(157,407,o),
(157,319,cs),
(157,230.5,o),
(205,183,o),
(272.5,183,cs),
(321.5,183,o),
(361,209.5,o),
(386.5,246,cs),
(393,255,o),
(395,262,o),
(395,267.5,cs),
(395,278,o),
(388,284.5,o),
(379,284.5,cs),
(372.5,284.5,o),
(365,281,o),
(358,272.5,cs)
);
}
);
width = 553;
}
);
unicode = 169;
},
{
glyphname = guillemotleft;
layers = (
{
hints = (
{
horizontal = 1;
place = (169,241);
type = Stem;
},
{
place = (56,274);
type = Stem;
},
{
place = (197,63);
type = Stem;
}
);
layerId = "5D537C8E-A691-4577-99BE-0854CC36C2B0";
shapes = (
{
closed = 1;
nodes = (
(322,174,l),
(326.92,178.22,o),
(329.53,184.08,o),
(329.53,190.82,cs),
(329.53,198.46,o),
(326.17,207.23,o),
(319,216.,cs),
(301.5,237.,o),
(285,258.5,o),
(267.5,279.5,cs),
(262.43,285.78,o),
(259.81,291.6,o),
(259.81,297.4,cs),
(259.81,303.6,o),
(262.81,309.78,o),
(269.01,316.5,cs),
(284.51,333.,o),
(299.51,349.,o),
(315.01,365.5,cs),
(323.28,374.62,o),
(327,383.09,o),
(327,390.36,cs),
(327,395.84,o),
(324.89,400.63,o),
(321.02,404.5,cs),
(317.13,408.39,o),
(312.4,410.35,o),
(307.21,410.35,cs),
(299.73,410.35,o),
(291.29,406.27,o),
(283.02,398,cs),
(257.02,372,o),
(232.52,346.5,o),
(206.52,320.5,cs),
(200,313.98,o),
(196.58,306.57,o),
(196.58,298.92,cs),
(196.58,292.49,o),
(199,285.89,o),
(204.02,279.5,cs),
(229.52,247.5,o),
(255.02,217,o),
(281.52,186,cs),
(291.01,174.88,o),
(300.71,169.11,o),
(309.37,169.11,cs),
(313.94,169.11,o),
(318.22,170.72,o),
(322.02,174,c)
);
},
{
closed = 1;
nodes = (
(168.69,169.41,l),
(181.84,169.41,o),
(188.99,178.3,o),
(188.99,189.98,cs),
(188.99,198,o),
(185.62,207.33,o),
(178.52,216.01,cs),
(161.02,237.01,o),
(144.52,258.51,o),
(127.02,279.51,cs),
(121.95,285.79,o),
(119.33,291.61,o),
(119.33,297.41,cs),
(119.33,303.61,o),
(122.33,309.79,o),
(128.53,316.51,cs),
(144.03,333.01,o),
(159.03,349.01,o),
(174.53,365.51,cs),
(182.76,374.62,o),
(186.67,383.21,o),
(186.67,390.57,cs),
(186.67,395.74,o),
(184.74,400.3,o),
(181.03,404.01,cs),
(176.98,408.06,o),
(172.02,410.2,o),
(166.54,410.2,cs),
(159.17,410.2,o),
(150.85,406.32,o),
(142.53,398.,cs),
(116.53,372.,o),
(92.03,346.5,o),
(66.03,320.5,cs),
(59.51,313.98,o),
(56.09,306.57,o),
(56.09,298.92,cs),
(56.09,292.49,o),
(58.51,285.89,o),
(63.53,279.5,cs),
(89.03,247.5,o),
(115.53,218.,o),
(141.03,186.,cs),
(150.3,174.74,o),
(160.01,169.4,o),
(168.7,169.4,c)
);
}
);
width = 358;
}
);
leftKerningGroup = guillemotleft2;
rightKerningGroup = guillemotleft;
unicode = 171;
},
{
glyphname = logicalnot;
layers = (
{
hints = (
{
horizontal = 1;
place = (310,52);
type = Stem;
},
{
place = (273,50);
type = Stem;
}
);
layerId = "5D537C8E-A691-4577-99BE-0854CC36C2B0";
shapes = (
{
closed = 1;
nodes = (
(323,339.5,ls),
(323,353.5,o),
(314.5,362,o),
(300.5,362,cs),
(59.5,362,ls),
(39,362,o),
(28.5,349,o),
(28.5,336,cs),
(28.5,323,o),
(39,310,o),
(59.5,310,cs),
(259,310,ls),
(267.5,310,o),
(273,304.5,o),
(273,296,cs),
(273,254,ls),
(273,234,o),
(285.5,223.5,o),
(298,223.5,cs),
(310.5,223.5,o),
(323,234,o),
(323,254,cs)
);
}
);
width = 349;
}
);
unicode = 172;
},
{
glyphname = uni00AD;
layers = (
{
hints = (
{
horizontal = 1;
place = (217,45);
type = Stem;
},
{
place = (100,227);
type = Stem;
}
);
layerId = "5D537C8E-A691-4577-99BE-0854CC36C2B0";
shapes = (
{
closed = 1;
nodes = (
(316,215.5,o),
(326.5,227,o),
(326.5,238,cs),
(326.5,250,o),
(316,261.5,o),
(295,261.5,c),
(237,262,o),
(177.5,263.5,o),
(131.5,263.5,cs),
(110.5,263.5,o),
(100,251.5,o),
(100,240,cs),
(100,228.5,o),
(110.5,217,o),
(131.5,217,cs),
(183.5,217,o),
(240,216.5,o),
(295,215.5,c)
);
}
);
width = 397;
}
);
leftKerningGroup = endash;
unicode = 173;
},
{
glyphname = registered;
layers = (
{
hints = (
{
horizontal = 1;
place = (299,41);
type = Stem;
},
{
horizontal = 1;
place = (467,30);
type = Stem;
},
{
horizontal = 1;
place = (552,29);
type = Stem;
},
{
horizontal = 1;
place = (626,41);
type = Stem;
},
{
place = (23,43);
type = Stem;
},
{
place = (150,32);
type = Stem;
},
{
place = (230,31);
type = Stem;
},
{
place = (345,43);
type = Stem;
}
);
layerId = "5D537C8E-A691-4577-99BE-0854CC36C2B0";
shapes = (
{
closed = 1;
nodes = (
(108,667,o),
(23,582,o),
(23,470,cs),
(23,365,o),
(90.5,298.5,o),
(201,298.5,cs),
(305.5,298.5,o),
(387.5,382.5,o),
(387.5,499.5,cs),
(387.5,600,o),
(321,667,o),
(217,667,cs)
);
},
{
closed = 1;
nodes = (
(115.5,339.5,o),
(66,388.5,o),
(66,470,cs),
(66,558.5,o),
(131,626,o),
(217,626,cs),
(297.5,626,o),
(344.5,577,o),
(344.5,499.5,cs),
(344.5,404,o),
(283.5,339.5,o),
(202.5,339.5,cs)
);
},
{
closed = 1;
nodes = (
(232.93,475.01,l),
(250.32,485.45,o),
(261.01,504.77,o),
(261.01,525,cs),
(261.01,556,o),
(239.51,581,o),
(205.01,581,cs),
(188.01,581,o),
(172.01,575.5,o),
(156.01,565.5,c),
(150.01,414.5,ls),
(149.51,402,o),
(157.51,395.5,o),
(165.01,395.5,cs),
(172.51,395.5,o),
(179.51,401,o),
(180.51,413,c),
(183.32,470.87,l),
(190.34,468.47,o),
(197.51,467.02,o),
(203.38,467,c),
(208.98,449.6,o),
(218.91,422.27,o),
(237.02,402,cs),
(242.02,396.5,o),
(247.02,394,o),
(252.02,394,cs),
(260.02,394,o),
(266.52,400,o),
(266.52,408,cs),
(266.52,412.5,o),
(265.52,417,o),
(262.02,421.5,cs),
(247.96,439.51,o),
(240.08,453.28,o),
(232.95,475.01,c)
);
},
{
closed = 1;
nodes = (
(187.02,547,l),
(193.02,550.5,o),
(199.52,552,o),
(206.02,552,cs),
(220.52,552,o),
(229.52,540.5,o),
(229.52,526,cs),
(229.52,509,o),
(219.52,496.5,o),
(203.52,496.5,cs),
(198.18,496.5,o),
(190.22,497.66,o),
(184.75,500.21,c)
);
}
);
width = 413;
}
);
unicode = 174;
},
{
glyphname = macron;
layers = (
{
hints = (
{
horizontal = 1;
place = (782,43);
type = Stem;
},
{
place = (34,199);
type = Stem;
}
);
layerId = "5D537C8E-A691-4577-99BE-0854CC36C2B0";
shapes = (
{
closed = 1;
nodes = (
(204.5,779.5,l),
(223.37,779.5,o),
(232.62,790.11,o),
(232.62,800.79,cs),
(232.62,811.61,o),
(223.12,822.5,o),
(204.5,822.5,c),
(63.5,824.5,ls),
(43.69,824.75,o),
(33.69,814.06,o),
(33.69,803.28,cs),
(33.69,792.56,o),
(43.57,781.75,o),
(63.51,781.5,cs)
);
}
);
width = 265;
}
);
unicode = 175;
},
{
glyphname = degree;
layers = (
{
hints = (
{
horizontal = 1;
place = (481,46);
type = Stem;
},
{
horizontal = 1;
place = (621,46);
type = Stem;
},
{
place = (27,48);
type = Stem;
},
{
place = (171,47);
type = Stem;
}
);
layerId = "5D537C8E-A691-4577-99BE-0854CC36C2B0";
shapes = (
{
closed = 1;
nodes = (
(176,480.5,o),
(217.5,531,o),
(217.5,585,cs),
(217.5,630,o),
(187.5,666.5,o),
(134,666.5,cs),
(69.5,666.5,o),
(26.5,616.5,o),
(26.5,563,cs),
(26.5,517,o),
(58,480.5,o),
(113,480.5,cs)
);
},
{
closed = 1;
nodes = (
(89,526.5,o),
(74.5,543,o),
(74.5,565,cs),
(74.5,593.5,o),
(97,620.5,o),
(131,620.5,cs),
(157,620.5,o),
(170.5,604.5,o),
(170.5,584,cs),
(170.5,555.5,o),
(148,526.5,o),
(116,526.5,cs)
);
}
);
width = 245;
}
);
unicode = 176;
},
{
glyphname = plusminus;
layers = (
{
hints = (
{
horizontal = 1;
place = (175,47);
type = Stem;
},
{
horizontal = 1;
place = (342,46);
type = Stem;
},
{
place = (195,48);
type = Stem;
}
);
layerId = "5D537C8E-A691-4577-99BE-0854CC36C2B0";
shapes = (
{
closed = 1;
nodes = (
(194.17,341.3,l),
(194,283.5,l),
(194,264,o),
(206,254,o),
(218.5,254,cs),
(230.5,254,o),
(242.5,264,o),
(242.5,283,c),
(242.67,341.18,l),
(317,341,l),
(337,341,o),
(347.5,353,o),
(347.5,364.5,cs),
(347.5,376,o),
(337,387.5,o),
(317.5,387.5,c),
(242.8,387.68,l),
(243,456,l),
(243,476,o),
(231,486.5,o),
(219,486.5,cs),
(206.5,486.5,o),
(194.5,476,o),
(194.5,456.5,c),
(194.3,387.8,l),
(114.5,388,l),
(94.5,388,o),
(84.5,376,o),
(84.5,365,cs),
(84.5,353,o),
(94.5,341.5,o),
(114,341.5,c)
);
},
{
closed = 1;
nodes = (
(115.5,222,l),
(95.5,222,o),
(85.5,210,o),
(85.5,199,cs),
(85.5,187,o),
(95.5,175.5,o),
(115,175.5,c),
(316.5,175,l),
(336.5,175,o),
(347,187,o),
(347,198.5,cs),
(347,210,o),
(336.5,221.5,o),
(317,221.5,c)
);
}
);
width = 376;
}
);
unicode = 177;
},
{
glyphname = uni00B2;
layers = (
{
hints = (
{
horizontal = 1;
place = (380,39);
type = Stem;
},
{
horizontal = 1;
place = (664,42);
type = Stem;
},
{
place = (53,39);
type = Stem;
},
{
place = (166,43);
type = Stem;
}
);
layerId = "5D537C8E-A691-4577-99BE-0854CC36C2B0";
shapes = (
{
closed = 1;
nodes = (
(226,379.5,o),
(254.5,425.5,o),
(254.5,445,cs),
(254.5,455.5,o),
(246,462.5,o),
(236.5,462.5,cs),
(230,462.5,o),
(222.5,459,o),
(217.5,449.5,cs),
(206,427.5,o),
(192.5,418.5,o),
(178,418.5,cs),
(160.5,418.5,o),
(143.5,427.5,o),
(126,430,c),
(176.5,481.5,o),
(208.5,556,o),
(208.5,615.5,cs),
(208.5,673.5,o),
(175.5,705.5,o),
(129.5,705.5,cs),
(88.5,705.5,o),
(52.5,675,o),
(52.5,622,cs),
(52.5,606.5,o),
(63,598.5,o),
(72.5,598.5,cs),
(82,598.5,o),
(91.5,606,o),
(91.5,621.5,cs),
(91.5,648.5,o),
(109,664,o),
(128.5,664,cs),
(151,664,o),
(165.5,649.5,o),
(165.5,615.5,cs),
(165.5,554.5,o),
(132,482.5,o),
(85,444,cs),
(76.5,437,o),
(67.5,432.5,o),
(59,429,cs),
(47,424,o),
(41,414.5,o),
(41,405.5,cs),
(41,395,o),
(48.5,385,o),
(63.5,385,cs),
(78,385,o),
(92,394.5,o),
(106.5,394.5,cs),
(129.5,394.5,o),
(151,379.5,o),
(182,379.5,cs)
);
}
);
width = 297;
}
);
leftKerningGroup = uni00B2;
unicode = 178;
},
{
glyphname = uni00B3;
layers = (
{
hints = (
{
horizontal = 1;
place = (380,40);
type = Stem;
},
{
horizontal = 1;
place = (664,40);
type = Stem;
},
{
place = (46,38);
type = Stem;
},
{
place = (157,42);
type = Stem;
},
{
place = (180,43);
type = Stem;
}
);
layerId = "5D537C8E-A691-4577-99BE-0854CC36C2B0";
shapes = (
{
closed = 1;
nodes = (
(186.66,580.41,o),
(199,604.26,o),
(199,629.51,cs),
(199,672.51,o),
(167.5,703.51,o),
(125.5,703.51,cs),
(78,703.51,o),
(45.5,669.51,o),
(45.5,617.51,cs),
(45.5,601.01,o),
(55,592.51,o),
(65,592.51,cs),
(74.5,592.51,o),
(84,601.01,o),
(84,617.01,cs),
(84,646.51,o),
(103,664.01,o),
(124.5,664.01,cs),
(142,664.01,o),
(156.5,651.01,o),
(156.5,628.01,cs),
(156.5,604.51,o),
(146,585.01,o),
(119,576.51,cs),
(107.5,573.01,o),
(102.5,564.01,o),
(102.5,556.51,cs),
(102.5,546.51,o),
(110,537.51,o),
(123,537.51,cs),
(162,537.51,o),
(180,508.51,o),
(180,478.51,cs),
(180,449.01,o),
(161.5,419.51,o),
(126,419.51,cs),
(106,419.51,o),
(88,429.01,o),
(78,446.51,cs),
(72.5,456.01,o),
(65.5,460.01,o),
(58.5,460.01,cs),
(48.5,460.01,o),
(40,451.51,o),
(40,440.01,cs),
(40,410.51,o),
(82,380.01,o),
(126,380.01,cs),
(180.5,380.01,o),
(222.5,421.01,o),
(222.5,478.01,cs),
(222.5,513.24,o),
(203.38,548.16,o),
(165.64,564.15,c)
);
}
);
width = 264;
}
);
leftKerningGroup = uni00B2;
unicode = 179;
},
{
glyphname = acute;
layers = (
{
hints = (
{
horizontal = 1;
place = (764,118);
type = Stem;
},
{
place = (37,113);
type = Stem;
}
);
layerId = "5D537C8E-A691-4577-99BE-0854CC36C2B0";
shapes = (
{
closed = 1;
nodes = (
(47.5,808,ls),
(39.93,800.16,o),
(36.78,792.06,o),
(36.78,785,cs),
(36.78,773.24,o),
(45.52,764.36,o),
(57.11,764.36,cs),
(64.28,764.36,o),
(72.54,767.76,o),
(80.49,775.99,cs),
(138.99,837.49,ls),
(146.61,845.52,o),
(149.79,853.81,o),
(149.79,861.01,cs),
(149.79,872.79,o),
(141.28,881.64,o),
(129.84,881.64,cs),
(122.59,881.64,o),
(114.17,878.09,o),
(105.99,869.48,cs)
);
}
);
width = 190;
}
);
unicode = 180;
},
{
glyphname = paragraph;
layers = (
{
hints = (
{
horizontal = 1;
place = (-11,52);
type = Stem;
},
{
horizontal = 1;
place = (574,50);
type = Stem;
},
{
horizontal = 1;
place = (605,59);
type = Stem;
},
{
place = (30,183);
type = Stem;
},
{
place = (286,56);
type = Stem;
}
);
layerId = "5D537C8E-A691-4577-99BE-0854CC36C2B0";
shapes = (
{
closed = 1;
nodes = (
(421.15,626.52,o),
(410.88,624,o),
(399.01,624,cs),
(330.51,624,o),
(265.51,663.5,o),
(180.51,663.5,cs),
(91.01,663.5,o),
(30.01,603,o),
(30.01,454.5,cs),
(30.01,287,o),
(65.01,251.5,o),
(123.01,251.5,cs),
(181.51,251.5,o),
(212.51,282.5,o),
(212.51,502,cs),
(212.51,592,o),
(225.01,605,o),
(245.01,605,cs),
(257.1,605,o),
(270.06,600.91,o),
(286.1,595.72,c),
(285.95,554.66,o),
(279.7,375.68,o),
(276.01,264.,cs),
(270.51,114.5,o),
(227.51,41.,o),
(173.01,41.,cs),
(140.01,41.,o),
(115.51,62.5,o),
(102.01,117.,cs),
(98.01,134.,o),
(86.01,142.,o),
(75.01,142.,cs),
(62.01,142.,o),
(50.01,131.5,o),
(50.01,113.,cs),
(50.01,58.5,o),
(98.01,-11.,o),
(173.01,-11.,cs),
(264.51,-11.,o),
(325.01,81.,o),
(332.01,262.,cs),
(334.55,327.28,o),
(340.69,511.89,o),
(341.89,580.58,c),
(360.57,577.,o),
(382.42,574.49,o),
(408.5,574.49,cs),
(432.5,574.49,o),
(456.5,583.49,o),
(456.5,604.49,cs),
(456.5,615.74,o),
(447.41,626.51,o),
(432.05,626.52,c)
);
}
);
width = 407;
}
);
unicode = 182;
},
{
glyphname = periodcentered;
layers = (
{
hints = (
{
horizontal = 1;
place = (266,88);
type = Stem;
},
{
place = (30,88);
type = Stem;
}
);
layerId = "5D537C8E-A691-4577-99BE-0854CC36C2B0";
shapes = (
{
closed = 1;
nodes = (
(98,265.5,o),
(117.5,285,o),
(117.5,310,cs),
(117.5,334,o),
(98,353.5,o),
(74,353.5,cs),
(49.5,353.5,o),
(30,334,o),
(30,310,cs),
(30,285,o),
(49.5,265.5,o),
(74,265.5,cs)
);
}
);
width = 148;
}
);
unicode = 183;
},
{
glyphname = cedilla;
layers = (
{
hints = (
{
horizontal = 1;
place = (-184,44);
type = Stem;
},
{
place = (81,44);
type = Stem;
},
{
place = (125,48);
type = Stem;
}
);
layerId = "5D537C8E-A691-4577-99BE-0854CC36C2B0";
shapes = (
{
closed = 1;
nodes = (
(64,-179.5,o),
(81.5,-183.5,o),
(98.5,-183.5,cs),
(145.5,-183.5,o),
(173,-151.5,o),
(173,-118.5,cs),
(173,-99,o),
(163.5,-79.5,o),
(144,-65,cs),
(129.5,-54.5,o),
(124.5,-50,o),
(124.5,-44.5,cs),
(124.5,-37.5,o),
(134.5,-9.5,o),
(137,-2,cs),
(138.11,1.11,o),
(138.61,3.96,o),
(138.61,6.53,cs),
(138.61,16.54,o),
(131.01,22.31,o),
(122.33,22.31,cs),
(114.23,22.31,o),
(105.18,17.28,o),
(100.49,5.99,cs),
(91.49,-15.51,o),
(81.49,-47.51,o),
(81.49,-58.51,cs),
(81.49,-67.01,o),
(89.49,-74.01,o),
(104.99,-85.01,cs),
(118.49,-95.01,o),
(125.49,-104.01,o),
(125.49,-114.51,cs),
(125.49,-128.51,o),
(113.99,-139.51,o),
(96.49,-139.51,cs),
(86.49,-139.51,o),
(74.49,-136.01,o),
(62.99,-130.01,cs),
(58.59,-127.73,o),
(54.5,-126.73,o),
(50.83,-126.73,cs),
(39.46,-126.73,o),
(32.13,-136.31,o),
(32.13,-147.08,cs),
(32.13,-155.73,o),
(36.85,-165.15,o),
(48,-171,cs)
);
}
);
width = 208;
}
);
unicode = 184;
},
{
glyphname = uni00B9;
layers = (
{
hints = (
{
horizontal = 1;
place = (701,-20);
target = down;
type = TopGhost;
},
{
place = (92,54);
type = Stem;
}
);
layerId = "5D537C8E-A691-4577-99BE-0854CC36C2B0";
shapes = (
{
closed = 1;
nodes = (
(124,391.5,o),
(133.5,400.5,o),
(136,419.5,cs),
(143,472.5,o),
(145.5,541.5,o),
(145.5,603.5,cs),
(145.5,629.5,o),
(145,655.5,o),
(144,676,cs),
(143,692.5,o),
(133.5,700.5,o),
(122.5,700.5,cs),
(113,700.5,o),
(103.5,693.5,o),
(97.5,679.5,cs),
(87,654.5,o),
(76.5,638,o),
(52.5,618.5,cs),
(44,611.5,o),
(40.5,604.5,o),
(40.5,598,cs),
(40.5,588,o),
(48,580.5,o),
(58.5,580.5,cs),
(72.5,580.5,o),
(93,601.5,o),
(103,617.5,c),
(104,483,o),
(91.5,430,o),
(91.5,417.5,cs),
(91.5,400,o),
(101.5,391.5,o),
(113,391.5,cs)
);
}
);
width = 189;
}
);
unicode = 185;
},
{
glyphname = guillemotright;
layers = (
{
hints = (
{
horizontal = 1;
place = (169,241);
type = Stem;
},
{
place = (50,274);
type = Stem;
},
{
place = (120,63);
type = Stem;
},
{
place = (261,63);
type = Stem;
}
);
layerId = "5D537C8E-A691-4577-99BE-0854CC36C2B0";
shapes = (
{
closed = 1;
nodes = (
(61.8,170.72,o),
(66.08,169.11,o),
(70.65,169.11,cs),
(79.31,169.11,o),
(89.01,174.88,o),
(98.5,186,cs),
(125.,217,o),
(150.5,247.5,o),
(176.,279.5,cs),
(181.02,285.89,o),
(183.44,292.49,o),
(183.44,298.92,cs),
(183.44,306.57,o),
(180.02,313.98,o),
(173.5,320.5,cs),
(147.5,346.5,o),
(123.,372,o),
(97.,398,cs),
(88.73,406.27,o),
(80.29,410.35,o),
(72.81,410.35,cs),
(67.62,410.35,o),
(62.89,408.39,o),
(59.,404.5,cs),
(55.01,400.51,o),
(52.69,395.45,o),
(52.69,389.7,cs),
(52.69,382.46,o),
(56.36,374.14,o),
(65,365.5,cs),
(81,349.5,o),
(96,333.,o),
(111,316.5,cs),
(117.2,309.52,o),
(120.2,303.35,o),
(120.2,297.22,cs),
(120.2,291.48,o),
(117.58,285.78,o),
(112.51,279.5,cs),
(95.01,258.5,o),
(78.51,237.,o),
(61.01,216.,cs),
(53.84,207.23,o),
(50.48,198.46,o),
(50.48,190.82,cs),
(50.48,184.08,o),
(53.09,178.22,o),
(58,174,cs)
);
},
{
closed = 1;
nodes = (
(199.01,173.5,l),
(202.72,170.63,o),
(206.89,169.19,o),
(211.32,169.19,cs),
(220.02,169.19,o),
(229.73,174.75,o),
(239,186.01,cs),
(264.5,218.01,o),
(291,247.51,o),
(316.5,279.51,cs),
(321.52,285.9,o),
(323.94,292.5,o),
(323.94,298.93,cs),
(323.94,306.58,o),
(320.52,313.99,o),
(314,320.51,cs),
(288,346.51,o),
(263.5,372.01,o),
(237.5,398.01,cs),
(229.18,406.33,o),
(220.86,410.21,o),
(213.49,410.21,cs),
(208.01,410.21,o),
(203.05,408.07,o),
(199.,404.02,cs),
(195.17,400.19,o),
(193.06,395.36,o),
(193.06,389.92,cs),
(193.06,382.58,o),
(196.89,374.13,o),
(205.5,365.52,cs),
(221.5,349.52,o),
(236.5,333.02,o),
(251.5,316.52,cs),
(257.7,309.54,o),
(260.7,303.37,o),
(260.7,297.24,cs),
(260.7,291.5,o),
(258.08,285.8,o),
(253.01,279.52,cs),
(235.51,258.52,o),
(219.01,237.02,o),
(201.51,216.02,cs),
(194.41,207.35,o),
(191.04,198.4,o),
(191.04,190.63,cs),
(191.04,183.61,o),
(193.78,177.55,o),
(199.,173.52,c)
);
}
);
width = 362;
}
);
leftKerningGroup = guillemotright;
unicode = 187;
},
{
glyphname = onequarter;
layers = (
{
hints = (
{
horizontal = 1;
place = (-2,21);
target = up;
type = BottomGhost;
},
{
horizontal = 1;
place = (-1,21);
target = up;
type = BottomGhost;
},
{
horizontal = 1;
place = (128,40);
type = Stem;
},
{
place = (105,54);
type = Stem;
},
{
place = (344,42);
type = Stem;
},
{
place = (425,43);
type = Stem;
}
);
layerId = "5D537C8E-A691-4577-99BE-0854CC36C2B0";
shapes = (
{
closed = 1;
nodes = (
(442,651.5,o),
(433.5,660,o),
(422.5,660,cs),
(415,660,o),
(405,655.5,o),
(395.5,644.5,cs),
(290,521.5,o),
(146,168,o),
(53.5,45.5,cs),
(47,37,o),
(44.5,28.5,o),
(44.5,21,cs),
(44.5,8.5,o),
(53,-0.5,o),
(64.5,-0.5,cs),
(72.5,-0.5,o),
(82.5,4.5,o),
(91,16,cs),
(191,153,o),
(319,473,o),
(430.5,612.5,cs),
(438.5,622.5,o),
(442,632,o),
(442,639.5,cs)
);
},
{
closed = 1;
nodes = (
(85.5,538.5,o),
(106,559.5,o),
(116,575.5,c),
(117,441,o),
(104.5,388,o),
(104.5,375.5,cs),
(104.5,358,o),
(114.5,349.5,o),
(126,349.5,cs),
(137,349.5,o),
(146.5,358.5,o),
(149,377.5,cs),
(156,430.5,o),
(158.5,499.5,o),
(158.5,561.5,cs),
(158.5,587.5,o),
(158,613.5,o),
(157,634,cs),
(156,650.5,o),
(146.5,658.5,o),
(135.5,658.5,cs),
(126,658.5,o),
(116.5,651.5,o),
(110.5,637.5,cs),
(100,612.5,o),
(89.5,596,o),
(65.5,576.5,cs),
(57,569.5,o),
(53.5,562.5,o),
(53.5,556,cs),
(53.5,546,o),
(61,538.5,o),
(71.5,538.5,cs)
);
},
{
closed = 1;
nodes = (
(510,147,l),
(498.49,151.93,o),
(487.41,155.89,o),
(476.55,158.98,c),
(482.25,204.35,o),
(488.51,233.66,o),
(488.51,244.99,cs),
(488.51,261.49,o),
(479.01,269.99,o),
(469.01,269.99,cs),
(459.51,269.99,o),
(449.01,261.49,o),
(445.51,243.49,cs),
(442,224.82,o),
(438.08,197.06,o),
(434.61,166.91,c),
(426.81,167.65,o),
(418.97,168.,o),
(411.02,168.,cs),
(398.02,168.,o),
(385.02,167.,o),
(372.02,165.,c),
(380.52,196.5,o),
(386.02,232.5,o),
(386.02,266.5,cs),
(386.02,296.,o),
(384.52,330.,o),
(361.52,330.,cs),
(351.02,330.,o),
(341.02,321.5,o),
(341.02,307.5,cs),
(341.02,295.96,o),
(343.58,275.9,o),
(343.58,258.72,cs),
(343.58,220.52,o),
(337.61,178.3,o),
(321.53,155.99,cs),
(317.03,149.49,o),
(314.53,142.49,o),
(314.53,136.49,cs),
(314.53,123.99,o),
(324.03,114.49,o),
(338.53,114.49,cs),
(353.53,114.49,o),
(372.53,127.99,o),
(412.03,127.99,cs),
(418.53,127.99,o),
(424.66,127.62,o),
(430.44,126.98,c),
(426.72,87.57,o),
(424.33,48.97,o),
(425.04,24.97,c),
(425.04,7.97,o),
(436.04,-1.53,o),
(446.54,-1.53,cs),
(457.04,-1.53,o),
(467.54,7.97,o),
(467.54,27.47,c),
(467.95,60.8,o),
(469.72,90.71,o),
(472.07,116.98,c),
(487.95,111.27,o),
(499.42,105.47,o),
(508.05,105.47,cs),
(520.05,105.47,o),
(527.05,113.97,o),
(527.05,123.47,cs),
(527.05,131.47,o),
(522.05,141.47,o),
(510.05,146.97,c)
);
}
);
width = 575;
}
);
leftKerningGroup = onehalf;
unicode = 188;
},
{
glyphname = onehalf;
layers = (
{
hints = (
{
horizontal = 1;
place = (-2,40);
type = Stem;
},
{
horizontal = 1;
place = (283,42);
type = Stem;
},
{
place = (104,54);
type = Stem;
},
{
place = (315,39);
type = Stem;
},
{
place = (428,43);
type = Stem;
}
);
layerId = "5D537C8E-A691-4577-99BE-0854CC36C2B0";
shapes = (
{
closed = 1;
nodes = (
(190,153,o),
(318,473,o),
(429.5,612.5,cs),
(437.5,622.5,o),
(441,632,o),
(441,639.5,cs),
(441,651.5,o),
(432.5,660,o),
(421.5,660,cs),
(414,660,o),
(404,655.5,o),
(394.5,644.5,cs),
(289,521.5,o),
(145,168,o),
(52.5,45.5,cs),
(46,37,o),
(43.5,28.5,o),
(43.5,21,cs),
(43.5,8.5,o),
(52,-0.5,o),
(63.5,-0.5,cs),
(71.5,-0.5,o),
(81.5,4.5,o),
(90,16,cs)
);
},
{
closed = 1;
nodes = (
(136.5,350.5,o),
(146,359.5,o),
(148.5,378.5,cs),
(155.5,431.5,o),
(158,500.5,o),
(158,562.5,cs),
(158,588.5,o),
(157.5,614.5,o),
(156.5,635,cs),
(155.5,651.5,o),
(146,659.5,o),
(135,659.5,cs),
(125.5,659.5,o),
(116,652.5,o),
(110,638.5,cs),
(99.5,613.5,o),
(89,597,o),
(65,577.5,cs),
(56.5,570.5,o),
(53,563.5,o),
(53,557,cs),
(53,547,o),
(60.5,539.5,o),
(71,539.5,cs),
(85,539.5,o),
(105.5,560.5,o),
(115.5,576.5,c),
(116.5,442,o),
(104,389,o),
(104,376.5,cs),
(104,359,o),
(114,350.5,o),
(125.5,350.5,cs)
);
},
{
closed = 1;
nodes = (
(488.5,-1.5,o),
(517,44.5,o),
(517,64,cs),
(517,74.5,o),
(508.5,81.5,o),
(499,81.5,cs),
(492.5,81.5,o),
(485,78,o),
(480,68.5,cs),
(468.5,46.5,o),
(455,37.5,o),
(440.5,37.5,cs),
(423,37.5,o),
(406,46.5,o),
(388.5,49,c),
(439,100.5,o),
(471,175,o),
(471,234.5,cs),
(471,292.5,o),
(438,324.5,o),
(392,324.5,cs),
(351,324.5,o),
(315,294,o),
(315,241,cs),
(315,225.5,o),
(325.5,217.5,o),
(335,217.5,cs),
(344.5,217.5,o),
(354,225,o),
(354,240.5,cs),
(354,267.5,o),
(371.5,283,o),
(391,283,cs),
(413.5,283,o),
(428,268.5,o),
(428,234.5,cs),
(428,173.5,o),
(394.5,101.5,o),
(347.5,63,cs),
(339,56,o),
(330,51.5,o),
(321.5,48,cs),
(309.5,43,o),
(303.5,33.5,o),
(303.5,24.5,cs),
(303.5,14,o),
(311,4,o),
(326,4,cs),
(340.5,4,o),
(354.5,13.5,o),
(369,13.5,cs),
(392,13.5,o),
(413.5,-1.5,o),
(444.5,-1.5,cs)
);
}
);
width = 559;
}
);
leftKerningGroup = onehalf;
unicode = 189;
},
{
glyphname = threequarters;
layers = (
{
hints = (
{
horizontal = 1;
place = (0,21);
target = up;
type = BottomGhost;
},
{
horizontal = 1;
place = (1,21);
target = up;
type = BottomGhost;
},
{
horizontal = 1;
place = (131,40);
type = Stem;
},
{
horizontal = 1;
place = (338,40);
type = Stem;
},
{
horizontal = 1;
place = (622,40);
type = Stem;
},
{
place = (31,38);
type = Stem;
},
{
place = (142,42);
type = Stem;
},
{
place = (165,43);
type = Stem;
},
{
place = (365,42);
type = Stem;
},
{
place = (446,42);
type = Stem;
}
);
layerId = "5D537C8E-A691-4577-99BE-0854CC36C2B0";
shapes = (
{
closed = 1;
nodes = (
(207.5,471.23,o),
(188.38,506.15,o),
(150.64,522.15,c),
(171.66,538.41,o),
(184,562.26,o),
(184,587.51,cs),
(184,630.51,o),
(152.5,661.51,o),
(110.5,661.51,cs),
(63,661.51,o),
(30.5,627.51,o),
(30.5,575.51,cs),
(30.5,559.01,o),
(40,550.51,o),
(50,550.51,cs),
(59.5,550.51,o),
(69,559.01,o),
(69,575.01,cs),
(69,604.51,o),
(88,622.01,o),
(109.5,622.01,cs),
(127,622.01,o),
(141.5,609.01,o),
(141.5,586.01,cs),
(141.5,562.51,o),
(131,542.51,o),
(104,534.51,cs),
(92.5,531.01,o),
(87.5,522.01,o),
(87.5,514.51,cs),
(87.5,504.51,o),
(95,495.51,o),
(108,495.51,cs),
(147,495.51,o),
(165,466.51,o),
(165,436.51,cs),
(165,407.01,o),
(146.5,377.51,o),
(111,377.51,cs),
(91,377.51,o),
(73,387.01,o),
(63,404.51,cs),
(57.5,414.01,o),
(50.5,418.01,o),
(43.5,418.01,cs),
(33.5,418.01,o),
(25,409.51,o),
(25,398.01,cs),
(25,368.51,o),
(67,338.01,o),
(111,338.01,cs),
(165.5,338.01,o),
(207.5,379.01,o),
(207.5,436,cs)
);
},
{
closed = 1;
nodes = (
(461,651.51,o),
(452.5,660.01,o),
(441.5,660.01,cs),
(434,660.01,o),
(424,655.51,o),
(414.5,644.51,cs),
(309,521.51,o),
(165,168.01,o),
(72.5,45.51,cs),
(66,37.01,o),
(63.5,28.51,o),
(63.5,21.01,cs),
(63.5,8.51,o),
(72,-0.49,o),
(83.5,-0.49,cs),
(91.5,-0.49,o),
(101.5,4.51,o),
(110,16.01,cs),
(210,153.01,o),
(338,473.01,o),
(449.5,612.51,cs),
(457.5,622.51,o),
(461,632.01,o),
(461,639.51,cs)
);
},
{
closed = 1;
nodes = (
(519.56,154.41,o),
(508.54,158.35,o),
(497.74,161.43,c),
(503.39,206.84,o),
(509.49,236.17,o),
(509.49,247.51,cs),
(509.49,264.01,o),
(499.99,272.51,o),
(489.99,272.51,cs),
(480.49,272.51,o),
(469.99,264.01,o),
(466.49,246.01,cs),
(462.79,227.35,o),
(458.75,199.6,o),
(455.23,169.46,c),
(447.54,170.18,o),
(439.82,170.52,o),
(431.99,170.52,cs),
(418.99,170.52,o),
(405.99,169.52,o),
(392.99,167.52,c),
(401.49,199.02,o),
(406.99,235.02,o),
(406.99,269.02,cs),
(406.99,298.52,o),
(405.49,332.52,o),
(382.49,332.52,cs),
(371.99,332.52,o),
(361.99,324.02,o),
(361.99,310.02,cs),
(361.99,298.48,o),
(364.55,278.42,o),
(364.55,261.24,cs),
(364.55,223,o),
(358.06,181.34,o),
(342.5,158.52,cs),
(338.,152.02,o),
(335.5,145.02,o),
(335.5,139.02,cs),
(335.5,126.52,o),
(345.,117.02,o),
(359.5,117.02,cs),
(374.5,117.02,o),
(393.5,130.52,o),
(433.,130.52,cs),
(439.36,130.52,o),
(445.36,130.17,o),
(451.03,129.56,c),
(447.32,90.14,o),
(445.05,51.53,o),
(445.99,27.53,cs),
(446.49,10.53,o),
(456.99,1.03,o),
(467.49,1.03,cs),
(477.99,1.03,o),
(488.49,10.53,o),
(488.49,30.03,c),
(489.04,63.33,o),
(490.87,93.21,o),
(493.23,119.46,c),
(509.,113.77,o),
(520.41,108.02,o),
(529.,108.02,cs),
(541.,108.02,o),
(548.,116.52,o),
(548.,126.02,cs),
(548.,134.02,o),
(543.,144.02,o),
(531,149.51,cs)
);
}
);
width = 621;
}
);
unicode = 190;
},
{
glyphname = questiondown;
layers = (
{
hints = (
{
horizontal = 1;
place = (-252,52);
type = Stem;
},
{
horizontal = 1;
place = (376,86);
type = Stem;
},
{
place = (28,57);
type = Stem;
},
{
place = (170,85);
type = Stem;
},
{
place = (186,56);
type = Stem;
},
{
place = (283,56);
type = Stem;
}
);
layerId = "5D537C8E-A691-4577-99BE-0854CC36C2B0";
shapes = (
{
closed = 1;
nodes = (
(188.5,461.5,o),
(169.5,442.5,o),
(169.5,418,cs),
(169.5,394.5,o),
(188.5,375.5,o),
(212,375.5,cs),
(236,375.5,o),
(255,394.5,o),
(255,418,cs),
(255,442.5,o),
(236,461.5,o),
(212,461.5,cs)
);
},
{
closed = 1;
nodes = (
(200,298.5,o),
(186,287,o),
(186,263.5,cs),
(186,184,o),
(157,137.5,o),
(124.5,96.5,cs),
(80.5,40.5,o),
(27.5,-3.5,o),
(27.5,-101,cs),
(27.5,-203,o),
(107,-252,o),
(185.5,-252,cs),
(263,-252,o),
(339,-205,o),
(339,-115,cs),
(339,-88,o),
(330.5,-47.5,o),
(303,-47.5,cs),
(290,-47.5,o),
(278,-57,o),
(278,-75,cs),
(278,-83.5,o),
(283,-100.5,o),
(283,-112.5,cs),
(283,-168.5,o),
(233.5,-199.5,o),
(183.5,-199.5,cs),
(134.5,-199.5,o),
(84.5,-169,o),
(84.5,-101,cs),
(84.5,-31.5,o),
(123,8.5,o),
(162,56,cs),
(201,104,o),
(241.5,159,o),
(241.5,263.5,cs),
(241.5,286.5,o),
(227.5,298.5,o),
(213.5,298.5,cs)
);
}
);
width = 365;
}
);
unicode = 191;
},
{
glyphname = Agrave;
layers = (
{
anchors = (
{
name = t.uni0302_2;
position = "{612, 700}";
}
);
hints = (
{
horizontal = 1;
place = (-2,53);
type = Stem;
},
{
horizontal = 1;
place = (-1,53);
type = Stem;
},
{
horizontal = 1;
place = (265,50);
type = Stem;
},
{
horizontal = 1;
place = (266,52);
type = Stem;
},
{
horizontal = 1;
place = (623,82);
type = Stem;
},
{
horizontal = 1;
place = (705,-20);
target = down;
type = TopGhost;
},
{
place = (536,59);
type = Stem;
}
);
layerId = "5D537C8E-A691-4577-99BE-0854CC36C2B0";
shapes = (
{
closed = 1;
nodes = (
(593.5,776,ls),
(601.45,767.77,o),
(609.71,764.37,o),
(616.88,764.37,cs),
(628.47,764.37,o),
(637.21,773.25,o),
(637.21,785.01,cs),
(637.21,792.07,o),
(634.06,800.17,o),
(626.49,808.01,cs),
(567.99,869.51,ls),
(559.81,878.12,o),
(551.39,881.67,o),
(544.14,881.67,cs),
(532.7,881.67,o),
(524.19,872.82,o),
(524.19,861.04,cs),
(524.19,853.84,o),
(527.37,845.55,o),
(534.99,837.52,cs)
);
},
{
closed = 1;
nodes = (
(754.99,223.02,l),
(717.49,133.52,o),
(677.49,52.02,o),
(642.49,52.02,cs),
(610.99,52.02,o),
(594.99,103.02,o),
(594.99,227.02,cs),
(594.99,410.02,o),
(644.99,620.02,o),
(644.99,671.52,cs),
(644.99,691.02,o),
(630.99,704.52,o),
(608.99,704.52,cs),
(548.99,704.52,o),
(478.99,587.52,o),
(380.99,367.02,cs),
(373.14,349.45,o),
(365.46,332.34,o),
(357.91,315.77,c),
(343.64,315.47,o),
(329.53,315.31,o),
(315.71,315.31,cs),
(290.21,315.31,o),
(265.7,315.85,o),
(243.,317.02,cs),
(227.06,318.08,o),
(215.36,306.72,o),
(215.36,290.79,cs),
(215.36,277.54,o),
(225.58,266.95,o),
(241.5,266.01,cs),
(270.26,264.59,o),
(301.66,264.18,o),
(334.12,264.59,c),
(272.79,136.06,o),
(217.18,50.52,o),
(140.99,50.52,cs),
(85.99,50.52,o),
(72.49,93.52,o),
(47.99,93.52,cs),
(36.49,93.52,o),
(26.49,83.02,o),
(26.49,68.52,cs),
(26.49,36.02,o),
(76.99,-2.48,o),
(140.99,-2.48,cs),
(263.29,-2.48,o),
(331.58,118.08,o),
(399.38,266.41,c),
(446.88,268.41,o),
(494.44,271.83,o),
(537.45,276.08,c),
(536.52,254.73,o),
(536.,232.83,o),
(536.,210.52,cs),
(536.,44.02,o),
(582.5,-0.98,o),
(642.5,-0.98,cs),
(709.,-0.98,o),
(756.5,99.52,o),
(797.,204.02,cs),
(799.14,209.55,o),
(800.08,214.69,o),
(800.08,219.31,cs),
(800.08,234.11,o),
(790.42,243.59,o),
(779.49,243.59,cs),
(770.7,243.59,o),
(761.08,237.45,o),
(755.,223.01,c)
);
},
{
closed = 1;
nodes = (
(503.39,322.96,o),
(463.15,320.02,o),
(422.63,318.05,c),
(428.37,330.94,o),
(434.15,343.94,o),
(440.,357.01,cs),
(494.,479.01,o),
(562.,622.51,o),
(579.,622.51,cs),
(588.46,622.51,o),
(553.23,497.57,o),
(540.46,326.55,c)
);
}
);
width = 731;
}
);
leftKerningGroup = A2;
rightKerningGroup = A;
unicode = 192;
},
{
glyphname = Aacute;
layers = (
{
anchors = (
{
name = t.uni0302_2;
position = "{612, 700}";
}
);
hints = (
{
horizontal = 1;
place = (-3,53);
type = Stem;
},
{
horizontal = 1;
place = (-1,53);
type = Stem;
},
{
horizontal = 1;
place = (265,50);
type = Stem;
},
{
horizontal = 1;
place = (266,52);
type = Stem;
},
{
horizontal = 1;
place = (622,82);
type = Stem;
},
{
horizontal = 1;
place = (704,-20);
target = down;
type = TopGhost;
},
{
place = (536,59);
type = Stem;
}
);
layerId = "5D537C8E-A691-4577-99BE-0854CC36C2B0";
shapes = (
{
closed = 1;
nodes = (
(631,776,l),
(689.5,837.5,ls),
(697.12,845.53,o),
(700.3,853.82,o),
(700.3,861.02,cs),
(700.3,872.8,o),
(691.79,881.65,o),
(680.35,881.65,cs),
(673.1,881.65,o),
(664.68,878.1,o),
(656.5,869.49,cs),
(598,807.99,ls),
(590.43,800.15,o),
(587.28,792.05,o),
(587.28,784.99,cs),
(587.28,773.23,o),
(596.02,764.35,o),
(607.61,764.35,cs),
(614.78,764.35,o),
(623.04,767.75,o),
(630.99,775.98,c)
);
},
{
closed = 1;
nodes = (
(754.99,222.98,l),
(717.49,133.48,o),
(677.49,51.98,o),
(642.49,51.98,cs),
(610.99,51.98,o),
(594.99,102.98,o),
(594.99,226.98,cs),
(594.99,409.98,o),
(644.99,619.98,o),
(644.99,671.48,cs),
(644.99,690.98,o),
(630.99,704.48,o),
(608.99,704.48,cs),
(548.99,704.48,o),
(478.99,587.48,o),
(380.99,366.98,cs),
(373.14,349.41,o),
(365.46,332.3,o),
(357.91,315.73,c),
(343.64,315.43,o),
(329.53,315.27,o),
(315.71,315.27,cs),
(290.21,315.27,o),
(265.7,315.81,o),
(243.,316.98,cs),
(227.06,318.04,o),
(215.36,306.68,o),
(215.36,290.75,cs),
(215.36,277.5,o),
(225.58,266.91,o),
(241.5,265.97,cs),
(270.26,264.55,o),
(301.66,264.14,o),
(334.12,264.55,c),
(272.79,136.02,o),
(217.18,50.48,o),
(140.99,50.48,cs),
(85.99,50.48,o),
(72.49,93.48,o),
(47.99,93.48,cs),
(36.49,93.48,o),
(26.49,82.98,o),
(26.49,68.48,cs),
(26.49,35.98,o),
(76.99,-2.52,o),
(140.99,-2.52,cs),
(263.29,-2.52,o),
(331.58,118.04,o),
(399.38,266.37,c),
(446.88,268.37,o),
(494.44,271.79,o),
(537.45,276.04,c),
(536.52,254.69,o),
(536.,232.79,o),
(536.,210.48,cs),
(536.,43.98,o),
(582.5,-1.02,o),
(642.5,-1.02,cs),
(709.,-1.02,o),
(756.5,99.48,o),
(797.,203.98,cs),
(799.14,209.51,o),
(800.08,214.65,o),
(800.08,219.27,cs),
(800.08,234.07,o),
(790.42,243.55,o),
(779.49,243.55,cs),
(770.7,243.55,o),
(761.08,237.41,o),
(755.,222.97,c)
);
},
{
closed = 1;
nodes = (
(503.39,322.92,o),
(463.15,319.98,o),
(422.63,318.01,c),
(428.37,330.9,o),
(434.15,343.9,o),
(440.,356.97,cs),
(494.,478.97,o),
(562.,622.47,o),
(579.,622.47,cs),
(588.46,622.47,o),
(553.23,497.53,o),
(540.46,326.51,c)
);
}
);
width = 731;
}
);
leftKerningGroup = A2;
rightKerningGroup = A;
unicode = 193;
},
{
glyphname = Acircumflex;
layers = (
{
anchors = (
{
name = t.uni0302_2;
position = "{612, 700}";
}
);
hints = (
{
horizontal = 1;
place = (-3,53);
type = Stem;
},
{
horizontal = 1;
place = (-1,53);
type = Stem;
},
{
horizontal = 1;
place = (265,50);
type = Stem;
},
{
horizontal = 1;
place = (266,52);
type = Stem;
},
{
horizontal = 1;
place = (622,82);
type = Stem;
},
{
horizontal = 1;
place = (704,-20);
target = down;
type = TopGhost;
},
{
place = (536,59);
type = Stem;
}
);
layerId = "5D537C8E-A691-4577-99BE-0854CC36C2B0";
shapes = (
{
closed = 1;
nodes = (
(613,812.5,ls),
(618.5,816.33,o),
(622.97,818.33,o),
(627.07,818.33,cs),
(631.54,818.33,o),
(635.56,815.96,o),
(639.99,811.01,cs),
(672.49,775.01,ls),
(679.87,766.77,o),
(687.82,763.37,o),
(694.84,763.37,cs),
(706.35,763.37,o),
(715.38,772.48,o),
(715.38,784.36,cs),
(715.38,790.76,o),
(712.76,797.97,o),
(706.49,804.99,cs),
(649.99,869.49,ls),
(645.49,874.55,o),
(641.15,877.08,o),
(636.25,877.08,cs),
(632.44,877.08,o),
(628.3,875.55,o),
(623.49,872.49,c),
(533.99,811.99,ls),
(522.69,804.46,o),
(518.09,795.53,o),
(518.09,787.67,cs),
(518.09,776.61,o),
(527.19,767.65,o),
(539.52,767.65,cs),
(545.18,767.65,o),
(551.53,769.54,o),
(558,774,c)
);
},
{
closed = 1;
nodes = (
(754.99,222.99,l),
(717.49,133.49,o),
(677.49,51.99,o),
(642.49,51.99,cs),
(610.99,51.99,o),
(594.99,102.99,o),
(594.99,226.99,cs),
(594.99,409.99,o),
(644.99,619.99,o),
(644.99,671.49,cs),
(644.99,690.99,o),
(630.99,704.49,o),
(608.99,704.49,cs),
(548.99,704.49,o),
(478.99,587.49,o),
(380.99,366.99,cs),
(373.14,349.42,o),
(365.46,332.31,o),
(357.91,315.74,c),
(343.64,315.44,o),
(329.53,315.28,o),
(315.71,315.28,cs),
(290.21,315.28,o),
(265.7,315.82,o),
(243.,316.99,cs),
(227.06,318.05,o),
(215.36,306.69,o),
(215.36,290.76,cs),
(215.36,277.51,o),
(225.58,266.92,o),
(241.5,265.98,cs),
(270.26,264.56,o),
(301.66,264.15,o),
(334.12,264.56,c),
(272.79,136.03,o),
(217.18,50.49,o),
(140.99,50.49,cs),
(85.99,50.49,o),
(72.49,93.49,o),
(47.99,93.49,cs),
(36.49,93.49,o),
(26.49,82.99,o),
(26.49,68.49,cs),
(26.49,35.99,o),
(76.99,-2.51,o),
(140.99,-2.51,cs),
(263.29,-2.51,o),
(331.58,118.05,o),
(399.38,266.38,c),
(446.88,268.38,o),
(494.44,271.8,o),
(537.45,276.05,c),
(536.52,254.7,o),
(536.,232.8,o),
(536.,210.49,cs),
(536.,43.99,o),
(582.5,-1.01,o),
(642.5,-1.01,cs),
(709.,-1.01,o),
(756.5,99.49,o),
(797.,203.99,cs),
(799.14,209.52,o),
(800.08,214.66,o),
(800.08,219.28,cs),
(800.08,234.08,o),
(790.42,243.56,o),
(779.49,243.56,cs),
(770.7,243.56,o),
(761.08,237.42,o),
(755.,222.98,c)
);
},
{
closed = 1;
nodes = (
(503.39,322.93,o),
(463.15,319.99,o),
(422.63,318.02,c),
(428.37,330.91,o),
(434.15,343.91,o),
(440.,356.98,cs),
(494.,478.98,o),
(562.,622.48,o),
(579.,622.48,cs),
(588.46,622.48,o),
(553.23,497.54,o),
(540.46,326.52,c)
);
}
);
width = 731;
}
);
leftKerningGroup = A2;
rightKerningGroup = A;
unicode = 194;
},
{
glyphname = Atilde;
layers = (
{
anchors = (
{
name = t.uni0302_2;
position = "{612, 700}";
}
);
hints = (
{
horizontal = 1;
place = (-2,53);
type = Stem;
},
{
horizontal = 1;
place = (-1,53);
type = Stem;
},
{
horizontal = 1;
place = (265,50);
type = Stem;
},
{
horizontal = 1;
place = (266,52);
type = Stem;
},
{
horizontal = 1;
place = (622,83);
type = Stem;
},
{
horizontal = 1;
place = (705,-20);
target = down;
type = TopGhost;
},
{
horizontal = 1;
place = (773,43);
type = Stem;
},
{
horizontal = 1;
place = (805,43);
type = Stem;
},
{
place = (536,59);
type = Stem;
}
);
layerId = "5D537C8E-A691-4577-99BE-0854CC36C2B0";
shapes = (
{
closed = 1;
nodes = (
(561.5,801.5,o),
(568,805,o),
(576,805,cs),
(603,805,o),
(629.5,772.5,o),
(667,772.5,cs),
(688,772.5,o),
(706.5,781,o),
(721.5,800.5,cs),
(727.23,808.18,o),
(729.6,815.47,o),
(729.6,821.72,cs),
(729.6,833.45,o),
(721.24,841.5,o),
(711.03,841.5,cs),
(704.37,841.5,o),
(696.92,838.07,o),
(690.5,830.01,cs),
(682.5,820.01,o),
(675.5,816.01,o),
(668.,816.01,cs),
(643.5,816.01,o),
(619.5,848.01,o),
(577.,848.01,cs),
(554.,848.01,o),
(533.,838.51,o),
(520.5,820.01,cs),
(515.45,812.67,o),
(513.32,805.53,o),
(513.32,799.31,cs),
(513.32,787.23,o),
(521.35,778.59,o),
(531.6,778.59,cs),
(538.01,778.59,o),
(545.29,781.97,o),
(552,790,cs)
);
},
{
closed = 1;
nodes = (
(755.01,223.01,l),
(717.51,133.51,o),
(677.51,52.01,o),
(642.51,52.01,cs),
(611.01,52.01,o),
(595.01,103.01,o),
(595.01,227.01,cs),
(595.01,410.01,o),
(645.01,620.01,o),
(645.01,671.51,cs),
(645.01,691.01,o),
(631.01,704.51,o),
(609.01,704.51,cs),
(549.01,704.51,o),
(479.01,587.51,o),
(381.01,367.01,cs),
(373.16,349.44,o),
(365.48,332.33,o),
(357.93,315.76,c),
(343.66,315.46,o),
(329.55,315.3,o),
(315.73,315.3,cs),
(290.23,315.3,o),
(265.72,315.84,o),
(243.02,317.01,cs),
(227.08,318.07,o),
(215.38,306.71,o),
(215.38,290.78,cs),
(215.38,277.53,o),
(225.6,266.94,o),
(241.52,266.,cs),
(270.28,264.58,o),
(301.68,264.17,o),
(334.14,264.58,c),
(272.81,136.05,o),
(217.2,50.51,o),
(141.01,50.51,cs),
(86.01,50.51,o),
(72.51,93.51,o),
(48.01,93.51,cs),
(36.51,93.51,o),
(26.51,83.01,o),
(26.51,68.51,cs),
(26.51,36.01,o),
(77.01,-2.49,o),
(141.01,-2.49,cs),
(263.31,-2.49,o),
(331.6,118.07,o),
(399.4,266.4,c),
(446.9,268.4,o),
(494.46,271.82,o),
(537.47,276.07,c),
(536.54,254.72,o),
(536.02,232.82,o),
(536.02,210.51,cs),
(536.02,44.01,o),
(582.52,-0.99,o),
(642.52,-0.99,cs),
(709.02,-0.99,o),
(756.52,99.51,o),
(797.02,204.01,cs),
(799.16,209.54,o),
(800.1,214.68,o),
(800.1,219.3,cs),
(800.1,234.1,o),
(790.44,243.58,o),
(779.51,243.58,cs),
(770.72,243.58,o),
(761.1,237.44,o),
(755.02,223.,c)
);
},
{
closed = 1;
nodes = (
(503.41,322.95,o),
(463.17,320.01,o),
(422.65,318.04,c),
(428.39,330.93,o),
(434.17,343.93,o),
(440.02,357.,cs),
(494.02,479.,o),
(562.02,622.5,o),
(579.02,622.5,cs),
(588.48,622.5,o),
(553.25,497.56,o),
(540.48,326.54,c)
);
}
);
width = 731;
}
);
leftKerningGroup = A2;
rightKerningGroup = A;
unicode = 195;
},
